<svg width="1440" height="785" viewBox="0 0 1440 785" fill="none" xmlns="http://www.w3.org/2000/svg">
<path d="M0 0H1440V785H0V0Z" fill="#3342AE"/>
<path d="M125 480.5C125 476.358 128.358 473 132.5 473H139.5C143.642 473 147 476.358 147 480.5C147 484.642 143.642 488 139.5 488H132.5C128.358 488 125 484.642 125 480.5Z" fill="#5865C4"/>
<path d="M682.443 101.647C684.123 96.3855 689.751 93.4827 695.012 95.1629L849.332 144.449C854.593 146.129 857.496 151.756 855.816 157.017L851.557 170.353C849.876 175.615 844.249 178.517 838.988 176.837L684.668 127.551C679.407 125.871 676.504 120.244 678.184 114.983L682.443 101.647Z" fill="#373F7C"/>
<path d="M572 537.5C572 533.358 575.358 530 579.5 530H700.5C704.642 530 708 533.358 708 537.5C708 541.642 704.642 545 700.5 545H579.5C575.358 545 572 541.642 572 537.5Z" fill="#5865C4"/>
<path d="M1179 392.5C1179 388.358 1182.36 385 1186.5 385H1257.5C1261.64 385 1265 388.358 1265 392.5C1265 396.642 1261.64 400 1257.5 400H1186.5C1182.36 400 1179 396.642 1179 392.5Z" fill="#5865C4"/>
<path d="M1333 410C1333 404.477 1337.48 400 1343 400H1345C1350.52 400 1355 404.477 1355 410V478C1355 483.523 1350.52 488 1345 488H1343C1337.48 488 1333 483.523 1333 478V410Z" fill="#5865C4"/>
<path d="M265 420C265 414.477 269.477 410 275 410H277C282.523 410 287 414.477 287 420V456C287 461.523 282.523 466 277 466H275C269.477 466 265 461.523 265 456V420Z" fill="#5865C4"/>
<path d="M617 175.5C617 171.358 620.358 168 624.5 168H631.5C635.642 168 639 171.358 639 175.5C639 179.642 635.642 183 631.5 183H624.5C620.358 183 617 179.642 617 175.5Z" fill="#5865C4"/>
<path d="M231 163C231 157.477 235.477 153 241 153H243C248.523 153 253 157.477 253 163V173C253 178.523 248.523 183 243 183H241C235.477 183 231 178.523 231 173V163Z" fill="#5865C4"/>
<path d="M908 110C908 104.477 912.477 100 918 100H920C925.523 100 930 104.477 930 110V173C930 178.523 925.523 183 920 183H918C912.477 183 908 178.523 908 173V110Z" fill="#5865C4"/>
<path d="M864 561C864 555.477 868.477 551 874 551H876C881.523 551 886 555.477 886 561V604C886 609.523 881.523 614 876 614H874C868.477 614 864 609.523 864 604V561Z" fill="#5865C4"/>
<path d="M443 476C443 470.477 447.477 466 453 466H455C460.523 466 465 470.477 465 476V535C465 540.523 460.523 545 455 545H453C447.477 545 443 540.523 443 535V476Z" fill="#5865C4"/>
<path d="M875 483C875 477.477 879.477 473 885 473H887C892.523 473 897 477.477 897 483V508C897 513.523 892.523 518 887 518H885C879.477 518 875 513.523 875 508V483Z" fill="#5865C4"/>
<path d="M1093 145.5C1093 141.358 1096.36 138 1100.5 138H1128.5C1132.64 138 1136 141.358 1136 145.5C1136 149.642 1132.64 153 1128.5 153H1100.5C1096.36 153 1093 149.642 1093 145.5Z" fill="#5865C4"/>
<path d="M1093 483C1093 477.477 1097.48 473 1103 473H1105C1110.52 473 1115 477.477 1115 483V508C1115 513.523 1110.52 518 1105 518H1103C1097.48 518 1093 513.523 1093 508V483Z" fill="#5865C4"/>
<path d="M136 45C136 39.4772 140.477 35 146 35H148C153.523 35 158 39.4772 158 45V63C158 68.5228 153.523 73 148 73H146C140.477 73 136 68.5228 136 63V45Z" fill="#5865C4"/>
<path d="M415 95C415 89.4772 419.477 85 425 85H466C471.523 85 476 89.4772 476 95V113C476 118.523 471.523 123 466 123H425C419.477 123 415 118.523 415 113V95Z" fill="#5865C4"/>
<path d="M333 543.5C333 539.358 336.358 536 340.5 536H347.5C351.642 536 355 539.358 355 543.5C355 547.642 351.642 551 347.5 551H340.5C336.358 551 333 547.642 333 543.5Z" fill="#5865C4"/>
<path d="M947 58.5C947 54.3579 950.358 51 954.5 51H961.5C965.642 51 969 54.3579 969 58.5C969 62.6421 965.642 66 961.5 66H954.5C950.358 66 947 62.6421 947 58.5Z" fill="#5865C4"/>
<path d="M759 68C759 62.4772 763.477 58 769 58H771C776.523 58 781 62.4772 781 68V75C781 80.5228 776.523 85 771 85H769C763.477 85 759 80.5228 759 75V68Z" fill="#5865C4"/>
<path d="M1082 650.5C1082 646.358 1085.36 643 1089.5 643H1128.5C1132.64 643 1136 646.358 1136 650.5C1136 654.642 1132.64 658 1128.5 658H1089.5C1085.36 658 1082 654.642 1082 650.5Z" fill="#5865C4"/>
<path d="M720 594C720 588.477 724.477 584 730 584H804C809.523 584 814 588.477 814 594V611C814 616.523 809.523 621 804 621H730C724.477 621 720 616.523 720 611V594Z" fill="#5865C4"/>
<path d="M727 480.5C727 476.358 730.358 473 734.5 473H787.5C791.642 473 795 476.358 795 480.5C795 484.642 791.642 488 787.5 488H734.5C730.358 488 727 484.642 727 480.5Z" fill="#5865C4"/>
<path d="M465 237.5C465 233.358 468.358 230 472.5 230H479.5C483.642 230 487 233.358 487 237.5C487 241.642 483.642 245 479.5 245H472.5C468.358 245 465 241.642 465 237.5Z" fill="#5865C4"/>
<path d="M1311 255C1311 249.477 1315.48 245 1321 245H1323C1328.52 245 1333 249.477 1333 255V338C1333 343.523 1328.52 348 1323 348H1321C1315.48 348 1311 343.523 1311 338V255Z" fill="#5865C4"/>
<path d="M1082 77.5C1082 73.3579 1085.36 70 1089.5 70H1096.5C1100.64 70 1104 73.3579 1104 77.5C1104 81.6421 1100.64 85 1096.5 85H1089.5C1085.36 85 1082 81.6421 1082 77.5Z" fill="#5865C4"/>
<path d="M327 73.5C327 69.3579 330.358 66 334.5 66H341.5C345.642 66 349 69.3579 349 73.5C349 77.6421 345.642 81 341.5 81H334.5C330.358 81 327 77.6421 327 73.5Z" fill="#5865C4"/>
<path d="M77 231C77 225.477 81.4772 221 87 221H149C154.523 221 159 225.477 159 231V242C159 247.523 154.523 252 149 252H87C81.4772 252 77 247.523 77 242V231Z" fill="#5865C4"/>
<path d="M147 555.5C147 551.358 150.358 548 154.5 548H268.5C272.642 548 276 551.358 276 555.5C276 559.642 272.642 563 268.5 563H154.5C150.358 563 147 559.642 147 555.5Z" fill="#5865C4"/>
<path d="M1289 591.5C1289 587.358 1292.36 584 1296.5 584H1333.5C1337.64 584 1341 587.358 1341 591.5C1341 595.642 1337.64 599 1333.5 599H1296.5C1292.36 599 1289 595.642 1289 591.5Z" fill="#5865C4"/>
<path d="M807 213.5C807 209.358 810.358 206 814.5 206H900.5C904.642 206 908 209.358 908 213.5C908 217.642 904.642 221 900.5 221H814.5C810.358 221 807 217.642 807 213.5Z" fill="#5865C4"/>
<path d="M1218 130.5C1218 126.358 1221.36 123 1225.5 123H1275.5C1279.64 123 1283 126.358 1283 130.5C1283 134.642 1279.64 138 1275.5 138H1225.5C1221.36 138 1218 134.642 1218 130.5Z" fill="#5865C4"/>
<path d="M1114 228.5C1114 224.358 1117.36 221 1121.5 221H1198.5C1202.64 221 1206 224.358 1206 228.5C1206 232.642 1202.64 236 1198.5 236H1121.5C1117.36 236 1114 232.642 1114 228.5Z" fill="#5865C4"/>
<path d="M595 61C595 55.4772 599.477 51 605 51H607C612.523 51 617 55.4772 617 61V90C617 95.5228 612.523 100 607 100H605C599.477 100 595 95.5228 595 90V61Z" fill="#5865C4"/>
<path d="M276 262.5C276 258.358 279.358 255 283.5 255H311.5C315.642 255 319 258.358 319 262.5C319 266.642 315.642 270 311.5 270H283.5C279.358 270 276 266.642 276 262.5Z" fill="#5865C4"/>
<path d="M102 372.5C102 368.358 105.358 365 109.5 365H139.5C143.642 365 147 368.358 147 372.5C147 376.642 143.642 380 139.5 380H109.5C105.358 380 102 376.642 102 372.5Z" fill="#5865C4"/>
<path d="M466 110C466 104.477 470.477 100 476 100H585C590.523 100 595 104.477 595 110V162C595 167.523 590.523 172 585 172H476C470.477 172 466 167.523 466 162V110Z" fill="#373F7C"/>
<path d="M986 193C986 187.477 990.477 183 996 183H1105C1110.52 183 1115 187.477 1115 193V196C1115 201.523 1110.52 206 1105 206H996C990.477 206 986 201.523 986 196V193Z" fill="#373F7C"/>
<path d="M335 454C335 448.477 339.477 444 345 444H405C410.523 444 415 448.477 415 454V502C415 507.523 410.523 512 405 512H345C339.477 512 335 507.523 335 502V454Z" fill="#373F7C"/>
<path d="M133.67 109.477C131.571 104.368 134.011 98.5255 139.119 96.4267L176.118 81.2257C181.227 79.1269 187.07 81.5667 189.168 86.6752L220.33 162.523C222.429 167.632 219.989 173.475 214.881 175.573L177.882 190.774C172.773 192.873 166.93 190.433 164.832 185.325L133.67 109.477Z" fill="#373F7C"/>
<path d="M623.105 580.803C621.521 575.513 624.525 569.939 629.816 568.355L727.527 539.089C732.818 537.504 738.391 540.508 739.976 545.799L746.001 565.916C747.586 571.207 744.582 576.78 739.291 578.365L641.58 607.631C636.289 609.215 630.715 606.211 629.131 600.92L623.105 580.803Z" fill="#373F7C"/>
<path d="M1325 148C1325 142.477 1329.48 138 1335 138H1346C1351.52 138 1356 142.477 1356 148V196C1356 201.523 1351.52 206 1346 206H1335C1329.48 206 1325 201.523 1325 196V148Z" fill="#373F7C"/>
<path d="M1112 64C1112 58.4772 1116.48 54 1122 54H1182C1187.52 54 1192 58.4772 1192 64V112C1192 117.523 1187.52 122 1182 122H1122C1116.48 122 1112 117.523 1112 112V64Z" fill="#373F7C"/>
<path d="M1184.32 535.814C1186.09 530.585 1191.77 527.788 1197 529.566L1253.81 548.883C1259.04 550.661 1261.83 556.342 1260.06 561.57L1251.68 586.186C1249.91 591.415 1244.23 594.212 1239 592.434L1182.19 573.117C1176.96 571.339 1174.17 565.658 1175.94 560.43L1184.32 535.814Z" fill="#373F7C"/>
<path d="M987.281 463.787C989.034 458.55 994.701 455.726 999.938 457.479L1017.01 463.192C1022.24 464.945 1025.07 470.612 1023.32 475.849L988.719 579.212C986.966 584.45 981.299 587.274 976.062 585.521L958.993 579.808C953.755 578.055 950.931 572.388 952.684 567.151L987.281 463.787Z" fill="#373F7C"/>
</svg>
