<svg width="136" height="40" viewBox="0 0 136 40" fill="none" xmlns="http://www.w3.org/2000/svg">
<rect x="0.244629" width="135.243" height="40" rx="8" fill="#31344A"/>
<path d="M19.9886 25L16.3295 20.1705H15.6932V25H12.8807V13.3636H15.6932V17.8807H16.142L19.7443 13.3636H23.2614L18.7784 18.858L23.4943 25H19.9886ZM30.6747 19.5511V21.6705H26.1974V19.5511H30.6747ZM27.152 16.2727V25H24.5213V16.2727H27.152ZM32.3509 16.2727V25H29.7372V16.2727H32.3509ZM36.6676 21.4034L39.4574 16.2727H42.1278V25H39.4972V19.8523L36.7131 25H34.0369V16.2727H36.6676V21.4034ZM50.0668 16.2727V18.3977H46.5838V25H43.8963V16.2727H50.0668ZM54.0114 21.4034L56.8011 16.2727H59.4716V25H56.8409V19.8523L54.0568 25H51.3807V16.2727H54.0114V21.4034ZM70.831 19.5511V21.6705H66.3537V19.5511H70.831ZM67.3082 16.2727V25H64.6776V16.2727H67.3082ZM72.5071 16.2727V25H69.8935V16.2727H72.5071ZM78.2727 25.1648C77.3598 25.1648 76.572 24.9848 75.9091 24.625C75.25 24.2614 74.7424 23.7443 74.3864 23.0739C74.0341 22.3996 73.858 21.5985 73.858 20.6705C73.858 19.7689 74.036 18.9811 74.392 18.3068C74.7481 17.6288 75.25 17.1023 75.8977 16.7273C76.5455 16.3485 77.3087 16.1591 78.1875 16.1591C78.8087 16.1591 79.3769 16.2557 79.892 16.4489C80.4072 16.642 80.8523 16.928 81.2273 17.3068C81.6023 17.6856 81.8939 18.1534 82.1023 18.7102C82.3106 19.2633 82.4148 19.8977 82.4148 20.6136V21.3068H74.8295V19.6932H79.8295C79.8258 19.3977 79.7557 19.1345 79.6193 18.9034C79.483 18.6723 79.2955 18.4924 79.0568 18.3636C78.822 18.2311 78.5511 18.1648 78.2443 18.1648C77.9337 18.1648 77.6553 18.2348 77.4091 18.375C77.1629 18.5114 76.9678 18.6989 76.8239 18.9375C76.6799 19.1723 76.6042 19.4394 76.5966 19.7386V21.3807C76.5966 21.7367 76.6667 22.0492 76.8068 22.3182C76.947 22.5833 77.1458 22.7898 77.4034 22.9375C77.661 23.0852 77.9678 23.1591 78.3239 23.1591C78.5701 23.1591 78.7936 23.125 78.9943 23.0568C79.1951 22.9886 79.3674 22.8883 79.5114 22.7557C79.6553 22.6231 79.7633 22.4602 79.8352 22.267L82.3864 22.3409C82.2803 22.9129 82.0473 23.411 81.6875 23.8352C81.3314 24.2557 80.8636 24.5833 80.2841 24.8182C79.7045 25.0492 79.0341 25.1648 78.2727 25.1648ZM83.2315 27.5739V22.858H83.8849C84.0819 22.7595 84.2391 22.5701 84.3565 22.2898C84.474 22.0057 84.5668 21.6742 84.6349 21.2955C84.7069 20.9129 84.7599 20.5152 84.794 20.1023C84.8319 19.6856 84.866 19.2936 84.8963 18.9261L85.1009 16.2727H92.169V22.858H93.5327V27.5739H90.8963V25H85.9361V27.5739H83.2315ZM86.5895 22.858H89.5781V18.3409H87.419L87.3736 18.9261C87.3205 19.8655 87.2372 20.6534 87.1236 21.2898C87.0099 21.9261 86.8319 22.4489 86.5895 22.858ZM98.8977 25.1648C97.9848 25.1648 97.197 24.9848 96.5341 24.625C95.875 24.2614 95.3674 23.7443 95.0114 23.0739C94.6591 22.3996 94.483 21.5985 94.483 20.6705C94.483 19.7689 94.661 18.9811 95.017 18.3068C95.3731 17.6288 95.875 17.1023 96.5227 16.7273C97.1705 16.3485 97.9337 16.1591 98.8125 16.1591C99.4337 16.1591 100.002 16.2557 100.517 16.4489C101.032 16.642 101.477 16.928 101.852 17.3068C102.227 17.6856 102.519 18.1534 102.727 18.7102C102.936 19.2633 103.04 19.8977 103.04 20.6136V21.3068H95.4545V19.6932H100.455C100.451 19.3977 100.381 19.1345 100.244 18.9034C100.108 18.6723 99.9205 18.4924 99.6818 18.3636C99.447 18.2311 99.1761 18.1648 98.8693 18.1648C98.5587 18.1648 98.2803 18.2348 98.0341 18.375C97.7879 18.5114 97.5928 18.6989 97.4489 18.9375C97.3049 19.1723 97.2292 19.4394 97.2216 19.7386V21.3807C97.2216 21.7367 97.2917 22.0492 97.4318 22.3182C97.572 22.5833 97.7708 22.7898 98.0284 22.9375C98.286 23.0852 98.5928 23.1591 98.9489 23.1591C99.1951 23.1591 99.4186 23.125 99.6193 23.0568C99.8201 22.9886 99.9924 22.8883 100.136 22.7557C100.28 22.6231 100.388 22.4602 100.46 22.267L103.011 22.3409C102.905 22.9129 102.672 23.411 102.312 23.8352C101.956 24.2557 101.489 24.5833 100.909 24.8182C100.33 25.0492 99.6591 25.1648 98.8977 25.1648ZM104.033 25L104.016 22.858H104.294C104.483 22.858 104.648 22.8087 104.788 22.7102C104.929 22.6117 105.046 22.4545 105.141 22.2386C105.235 22.0189 105.311 21.7367 105.368 21.392C105.425 21.0473 105.461 20.6288 105.476 20.1364L105.618 16.2727H112.527V25H109.896V18.3977H108.089L107.953 20.9091C107.919 21.6477 107.822 22.2784 107.663 22.8011C107.508 23.3201 107.296 23.7405 107.027 24.0625C106.762 24.3845 106.447 24.6212 106.084 24.7727C105.72 24.9242 105.309 25 104.851 25H104.033ZM116.855 21.4034L119.645 16.2727H122.315V25H119.685V19.8523L116.901 25H114.224V16.2727H116.855V21.4034Z" fill="white"/>
</svg>
