<svg width="136" height="40" viewBox="0 0 136 40" fill="none" xmlns="http://www.w3.org/2000/svg">
<rect x="0.244446" width="135.243" height="40" rx="8" fill="#31344A"/>
<path d="M19.9886 24L16.3295 19.1705H15.6932V24H12.8807V12.3636H15.6932V16.8807H16.142L19.7443 12.3636H23.2614L18.7784 17.858L23.4943 24H19.9886ZM30.6747 18.5511V20.6705H26.1974V18.5511H30.6747ZM27.152 15.2727V24H24.5213V15.2727H27.152ZM32.3509 15.2727V24H29.7372V15.2727H32.3509ZM36.6676 20.4034L39.4574 15.2727H42.1278V24H39.4972V18.8523L36.7131 24H34.0369V15.2727H36.6676V20.4034ZM50.0668 15.2727V17.3977H46.5838V24H43.8963V15.2727H50.0668ZM54.0114 20.4034L56.8011 15.2727H59.4716V24H56.8409V18.8523L54.0568 24H51.3807V15.2727H54.0114V20.4034ZM70.831 18.5511V20.6705H66.3537V18.5511H70.831ZM67.3082 15.2727V24H64.6776V15.2727H67.3082ZM72.5071 15.2727V24H69.8935V15.2727H72.5071ZM78.2727 24.1648C77.3598 24.1648 76.572 23.9848 75.9091 23.625C75.25 23.2614 74.7424 22.7443 74.3864 22.0739C74.0341 21.3996 73.858 20.5985 73.858 19.6705C73.858 18.7689 74.036 17.9811 74.392 17.3068C74.7481 16.6288 75.25 16.1023 75.8977 15.7273C76.5455 15.3485 77.3087 15.1591 78.1875 15.1591C78.8087 15.1591 79.3769 15.2557 79.892 15.4489C80.4072 15.642 80.8523 15.928 81.2273 16.3068C81.6023 16.6856 81.8939 17.1534 82.1023 17.7102C82.3106 18.2633 82.4148 18.8977 82.4148 19.6136V20.3068H74.8295V18.6932H79.8295C79.8258 18.3977 79.7557 18.1345 79.6193 17.9034C79.483 17.6723 79.2955 17.4924 79.0568 17.3636C78.822 17.2311 78.5511 17.1648 78.2443 17.1648C77.9337 17.1648 77.6553 17.2348 77.4091 17.375C77.1629 17.5114 76.9678 17.6989 76.8239 17.9375C76.6799 18.1723 76.6042 18.4394 76.5966 18.7386V20.3807C76.5966 20.7367 76.6667 21.0492 76.8068 21.3182C76.947 21.5833 77.1458 21.7898 77.4034 21.9375C77.661 22.0852 77.9678 22.1591 78.3239 22.1591C78.5701 22.1591 78.7936 22.125 78.9943 22.0568C79.1951 21.9886 79.3674 21.8883 79.5114 21.7557C79.6553 21.6231 79.7633 21.4602 79.8352 21.267L82.3864 21.3409C82.2803 21.9129 82.0473 22.411 81.6875 22.8352C81.3314 23.2557 80.8636 23.5833 80.2841 23.8182C79.7045 24.0492 79.0341 24.1648 78.2727 24.1648ZM83.2315 26.5739V21.858H83.8849C84.0819 21.7595 84.2391 21.5701 84.3565 21.2898C84.474 21.0057 84.5668 20.6742 84.6349 20.2955C84.7069 19.9129 84.7599 19.5152 84.794 19.1023C84.8319 18.6856 84.866 18.2936 84.8963 17.9261L85.1009 15.2727H92.169V21.858H93.5327V26.5739H90.8963V24H85.9361V26.5739H83.2315ZM86.5895 21.858H89.5781V17.3409H87.419L87.3736 17.9261C87.3205 18.8655 87.2372 19.6534 87.1236 20.2898C87.0099 20.9261 86.8319 21.4489 86.5895 21.858ZM98.8977 24.1648C97.9848 24.1648 97.197 23.9848 96.5341 23.625C95.875 23.2614 95.3674 22.7443 95.0114 22.0739C94.6591 21.3996 94.483 20.5985 94.483 19.6705C94.483 18.7689 94.661 17.9811 95.017 17.3068C95.3731 16.6288 95.875 16.1023 96.5227 15.7273C97.1705 15.3485 97.9337 15.1591 98.8125 15.1591C99.4337 15.1591 100.002 15.2557 100.517 15.4489C101.032 15.642 101.477 15.928 101.852 16.3068C102.227 16.6856 102.519 17.1534 102.727 17.7102C102.936 18.2633 103.04 18.8977 103.04 19.6136V20.3068H95.4545V18.6932H100.455C100.451 18.3977 100.381 18.1345 100.244 17.9034C100.108 17.6723 99.9205 17.4924 99.6818 17.3636C99.447 17.2311 99.1761 17.1648 98.8693 17.1648C98.5587 17.1648 98.2803 17.2348 98.0341 17.375C97.7879 17.5114 97.5928 17.6989 97.4489 17.9375C97.3049 18.1723 97.2292 18.4394 97.2216 18.7386V20.3807C97.2216 20.7367 97.2917 21.0492 97.4318 21.3182C97.572 21.5833 97.7708 21.7898 98.0284 21.9375C98.286 22.0852 98.5928 22.1591 98.9489 22.1591C99.1951 22.1591 99.4186 22.125 99.6193 22.0568C99.8201 21.9886 99.9924 21.8883 100.136 21.7557C100.28 21.6231 100.388 21.4602 100.46 21.267L103.011 21.3409C102.905 21.9129 102.672 22.411 102.312 22.8352C101.956 23.2557 101.489 23.5833 100.909 23.8182C100.33 24.0492 99.6591 24.1648 98.8977 24.1648ZM104.033 24L104.016 21.858H104.294C104.483 21.858 104.648 21.8087 104.788 21.7102C104.929 21.6117 105.046 21.4545 105.141 21.2386C105.235 21.0189 105.311 20.7367 105.368 20.392C105.425 20.0473 105.461 19.6288 105.476 19.1364L105.618 15.2727H112.527V24H109.896V17.3977H108.089L107.953 19.9091C107.919 20.6477 107.822 21.2784 107.663 21.8011C107.508 22.3201 107.296 22.7405 107.027 23.0625C106.762 23.3845 106.447 23.6212 106.084 23.7727C105.72 23.9242 105.309 24 104.851 24H104.033ZM116.855 20.4034L119.645 15.2727H122.315V24H119.685V18.8523L116.901 24H114.224V15.2727H116.855V20.4034Z" fill="white"/>
</svg>
