<svg width="62" height="40" viewBox="0 0 62 40" fill="none" xmlns="http://www.w3.org/2000/svg">
<mask id="path-1-inside-1_124_86" fill="white">
<path d="M0.707031 8C0.707031 3.58172 4.28875 0 8.70703 0H53.707C58.1253 0 61.707 3.58172 61.707 8V32C61.707 36.4183 58.1253 40 53.707 40H8.70703C4.28875 40 0.707031 36.4183 0.707031 32V8Z"/>
</mask>
<path d="M0.707031 8C0.707031 3.58172 4.28875 0 8.70703 0H53.707C58.1253 0 61.707 3.58172 61.707 8V32C61.707 36.4183 58.1253 40 53.707 40H8.70703C4.28875 40 0.707031 36.4183 0.707031 32V8Z" fill="#31344A"/>
<path d="M8.70703 1H53.707V-1H8.70703V1ZM60.707 8V32H62.707V8H60.707ZM53.707 39H8.70703V41H53.707V39ZM1.70703 32V8H-0.292969V32H1.70703ZM8.70703 39C4.84104 39 1.70703 35.866 1.70703 32H-0.292969C-0.292969 36.9706 3.73647 41 8.70703 41V39ZM60.707 32C60.707 35.866 57.573 39 53.707 39V41C58.6776 41 62.707 36.9706 62.707 32H60.707ZM53.707 1C57.573 1 60.707 4.13401 60.707 8H62.707C62.707 3.02944 58.6776 -1 53.707 -1V1ZM8.70703 -1C3.73647 -1 -0.292969 3.02944 -0.292969 8H1.70703C1.70703 4.13401 4.84104 1 8.70703 1V-1Z" fill="#31344A" mask="url(#path-1-inside-1_124_86)"/>
<path d="M7.58771 26V14.3636H12.44C13.3112 14.3636 14.0404 14.4867 14.6275 14.733C15.2184 14.9792 15.6616 15.3239 15.957 15.767C16.2563 16.2102 16.4059 16.7235 16.4059 17.3068C16.4059 17.75 16.3131 18.1458 16.1275 18.4943C15.9419 18.839 15.6862 19.125 15.3604 19.3523C15.0347 19.5795 14.6578 19.7386 14.2298 19.8295V19.9432C14.6995 19.9659 15.1332 20.0928 15.5309 20.3239C15.9324 20.5549 16.2544 20.8769 16.4968 21.2898C16.7392 21.6989 16.8604 22.1837 16.8604 22.7443C16.8604 23.3693 16.7013 23.928 16.3832 24.4205C16.065 24.9091 15.6048 25.2955 15.0025 25.5795C14.4002 25.8598 13.6692 26 12.8093 26H7.58771ZM10.4002 23.733H12.1388C12.7487 23.733 13.1976 23.6174 13.4854 23.3864C13.7771 23.1553 13.9229 22.8333 13.9229 22.4205C13.9229 22.1212 13.8529 21.8636 13.7127 21.6477C13.5726 21.428 13.3737 21.2595 13.1161 21.142C12.8585 21.0208 12.5498 20.9602 12.19 20.9602H10.4002V23.733ZM10.4002 19.1477H11.957C12.2638 19.1477 12.5366 19.0966 12.7752 18.9943C13.0138 18.892 13.1995 18.7443 13.332 18.5511C13.4684 18.358 13.5366 18.125 13.5366 17.8523C13.5366 17.4621 13.3983 17.1553 13.1218 16.9318C12.8453 16.7083 12.4722 16.5966 12.0025 16.5966H10.4002V19.1477ZM22.2866 26.1648C21.3699 26.1648 20.582 25.9773 19.9229 25.6023C19.2676 25.2235 18.762 24.697 18.4059 24.0227C18.0536 23.3447 17.8775 22.5587 17.8775 21.6648C17.8775 20.767 18.0536 19.9811 18.4059 19.3068C18.762 18.6288 19.2676 18.1023 19.9229 17.7273C20.582 17.3485 21.3699 17.1591 22.2866 17.1591C23.2032 17.1591 23.9892 17.3485 24.6445 17.7273C25.3036 18.1023 25.8093 18.6288 26.1616 19.3068C26.5176 19.9811 26.6957 20.767 26.6957 21.6648C26.6957 22.5587 26.5176 23.3447 26.1616 24.0227C25.8093 24.697 25.3036 25.2235 24.6445 25.6023C23.9892 25.9773 23.2032 26.1648 22.2866 26.1648ZM22.3036 24.0682C22.637 24.0682 22.9192 23.9659 23.1502 23.7614C23.3813 23.5568 23.5574 23.2727 23.6786 22.9091C23.8036 22.5455 23.8661 22.125 23.8661 21.6477C23.8661 21.1629 23.8036 20.7386 23.6786 20.375C23.5574 20.0114 23.3813 19.7273 23.1502 19.5227C22.9192 19.3182 22.637 19.2159 22.3036 19.2159C21.9589 19.2159 21.6673 19.3182 21.4286 19.5227C21.1938 19.7273 21.0138 20.0114 20.8888 20.375C20.7676 20.7386 20.707 21.1629 20.707 21.6477C20.707 22.125 20.7676 22.5455 20.8888 22.9091C21.0138 23.2727 21.1938 23.5568 21.4286 23.7614C21.6673 23.9659 21.9589 24.0682 22.3036 24.0682ZM30.7496 22.4034L33.5394 17.2727H36.2099V26H33.5792V20.8523L30.7951 26H28.119V17.2727H30.7496V22.4034ZM33.2894 14.1818H35.119C35.1152 14.8939 34.8462 15.4659 34.3121 15.8977C33.7818 16.3295 33.0621 16.5455 32.1531 16.5455C31.244 16.5455 30.5224 16.3295 29.9883 15.8977C29.458 15.4659 29.1947 14.8939 29.1985 14.1818H31.011C31.0072 14.4318 31.0924 14.6591 31.2667 14.8636C31.4409 15.0682 31.7364 15.1705 32.1531 15.1705C32.5584 15.1705 32.8481 15.0701 33.0224 14.8693C33.1966 14.6686 33.2856 14.4394 33.2894 14.1818ZM37.207 19.3977V17.2727H45.3888V19.3977H42.5991V26H39.9627V19.3977H37.207ZM49.3434 22.4034L52.1332 17.2727H54.8036V26H52.1729V20.8523L49.3888 26H46.7127V17.2727H49.3434V22.4034Z" fill="#F5F5F5"/>
</svg>
