<svg width="82" height="40" viewBox="0 0 82 40" fill="none" xmlns="http://www.w3.org/2000/svg">
<rect x="0.815247" width="81.1458" height="40" rx="8" fill="#31344A"/>
<path d="M5.88068 26V14.3636H8.69318V19.0341H13.2784V14.3636H16.0852V26H13.2784V21.3239H8.69318V26H5.88068ZM21.9233 26.1648C21.0066 26.1648 20.2188 25.9773 19.5597 25.6023C18.9044 25.2235 18.3987 24.697 18.0426 24.0227C17.6903 23.3447 17.5142 22.5587 17.5142 21.6648C17.5142 20.767 17.6903 19.9811 18.0426 19.3068C18.3987 18.6288 18.9044 18.1023 19.5597 17.7273C20.2188 17.3485 21.0066 17.1591 21.9233 17.1591C22.84 17.1591 23.6259 17.3485 24.2812 17.7273C24.9403 18.1023 25.446 18.6288 25.7983 19.3068C26.1544 19.9811 26.3324 20.767 26.3324 21.6648C26.3324 22.5587 26.1544 23.3447 25.7983 24.0227C25.446 24.697 24.9403 25.2235 24.2812 25.6023C23.6259 25.9773 22.84 26.1648 21.9233 26.1648ZM21.9403 24.0682C22.2737 24.0682 22.5559 23.9659 22.7869 23.7614C23.018 23.5568 23.1941 23.2727 23.3153 22.9091C23.4403 22.5455 23.5028 22.125 23.5028 21.6477C23.5028 21.1629 23.4403 20.7386 23.3153 20.375C23.1941 20.0114 23.018 19.7273 22.7869 19.5227C22.5559 19.3182 22.2737 19.2159 21.9403 19.2159C21.5956 19.2159 21.304 19.3182 21.0653 19.5227C20.8305 19.7273 20.6506 20.0114 20.5256 20.375C20.4044 20.7386 20.3438 21.1629 20.3438 21.6477C20.3438 22.125 20.4044 22.5455 20.5256 22.9091C20.6506 23.2727 20.8305 23.5568 21.0653 23.7614C21.304 23.9659 21.5956 24.0682 21.9403 24.0682ZM27.7557 26V17.2727H31.5227C32.6477 17.2727 33.5341 17.4754 34.1818 17.8807C34.8333 18.2822 35.1591 18.8712 35.1591 19.6477C35.1591 20.0985 34.9754 20.4867 34.608 20.8125C34.2443 21.1345 33.7273 21.3523 33.0568 21.4659C33.6477 21.4962 34.1383 21.6136 34.5284 21.8182C34.9186 22.0227 35.2102 22.2822 35.4034 22.5966C35.5966 22.911 35.6932 23.2462 35.6932 23.6023C35.6932 24.1174 35.5549 24.553 35.2784 24.9091C35.0019 25.2652 34.5966 25.536 34.0625 25.7216C33.5322 25.9072 32.8807 26 32.108 26H27.7557ZM30.3409 23.9886H32.108C32.4034 23.9886 32.6345 23.9186 32.8011 23.7784C32.9716 23.6383 33.0568 23.4451 33.0568 23.1989C33.0568 22.9337 32.9716 22.7254 32.8011 22.5739C32.6345 22.4223 32.4034 22.3466 32.108 22.3466H30.3409V23.9886ZM30.3409 20.8409H31.5966C31.7973 20.8409 31.9697 20.8106 32.1136 20.75C32.2576 20.6894 32.3674 20.6023 32.4432 20.4886C32.5227 20.375 32.5625 20.2386 32.5625 20.0795C32.5625 19.8485 32.4697 19.6667 32.2841 19.5341C32.1023 19.4015 31.8485 19.3352 31.5227 19.3352H30.3409V20.8409ZM41.142 26.1648C40.2254 26.1648 39.4375 25.9773 38.7784 25.6023C38.1231 25.2235 37.6174 24.697 37.2614 24.0227C36.9091 23.3447 36.733 22.5587 36.733 21.6648C36.733 20.767 36.9091 19.9811 37.2614 19.3068C37.6174 18.6288 38.1231 18.1023 38.7784 17.7273C39.4375 17.3485 40.2254 17.1591 41.142 17.1591C42.0587 17.1591 42.8447 17.3485 43.5 17.7273C44.1591 18.1023 44.6648 18.6288 45.017 19.3068C45.3731 19.9811 45.5511 20.767 45.5511 21.6648C45.5511 22.5587 45.3731 23.3447 45.017 24.0227C44.6648 24.697 44.1591 25.2235 43.5 25.6023C42.8447 25.9773 42.0587 26.1648 41.142 26.1648ZM41.1591 24.0682C41.4924 24.0682 41.7746 23.9659 42.0057 23.7614C42.2367 23.5568 42.4129 23.2727 42.5341 22.9091C42.6591 22.5455 42.7216 22.125 42.7216 21.6477C42.7216 21.1629 42.6591 20.7386 42.5341 20.375C42.4129 20.0114 42.2367 19.7273 42.0057 19.5227C41.7746 19.3182 41.4924 19.2159 41.1591 19.2159C40.8144 19.2159 40.5227 19.3182 40.2841 19.5227C40.0492 19.7273 39.8693 20.0114 39.7443 20.375C39.6231 20.7386 39.5625 21.1629 39.5625 21.6477C39.5625 22.125 39.6231 22.5455 39.7443 22.9091C39.8693 23.2727 40.0492 23.5568 40.2841 23.7614C40.5227 23.9659 40.8144 24.0682 41.1591 24.0682ZM51.0483 26.1648C50.1278 26.1648 49.3381 25.9754 48.679 25.5966C48.0237 25.2178 47.5199 24.6913 47.1676 24.017C46.8153 23.339 46.6392 22.5549 46.6392 21.6648C46.6392 20.7708 46.8153 19.9867 47.1676 19.3125C47.5237 18.6345 48.0294 18.1061 48.6847 17.7273C49.3438 17.3485 50.1297 17.1591 51.0426 17.1591C51.8494 17.1591 52.5521 17.3049 53.1506 17.5966C53.7528 17.8883 54.2225 18.3011 54.5597 18.8352C54.9006 19.3655 55.0805 19.9886 55.0994 20.7045H52.5028C52.4498 20.2576 52.2983 19.9072 52.0483 19.6534C51.8021 19.3996 51.4801 19.2727 51.0824 19.2727C50.7604 19.2727 50.4782 19.3636 50.2358 19.5455C49.9934 19.7235 49.804 19.9886 49.6676 20.3409C49.535 20.6894 49.4688 21.1212 49.4688 21.6364C49.4688 22.1515 49.535 22.5871 49.6676 22.9432C49.804 23.2955 49.9934 23.5625 50.2358 23.7443C50.4782 23.9223 50.7604 24.0114 51.0824 24.0114C51.34 24.0114 51.5672 23.9564 51.7642 23.8466C51.965 23.7367 52.1297 23.5758 52.2585 23.3636C52.3873 23.1477 52.4688 22.8864 52.5028 22.5795H55.0994C55.0729 23.2992 54.893 23.928 54.5597 24.4659C54.2301 25.0038 53.7661 25.4223 53.1676 25.7216C52.5729 26.017 51.8665 26.1648 51.0483 26.1648ZM55.9688 19.3977V17.2727H64.1506V19.3977H61.3608V26H58.7244V19.3977H55.9688ZM68.1051 22.4034L70.8949 17.2727H73.5653V26H70.9347V20.8523L68.1506 26H65.4744V17.2727H68.1051V22.4034Z" fill="white"/>
</svg>
