<svg width="164" height="40" viewBox="0 0 164 40" fill="none" xmlns="http://www.w3.org/2000/svg">
<rect x="0.288818" width="163.374" height="40" rx="8" fill="#31344A"/>
<path d="M19.1705 13.3636V25H16.3977V15.6136H12.0795V25H9.30682V13.3636H19.1705ZM23.0483 28.2727C22.715 28.2727 22.4006 28.2462 22.1051 28.1932C21.8097 28.1439 21.5559 28.0777 21.3438 27.9943L21.9574 25.9773C22.2301 26.0682 22.4763 26.1212 22.696 26.1364C22.9195 26.1515 23.1108 26.1155 23.2699 26.0284C23.4328 25.9451 23.5578 25.7955 23.6449 25.5795L23.7528 25.3182L20.6506 16.2727H23.5597L25.1676 22.5H25.2585L26.8892 16.2727H29.8153L26.5256 25.8352C26.3665 26.3125 26.1411 26.733 25.8494 27.0966C25.5616 27.464 25.1884 27.7519 24.7301 27.9602C24.2756 28.1686 23.715 28.2727 23.0483 28.2727ZM38.3977 13.0909L39.1477 14.9261C38.9091 15.1117 38.6477 15.2519 38.3636 15.3466C38.0833 15.4413 37.7405 15.5057 37.3352 15.5398C36.9299 15.5739 36.4186 15.5928 35.8011 15.5966C35.1042 15.6004 34.5398 15.697 34.108 15.8864C33.6761 16.072 33.3485 16.3769 33.125 16.8011C32.9053 17.2216 32.7595 17.7822 32.6875 18.483H32.7614C33.0114 17.9564 33.3674 17.5417 33.8295 17.2386C34.2917 16.9356 34.8883 16.7841 35.6193 16.7841C36.3807 16.7841 37.0436 16.9489 37.608 17.2784C38.1723 17.6042 38.608 18.0701 38.9148 18.6761C39.2216 19.2784 39.375 19.9943 39.375 20.8239C39.375 21.7027 39.1989 22.4678 38.8466 23.1193C38.4943 23.7708 37.9905 24.2746 37.3352 24.6307C36.6799 24.9867 35.8958 25.1648 34.983 25.1648C34.0701 25.1648 33.2841 24.9792 32.625 24.608C31.9697 24.2367 31.464 23.6913 31.108 22.9716C30.7557 22.2481 30.5795 21.3598 30.5795 20.3068V19.6705C30.5795 17.5114 31.0152 15.9223 31.8864 14.9034C32.7576 13.8845 34.0303 13.3712 35.7045 13.3636C36.125 13.3598 36.5057 13.3598 36.8466 13.3636C37.1913 13.3636 37.4924 13.3466 37.75 13.3125C38.0076 13.2746 38.2235 13.2008 38.3977 13.0909ZM35 23.0682C35.3182 23.0682 35.5928 22.983 35.8239 22.8125C36.0549 22.642 36.233 22.3977 36.358 22.0795C36.483 21.7614 36.5455 21.3788 36.5455 20.9318C36.5455 20.4848 36.4811 20.1042 36.3523 19.7898C36.2273 19.4754 36.0492 19.2367 35.8182 19.0739C35.5871 18.9072 35.3125 18.8239 34.9943 18.8239C34.7519 18.8239 34.5322 18.8712 34.3352 18.9659C34.1383 19.0568 33.9716 19.1932 33.8352 19.375C33.6989 19.553 33.5947 19.7727 33.5227 20.0341C33.4508 20.2955 33.4148 20.5947 33.4148 20.9318C33.4148 21.5985 33.5549 22.1212 33.8352 22.5C34.1155 22.8788 34.5038 23.0682 35 23.0682ZM40.4077 25L40.3906 22.858H40.669C40.8584 22.858 41.0232 22.8087 41.1634 22.7102C41.3035 22.6117 41.4209 22.4545 41.5156 22.2386C41.6103 22.0189 41.6861 21.7367 41.7429 21.392C41.7997 21.0473 41.8357 20.6288 41.8509 20.1364L41.9929 16.2727H48.902V25H46.2713V18.3977H44.4645L44.3281 20.9091C44.294 21.6477 44.1974 22.2784 44.0384 22.8011C43.883 23.3201 43.6709 23.7405 43.402 24.0625C43.1368 24.3845 42.8224 24.6212 42.4588 24.7727C42.0952 24.9242 41.6842 25 41.2259 25H40.4077ZM53.2301 21.4034L56.0199 16.2727H58.6903V25H56.0597V19.8523L53.2756 25H50.5994V16.2727H53.2301V21.4034ZM60.4588 25V16.2727H63.2372V19.5227H63.8509L65.9702 16.2727H69.1861L66.2486 20.642L69.2145 25H65.9588L64.044 22.1023H63.2372V25H60.4588ZM72.544 25.1477C71.9872 25.1477 71.4929 25.0549 71.0611 24.8693C70.633 24.6799 70.294 24.3958 70.044 24.017C69.7978 23.6345 69.6747 23.1553 69.6747 22.5795C69.6747 22.0947 69.7599 21.6856 69.9304 21.3523C70.1009 21.0189 70.3357 20.7481 70.6349 20.5398C70.9342 20.3314 71.2789 20.1742 71.669 20.0682C72.0592 19.9583 72.4759 19.8845 72.919 19.8466C73.4152 19.8011 73.8149 19.7538 74.1179 19.7045C74.4209 19.6515 74.6406 19.5777 74.777 19.483C74.9171 19.3845 74.9872 19.2462 74.9872 19.0682V19.0398C74.9872 18.7481 74.8868 18.5227 74.6861 18.3636C74.4853 18.2045 74.2145 18.125 73.8736 18.125C73.5062 18.125 73.2107 18.2045 72.9872 18.3636C72.7637 18.5227 72.6217 18.7424 72.5611 19.0227L69.9986 18.9318C70.0743 18.4015 70.2694 17.928 70.5838 17.5114C70.902 17.0909 71.3376 16.7614 71.8906 16.5227C72.4474 16.2803 73.116 16.1591 73.8963 16.1591C74.4531 16.1591 74.9664 16.2254 75.4361 16.358C75.9058 16.4867 76.3149 16.6761 76.6634 16.9261C77.0118 17.1723 77.2808 17.4754 77.4702 17.8352C77.6634 18.1951 77.7599 18.6061 77.7599 19.0682V25H75.1463V23.7841H75.0781C74.9228 24.0795 74.724 24.3295 74.4815 24.5341C74.2429 24.7386 73.9607 24.892 73.6349 24.9943C73.313 25.0966 72.9493 25.1477 72.544 25.1477ZM73.402 23.3295C73.7012 23.3295 73.9702 23.2689 74.2088 23.1477C74.4512 23.0265 74.6444 22.8598 74.7884 22.6477C74.9323 22.4318 75.0043 22.1818 75.0043 21.8977V21.0682C74.9247 21.1098 74.8281 21.1477 74.7145 21.1818C74.6046 21.2159 74.4834 21.2481 74.3509 21.2784C74.2183 21.3087 74.0819 21.3352 73.9418 21.358C73.8016 21.3807 73.6671 21.4015 73.5384 21.4205C73.277 21.4621 73.0535 21.5265 72.8679 21.6136C72.6861 21.7008 72.5459 21.8144 72.4474 21.9545C72.3527 22.0909 72.3054 22.2538 72.3054 22.4432C72.3054 22.7311 72.4077 22.9508 72.6122 23.1023C72.8205 23.2538 73.0838 23.3295 73.402 23.3295ZM87.3395 16.2727V23.1875H88.7884V27.8011H86.1009V25H79.4588V16.2727H82.0895V22.875H84.7486V16.2727H87.3395ZM92.7145 21.4034L95.5043 16.2727H98.1747V25H95.544V19.8523L92.7599 25H90.0838V16.2727H92.7145V21.4034ZM105.011 25V18.392H103.602C103.182 18.392 102.867 18.4886 102.659 18.6818C102.451 18.875 102.35 19.0871 102.358 19.3182C102.35 19.5568 102.453 19.767 102.665 19.9489C102.877 20.1307 103.197 20.2216 103.625 20.2216H105.972V21.983H103.625C102.826 21.983 102.133 21.8674 101.545 21.6364C100.962 21.4015 100.511 21.0777 100.193 20.6648C99.8788 20.2481 99.7235 19.7689 99.7273 19.2273C99.7235 18.6477 99.8788 18.1364 100.193 17.6932C100.508 17.2462 100.955 16.8977 101.534 16.6477C102.117 16.3977 102.807 16.2727 103.602 16.2727H107.597V25H105.011ZM99.5568 25L101.96 20.3864H104.562L102.159 25H99.5568ZM112.724 28.2727V16.2727H115.474V17.767H115.56C115.673 17.5019 115.834 17.2462 116.043 17C116.255 16.7538 116.524 16.553 116.849 16.3977C117.179 16.2386 117.573 16.1591 118.031 16.1591C118.637 16.1591 119.204 16.3182 119.73 16.6364C120.26 16.9545 120.688 17.4451 121.014 18.108C121.34 18.7708 121.503 19.6155 121.503 20.642C121.503 21.6307 121.346 22.4583 121.031 23.125C120.721 23.7917 120.3 24.2917 119.77 24.625C119.243 24.9583 118.658 25.125 118.014 25.125C117.575 25.125 117.194 25.053 116.872 24.9091C116.55 24.7652 116.279 24.5758 116.06 24.3409C115.844 24.1061 115.677 23.8542 115.56 23.5852H115.503V28.2727H112.724ZM115.446 20.6364C115.446 21.1061 115.509 21.5152 115.634 21.8636C115.762 22.2121 115.946 22.483 116.185 22.6761C116.427 22.8655 116.717 22.9602 117.054 22.9602C117.395 22.9602 117.685 22.8655 117.923 22.6761C118.162 22.483 118.342 22.2121 118.463 21.8636C118.588 21.5152 118.651 21.1061 118.651 20.6364C118.651 20.1667 118.588 19.7595 118.463 19.4148C118.342 19.0701 118.162 18.803 117.923 18.6136C117.688 18.4242 117.399 18.3295 117.054 18.3295C116.713 18.3295 116.423 18.4223 116.185 18.608C115.946 18.7936 115.762 19.0587 115.634 19.4034C115.509 19.7481 115.446 20.1591 115.446 20.6364ZM125.419 25.1477C124.862 25.1477 124.368 25.0549 123.936 24.8693C123.508 24.6799 123.169 24.3958 122.919 24.017C122.673 23.6345 122.55 23.1553 122.55 22.5795C122.55 22.0947 122.635 21.6856 122.805 21.3523C122.976 21.0189 123.211 20.7481 123.51 20.5398C123.809 20.3314 124.154 20.1742 124.544 20.0682C124.934 19.9583 125.351 19.8845 125.794 19.8466C126.29 19.8011 126.69 19.7538 126.993 19.7045C127.296 19.6515 127.516 19.5777 127.652 19.483C127.792 19.3845 127.862 19.2462 127.862 19.0682V19.0398C127.862 18.7481 127.762 18.5227 127.561 18.3636C127.36 18.2045 127.089 18.125 126.749 18.125C126.381 18.125 126.086 18.2045 125.862 18.3636C125.639 18.5227 125.497 18.7424 125.436 19.0227L122.874 18.9318C122.949 18.4015 123.144 17.928 123.459 17.5114C123.777 17.0909 124.213 16.7614 124.766 16.5227C125.322 16.2803 125.991 16.1591 126.771 16.1591C127.328 16.1591 127.841 16.2254 128.311 16.358C128.781 16.4867 129.19 16.6761 129.538 16.9261C129.887 17.1723 130.156 17.4754 130.345 17.8352C130.538 18.1951 130.635 18.6061 130.635 19.0682V25H128.021V23.7841H127.953C127.798 24.0795 127.599 24.3295 127.357 24.5341C127.118 24.7386 126.836 24.892 126.51 24.9943C126.188 25.0966 125.824 25.1477 125.419 25.1477ZM126.277 23.3295C126.576 23.3295 126.845 23.2689 127.084 23.1477C127.326 23.0265 127.519 22.8598 127.663 22.6477C127.807 22.4318 127.879 22.1818 127.879 21.8977V21.0682C127.8 21.1098 127.703 21.1477 127.589 21.1818C127.48 21.2159 127.358 21.2481 127.226 21.2784C127.093 21.3087 126.957 21.3352 126.817 21.358C126.677 21.3807 126.542 21.4015 126.413 21.4205C126.152 21.4621 125.929 21.5265 125.743 21.6136C125.561 21.7008 125.421 21.8144 125.322 21.9545C125.228 22.0909 125.18 22.2538 125.18 22.4432C125.18 22.7311 125.283 22.9508 125.487 23.1023C125.696 23.2538 125.959 23.3295 126.277 23.3295ZM139.851 13.0909L140.601 14.9261C140.362 15.1117 140.101 15.2519 139.817 15.3466C139.536 15.4413 139.194 15.5057 138.788 15.5398C138.383 15.5739 137.872 15.5928 137.254 15.5966C136.557 15.6004 135.993 15.697 135.561 15.8864C135.129 16.072 134.802 16.3769 134.578 16.8011C134.358 17.2216 134.213 17.7822 134.141 18.483H134.214C134.464 17.9564 134.821 17.5417 135.283 17.2386C135.745 16.9356 136.341 16.7841 137.072 16.7841C137.834 16.7841 138.497 16.9489 139.061 17.2784C139.625 17.6042 140.061 18.0701 140.368 18.6761C140.675 19.2784 140.828 19.9943 140.828 20.8239C140.828 21.7027 140.652 22.4678 140.3 23.1193C139.947 23.7708 139.444 24.2746 138.788 24.6307C138.133 24.9867 137.349 25.1648 136.436 25.1648C135.523 25.1648 134.737 24.9792 134.078 24.608C133.423 24.2367 132.917 23.6913 132.561 22.9716C132.209 22.2481 132.033 21.3598 132.033 20.3068V19.6705C132.033 17.5114 132.468 15.9223 133.339 14.9034C134.211 13.8845 135.483 13.3712 137.158 13.3636C137.578 13.3598 137.959 13.3598 138.3 13.3636C138.644 13.3636 138.946 13.3466 139.203 13.3125C139.461 13.2746 139.677 13.2008 139.851 13.0909ZM136.453 23.0682C136.771 23.0682 137.046 22.983 137.277 22.8125C137.508 22.642 137.686 22.3977 137.811 22.0795C137.936 21.7614 137.999 21.3788 137.999 20.9318C137.999 20.4848 137.934 20.1042 137.805 19.7898C137.68 19.4754 137.502 19.2367 137.271 19.0739C137.04 18.9072 136.766 18.8239 136.447 18.8239C136.205 18.8239 135.985 18.8712 135.788 18.9659C135.591 19.0568 135.425 19.1932 135.288 19.375C135.152 19.553 135.048 19.7727 134.976 20.0341C134.904 20.2955 134.868 20.5947 134.868 20.9318C134.868 21.5985 135.008 22.1212 135.288 22.5C135.569 22.8788 135.957 23.0682 136.453 23.0682ZM146.361 25.1648C145.444 25.1648 144.656 24.9773 143.997 24.6023C143.342 24.2235 142.836 23.697 142.48 23.0227C142.128 22.3447 141.952 21.5587 141.952 20.6648C141.952 19.767 142.128 18.9811 142.48 18.3068C142.836 17.6288 143.342 17.1023 143.997 16.7273C144.656 16.3485 145.444 16.1591 146.361 16.1591C147.277 16.1591 148.063 16.3485 148.719 16.7273C149.378 17.1023 149.884 17.6288 150.236 18.3068C150.592 18.9811 150.77 19.767 150.77 20.6648C150.77 21.5587 150.592 22.3447 150.236 23.0227C149.884 23.697 149.378 24.2235 148.719 24.6023C148.063 24.9773 147.277 25.1648 146.361 25.1648ZM146.378 23.0682C146.711 23.0682 146.993 22.9659 147.224 22.7614C147.455 22.5568 147.632 22.2727 147.753 21.9091C147.878 21.5455 147.94 21.125 147.94 20.6477C147.94 20.1629 147.878 19.7386 147.753 19.375C147.632 19.0114 147.455 18.7273 147.224 18.5227C146.993 18.3182 146.711 18.2159 146.378 18.2159C146.033 18.2159 145.741 18.3182 145.503 18.5227C145.268 18.7273 145.088 19.0114 144.963 19.375C144.842 19.7386 144.781 20.1629 144.781 20.6477C144.781 21.125 144.842 21.5455 144.963 21.9091C145.088 22.2727 145.268 22.5568 145.503 22.7614C145.741 22.9659 146.033 23.0682 146.378 23.0682ZM151.438 18.3977V16.2727H159.619V18.3977H156.83V25H154.193V18.3977H151.438Z" fill="white"/>
</svg>
