<svg width="164" height="40" viewBox="0 0 164 40" fill="none" xmlns="http://www.w3.org/2000/svg">
<rect x="0.289062" width="163.374" height="40" rx="8" fill="#31344A"/>
<path d="M15.1705 14.3636V26H12.3977V16.6136H8.07955V26H5.30682V14.3636H15.1705ZM19.0483 29.2727C18.715 29.2727 18.4006 29.2462 18.1051 29.1932C17.8097 29.1439 17.5559 29.0777 17.3438 28.9943L17.9574 26.9773C18.2301 27.0682 18.4763 27.1212 18.696 27.1364C18.9195 27.1515 19.1108 27.1155 19.2699 27.0284C19.4328 26.9451 19.5578 26.7955 19.6449 26.5795L19.7528 26.3182L16.6506 17.2727H19.5597L21.1676 23.5H21.2585L22.8892 17.2727H25.8153L22.5256 26.8352C22.3665 27.3125 22.1411 27.733 21.8494 28.0966C21.5616 28.464 21.1884 28.7519 20.7301 28.9602C20.2756 29.1686 19.715 29.2727 19.0483 29.2727ZM34.3977 14.0909L35.1477 15.9261C34.9091 16.1117 34.6477 16.2519 34.3636 16.3466C34.0833 16.4413 33.7405 16.5057 33.3352 16.5398C32.9299 16.5739 32.4186 16.5928 31.8011 16.5966C31.1042 16.6004 30.5398 16.697 30.108 16.8864C29.6761 17.072 29.3485 17.3769 29.125 17.8011C28.9053 18.2216 28.7595 18.7822 28.6875 19.483H28.7614C29.0114 18.9564 29.3674 18.5417 29.8295 18.2386C30.2917 17.9356 30.8883 17.7841 31.6193 17.7841C32.3807 17.7841 33.0436 17.9489 33.608 18.2784C34.1723 18.6042 34.608 19.0701 34.9148 19.6761C35.2216 20.2784 35.375 20.9943 35.375 21.8239C35.375 22.7027 35.1989 23.4678 34.8466 24.1193C34.4943 24.7708 33.9905 25.2746 33.3352 25.6307C32.6799 25.9867 31.8958 26.1648 30.983 26.1648C30.0701 26.1648 29.2841 25.9792 28.625 25.608C27.9697 25.2367 27.464 24.6913 27.108 23.9716C26.7557 23.2481 26.5795 22.3598 26.5795 21.3068V20.6705C26.5795 18.5114 27.0152 16.9223 27.8864 15.9034C28.7576 14.8845 30.0303 14.3712 31.7045 14.3636C32.125 14.3598 32.5057 14.3598 32.8466 14.3636C33.1913 14.3636 33.4924 14.3466 33.75 14.3125C34.0076 14.2746 34.2235 14.2008 34.3977 14.0909ZM31 24.0682C31.3182 24.0682 31.5928 23.983 31.8239 23.8125C32.0549 23.642 32.233 23.3977 32.358 23.0795C32.483 22.7614 32.5455 22.3788 32.5455 21.9318C32.5455 21.4848 32.4811 21.1042 32.3523 20.7898C32.2273 20.4754 32.0492 20.2367 31.8182 20.0739C31.5871 19.9072 31.3125 19.8239 30.9943 19.8239C30.7519 19.8239 30.5322 19.8712 30.3352 19.9659C30.1383 20.0568 29.9716 20.1932 29.8352 20.375C29.6989 20.553 29.5947 20.7727 29.5227 21.0341C29.4508 21.2955 29.4148 21.5947 29.4148 21.9318C29.4148 22.5985 29.5549 23.1212 29.8352 23.5C30.1155 23.8788 30.5038 24.0682 31 24.0682ZM36.4077 26L36.3906 23.858H36.669C36.8584 23.858 37.0232 23.8087 37.1634 23.7102C37.3035 23.6117 37.4209 23.4545 37.5156 23.2386C37.6103 23.0189 37.6861 22.7367 37.7429 22.392C37.7997 22.0473 37.8357 21.6288 37.8509 21.1364L37.9929 17.2727H44.902V26H42.2713V19.3977H40.4645L40.3281 21.9091C40.294 22.6477 40.1974 23.2784 40.0384 23.8011C39.883 24.3201 39.6709 24.7405 39.402 25.0625C39.1368 25.3845 38.8224 25.6212 38.4588 25.7727C38.0952 25.9242 37.6842 26 37.2259 26H36.4077ZM49.2301 22.4034L52.0199 17.2727H54.6903V26H52.0597V20.8523L49.2756 26H46.5994V17.2727H49.2301V22.4034ZM56.4588 26V17.2727H59.2372V20.5227H59.8509L61.9702 17.2727H65.1861L62.2486 21.642L65.2145 26H61.9588L60.044 23.1023H59.2372V26H56.4588ZM68.544 26.1477C67.9872 26.1477 67.4929 26.0549 67.0611 25.8693C66.633 25.6799 66.294 25.3958 66.044 25.017C65.7978 24.6345 65.6747 24.1553 65.6747 23.5795C65.6747 23.0947 65.7599 22.6856 65.9304 22.3523C66.1009 22.0189 66.3357 21.7481 66.6349 21.5398C66.9342 21.3314 67.2789 21.1742 67.669 21.0682C68.0592 20.9583 68.4759 20.8845 68.919 20.8466C69.4152 20.8011 69.8149 20.7538 70.1179 20.7045C70.4209 20.6515 70.6406 20.5777 70.777 20.483C70.9171 20.3845 70.9872 20.2462 70.9872 20.0682V20.0398C70.9872 19.7481 70.8868 19.5227 70.6861 19.3636C70.4853 19.2045 70.2145 19.125 69.8736 19.125C69.5062 19.125 69.2107 19.2045 68.9872 19.3636C68.7637 19.5227 68.6217 19.7424 68.5611 20.0227L65.9986 19.9318C66.0743 19.4015 66.2694 18.928 66.5838 18.5114C66.902 18.0909 67.3376 17.7614 67.8906 17.5227C68.4474 17.2803 69.116 17.1591 69.8963 17.1591C70.4531 17.1591 70.9664 17.2254 71.4361 17.358C71.9058 17.4867 72.3149 17.6761 72.6634 17.9261C73.0118 18.1723 73.2808 18.4754 73.4702 18.8352C73.6634 19.1951 73.7599 19.6061 73.7599 20.0682V26H71.1463V24.7841H71.0781C70.9228 25.0795 70.724 25.3295 70.4815 25.5341C70.2429 25.7386 69.9607 25.892 69.6349 25.9943C69.313 26.0966 68.9493 26.1477 68.544 26.1477ZM69.402 24.3295C69.7012 24.3295 69.9702 24.2689 70.2088 24.1477C70.4512 24.0265 70.6444 23.8598 70.7884 23.6477C70.9323 23.4318 71.0043 23.1818 71.0043 22.8977V22.0682C70.9247 22.1098 70.8281 22.1477 70.7145 22.1818C70.6046 22.2159 70.4834 22.2481 70.3509 22.2784C70.2183 22.3087 70.0819 22.3352 69.9418 22.358C69.8016 22.3807 69.6671 22.4015 69.5384 22.4205C69.277 22.4621 69.0535 22.5265 68.8679 22.6136C68.6861 22.7008 68.5459 22.8144 68.4474 22.9545C68.3527 23.0909 68.3054 23.2538 68.3054 23.4432C68.3054 23.7311 68.4077 23.9508 68.6122 24.1023C68.8205 24.2538 69.0838 24.3295 69.402 24.3295ZM83.3395 17.2727V24.1875H84.7884V28.8011H82.1009V26H75.4588V17.2727H78.0895V23.875H80.7486V17.2727H83.3395ZM88.7145 22.4034L91.5043 17.2727H94.1747V26H91.544V20.8523L88.7599 26H86.0838V17.2727H88.7145V22.4034ZM101.011 26V19.392H99.6023C99.1818 19.392 98.8674 19.4886 98.6591 19.6818C98.4508 19.875 98.3504 20.0871 98.358 20.3182C98.3504 20.5568 98.4527 20.767 98.6648 20.9489C98.8769 21.1307 99.197 21.2216 99.625 21.2216H101.972V22.983H99.625C98.8258 22.983 98.1326 22.8674 97.5455 22.6364C96.9621 22.4015 96.5114 22.0777 96.1932 21.6648C95.8788 21.2481 95.7235 20.7689 95.7273 20.2273C95.7235 19.6477 95.8788 19.1364 96.1932 18.6932C96.5076 18.2462 96.9545 17.8977 97.5341 17.6477C98.1174 17.3977 98.8068 17.2727 99.6023 17.2727H103.597V26H101.011ZM95.5568 26L97.9602 21.3864H100.562L98.1591 26H95.5568ZM108.724 29.2727V17.2727H111.474V18.767H111.56C111.673 18.5019 111.834 18.2462 112.043 18C112.255 17.7538 112.524 17.553 112.849 17.3977C113.179 17.2386 113.573 17.1591 114.031 17.1591C114.637 17.1591 115.204 17.3182 115.73 17.6364C116.26 17.9545 116.688 18.4451 117.014 19.108C117.34 19.7708 117.503 20.6155 117.503 21.642C117.503 22.6307 117.346 23.4583 117.031 24.125C116.721 24.7917 116.3 25.2917 115.77 25.625C115.243 25.9583 114.658 26.125 114.014 26.125C113.575 26.125 113.194 26.053 112.872 25.9091C112.55 25.7652 112.279 25.5758 112.06 25.3409C111.844 25.1061 111.677 24.8542 111.56 24.5852H111.503V29.2727H108.724ZM111.446 21.6364C111.446 22.1061 111.509 22.5152 111.634 22.8636C111.762 23.2121 111.946 23.483 112.185 23.6761C112.427 23.8655 112.717 23.9602 113.054 23.9602C113.395 23.9602 113.685 23.8655 113.923 23.6761C114.162 23.483 114.342 23.2121 114.463 22.8636C114.588 22.5152 114.651 22.1061 114.651 21.6364C114.651 21.1667 114.588 20.7595 114.463 20.4148C114.342 20.0701 114.162 19.803 113.923 19.6136C113.688 19.4242 113.399 19.3295 113.054 19.3295C112.713 19.3295 112.423 19.4223 112.185 19.608C111.946 19.7936 111.762 20.0587 111.634 20.4034C111.509 20.7481 111.446 21.1591 111.446 21.6364ZM121.419 26.1477C120.862 26.1477 120.368 26.0549 119.936 25.8693C119.508 25.6799 119.169 25.3958 118.919 25.017C118.673 24.6345 118.55 24.1553 118.55 23.5795C118.55 23.0947 118.635 22.6856 118.805 22.3523C118.976 22.0189 119.211 21.7481 119.51 21.5398C119.809 21.3314 120.154 21.1742 120.544 21.0682C120.934 20.9583 121.351 20.8845 121.794 20.8466C122.29 20.8011 122.69 20.7538 122.993 20.7045C123.296 20.6515 123.516 20.5777 123.652 20.483C123.792 20.3845 123.862 20.2462 123.862 20.0682V20.0398C123.862 19.7481 123.762 19.5227 123.561 19.3636C123.36 19.2045 123.089 19.125 122.749 19.125C122.381 19.125 122.086 19.2045 121.862 19.3636C121.639 19.5227 121.497 19.7424 121.436 20.0227L118.874 19.9318C118.949 19.4015 119.144 18.928 119.459 18.5114C119.777 18.0909 120.213 17.7614 120.766 17.5227C121.322 17.2803 121.991 17.1591 122.771 17.1591C123.328 17.1591 123.841 17.2254 124.311 17.358C124.781 17.4867 125.19 17.6761 125.538 17.9261C125.887 18.1723 126.156 18.4754 126.345 18.8352C126.538 19.1951 126.635 19.6061 126.635 20.0682V26H124.021V24.7841H123.953C123.798 25.0795 123.599 25.3295 123.357 25.5341C123.118 25.7386 122.836 25.892 122.51 25.9943C122.188 26.0966 121.824 26.1477 121.419 26.1477ZM122.277 24.3295C122.576 24.3295 122.845 24.2689 123.084 24.1477C123.326 24.0265 123.519 23.8598 123.663 23.6477C123.807 23.4318 123.879 23.1818 123.879 22.8977V22.0682C123.8 22.1098 123.703 22.1477 123.589 22.1818C123.48 22.2159 123.358 22.2481 123.226 22.2784C123.093 22.3087 122.957 22.3352 122.817 22.358C122.677 22.3807 122.542 22.4015 122.413 22.4205C122.152 22.4621 121.929 22.5265 121.743 22.6136C121.561 22.7008 121.421 22.8144 121.322 22.9545C121.228 23.0909 121.18 23.2538 121.18 23.4432C121.18 23.7311 121.283 23.9508 121.487 24.1023C121.696 24.2538 121.959 24.3295 122.277 24.3295ZM135.851 14.0909L136.601 15.9261C136.362 16.1117 136.101 16.2519 135.817 16.3466C135.536 16.4413 135.194 16.5057 134.788 16.5398C134.383 16.5739 133.872 16.5928 133.254 16.5966C132.557 16.6004 131.993 16.697 131.561 16.8864C131.129 17.072 130.802 17.3769 130.578 17.8011C130.358 18.2216 130.213 18.7822 130.141 19.483H130.214C130.464 18.9564 130.821 18.5417 131.283 18.2386C131.745 17.9356 132.341 17.7841 133.072 17.7841C133.834 17.7841 134.497 17.9489 135.061 18.2784C135.625 18.6042 136.061 19.0701 136.368 19.6761C136.675 20.2784 136.828 20.9943 136.828 21.8239C136.828 22.7027 136.652 23.4678 136.3 24.1193C135.947 24.7708 135.444 25.2746 134.788 25.6307C134.133 25.9867 133.349 26.1648 132.436 26.1648C131.523 26.1648 130.737 25.9792 130.078 25.608C129.423 25.2367 128.917 24.6913 128.561 23.9716C128.209 23.2481 128.033 22.3598 128.033 21.3068V20.6705C128.033 18.5114 128.468 16.9223 129.339 15.9034C130.211 14.8845 131.483 14.3712 133.158 14.3636C133.578 14.3598 133.959 14.3598 134.3 14.3636C134.644 14.3636 134.946 14.3466 135.203 14.3125C135.461 14.2746 135.677 14.2008 135.851 14.0909ZM132.453 24.0682C132.771 24.0682 133.046 23.983 133.277 23.8125C133.508 23.642 133.686 23.3977 133.811 23.0795C133.936 22.7614 133.999 22.3788 133.999 21.9318C133.999 21.4848 133.934 21.1042 133.805 20.7898C133.68 20.4754 133.502 20.2367 133.271 20.0739C133.04 19.9072 132.766 19.8239 132.447 19.8239C132.205 19.8239 131.985 19.8712 131.788 19.9659C131.591 20.0568 131.425 20.1932 131.288 20.375C131.152 20.553 131.048 20.7727 130.976 21.0341C130.904 21.2955 130.868 21.5947 130.868 21.9318C130.868 22.5985 131.008 23.1212 131.288 23.5C131.569 23.8788 131.957 24.0682 132.453 24.0682ZM142.361 26.1648C141.444 26.1648 140.656 25.9773 139.997 25.6023C139.342 25.2235 138.836 24.697 138.48 24.0227C138.128 23.3447 137.952 22.5587 137.952 21.6648C137.952 20.767 138.128 19.9811 138.48 19.3068C138.836 18.6288 139.342 18.1023 139.997 17.7273C140.656 17.3485 141.444 17.1591 142.361 17.1591C143.277 17.1591 144.063 17.3485 144.719 17.7273C145.378 18.1023 145.884 18.6288 146.236 19.3068C146.592 19.9811 146.77 20.767 146.77 21.6648C146.77 22.5587 146.592 23.3447 146.236 24.0227C145.884 24.697 145.378 25.2235 144.719 25.6023C144.063 25.9773 143.277 26.1648 142.361 26.1648ZM142.378 24.0682C142.711 24.0682 142.993 23.9659 143.224 23.7614C143.455 23.5568 143.632 23.2727 143.753 22.9091C143.878 22.5455 143.94 22.125 143.94 21.6477C143.94 21.1629 143.878 20.7386 143.753 20.375C143.632 20.0114 143.455 19.7273 143.224 19.5227C142.993 19.3182 142.711 19.2159 142.378 19.2159C142.033 19.2159 141.741 19.3182 141.503 19.5227C141.268 19.7273 141.088 20.0114 140.963 20.375C140.842 20.7386 140.781 21.1629 140.781 21.6477C140.781 22.125 140.842 22.5455 140.963 22.9091C141.088 23.2727 141.268 23.5568 141.503 23.7614C141.741 23.9659 142.033 24.0682 142.378 24.0682ZM147.438 19.3977V17.2727H155.619V19.3977H152.83V26H150.193V19.3977H147.438Z" fill="white"/>
</svg>
