<svg width="138" height="40" viewBox="0 0 138 40" fill="none" xmlns="http://www.w3.org/2000/svg">
<path d="M0.707031 8C0.707031 3.58172 4.28875 0 8.70703 0H129.707C134.125 0 137.707 3.58172 137.707 8V32C137.707 36.4183 134.125 40 129.707 40H8.70703C4.28875 40 0.707031 36.4183 0.707031 32V8Z" fill="#31344A"/>
<path d="M17.0877 26V14.3636H21.8945C22.7657 14.3636 23.5176 14.5341 24.1502 14.875C24.7866 15.2121 25.2771 15.6837 25.6218 16.2898C25.9665 16.892 26.1388 17.5928 26.1388 18.392C26.1388 19.1951 25.9627 19.8977 25.6104 20.5C25.262 21.0985 24.7638 21.5625 24.1161 21.892C23.4684 22.2216 22.6995 22.3864 21.8093 22.3864H18.8434V20.1705H21.2866C21.7108 20.1705 22.065 20.0966 22.3491 19.9489C22.637 19.8011 22.8548 19.5947 23.0025 19.3295C23.1502 19.0606 23.2241 18.7481 23.2241 18.392C23.2241 18.0322 23.1502 17.7216 23.0025 17.4602C22.8548 17.1951 22.637 16.9905 22.3491 16.8466C22.0612 16.7027 21.707 16.6307 21.2866 16.6307H19.9002V26H17.0877ZM31.4329 26.1648C30.52 26.1648 29.7321 25.9848 29.0692 25.625C28.4102 25.2614 27.9026 24.7443 27.5465 24.0739C27.1942 23.3996 27.0181 22.5985 27.0181 21.6705C27.0181 20.7689 27.1961 19.9811 27.5522 19.3068C27.9083 18.6288 28.4102 18.1023 29.0579 17.7273C29.7056 17.3485 30.4689 17.1591 31.3477 17.1591C31.9689 17.1591 32.5371 17.2557 33.0522 17.4489C33.5674 17.642 34.0124 17.928 34.3874 18.3068C34.7624 18.6856 35.0541 19.1534 35.2624 19.7102C35.4708 20.2633 35.5749 20.8977 35.5749 21.6136V22.3068H27.9897V20.6932H32.9897C32.9859 20.3977 32.9158 20.1345 32.7795 19.9034C32.6431 19.6723 32.4556 19.4924 32.217 19.3636C31.9821 19.2311 31.7113 19.1648 31.4045 19.1648C31.0939 19.1648 30.8155 19.2348 30.5692 19.375C30.323 19.5114 30.128 19.6989 29.984 19.9375C29.8401 20.1723 29.7643 20.4394 29.7567 20.7386V22.3807C29.7567 22.7367 29.8268 23.0492 29.967 23.3182C30.1071 23.5833 30.306 23.7898 30.5636 23.9375C30.8211 24.0852 31.128 24.1591 31.484 24.1591C31.7302 24.1591 31.9537 24.125 32.1545 24.0568C32.3552 23.9886 32.5276 23.8883 32.6715 23.7557C32.8155 23.6231 32.9234 23.4602 32.9954 23.267L35.5465 23.3409C35.4405 23.9129 35.2075 24.411 34.8477 24.8352C34.4916 25.2557 34.0238 25.5833 33.4442 25.8182C32.8647 26.0492 32.1942 26.1648 31.4329 26.1648ZM43.1644 17.2727V19.3977H39.6815V26H36.994V17.2727H43.1644ZM47.109 22.4034L49.8988 17.2727H52.5692V26H49.9386V20.8523L47.1545 26H44.4783V17.2727H47.109V22.4034ZM58.4116 26.1648C57.4911 26.1648 56.7013 25.9754 56.0423 25.5966C55.387 25.2178 54.8832 24.6913 54.5309 24.017C54.1786 23.339 54.0025 22.5549 54.0025 21.6648C54.0025 20.7708 54.1786 19.9867 54.5309 19.3125C54.887 18.6345 55.3926 18.1061 56.0479 17.7273C56.707 17.3485 57.493 17.1591 58.4059 17.1591C59.2127 17.1591 59.9154 17.3049 60.5138 17.5966C61.1161 17.8883 61.5858 18.3011 61.9229 18.8352C62.2638 19.3655 62.4438 19.9886 62.4627 20.7045H59.8661C59.8131 20.2576 59.6616 19.9072 59.4116 19.6534C59.1654 19.3996 58.8434 19.2727 58.4457 19.2727C58.1237 19.2727 57.8415 19.3636 57.5991 19.5455C57.3567 19.7235 57.1673 19.9886 57.0309 20.3409C56.8983 20.6894 56.832 21.1212 56.832 21.6364C56.832 22.1515 56.8983 22.5871 57.0309 22.9432C57.1673 23.2955 57.3567 23.5625 57.5991 23.7443C57.8415 23.9223 58.1237 24.0114 58.4457 24.0114C58.7032 24.0114 58.9305 23.9564 59.1275 23.8466C59.3282 23.7367 59.493 23.5758 59.6218 23.3636C59.7506 23.1477 59.832 22.8864 59.8661 22.5795H62.4627C62.4362 23.2992 62.2563 23.928 61.9229 24.4659C61.5934 25.0038 61.1294 25.4223 60.5309 25.7216C59.9362 26.017 59.2298 26.1648 58.4116 26.1648ZM63.332 19.3977V17.2727H71.5138V19.3977H68.7241V26H66.0877V19.3977H63.332ZM72.8377 29.2727V17.2727H75.5877V18.767H75.6729C75.7866 18.5019 75.9476 18.2462 76.1559 18C76.368 17.7538 76.637 17.553 76.9627 17.3977C77.2923 17.2386 77.6862 17.1591 78.1445 17.1591C78.7506 17.1591 79.3169 17.3182 79.8434 17.6364C80.3737 17.9545 80.8017 18.4451 81.1275 19.108C81.4532 19.7708 81.6161 20.6155 81.6161 21.642C81.6161 22.6307 81.4589 23.4583 81.1445 24.125C80.8339 24.7917 80.4135 25.2917 79.8832 25.625C79.3567 25.9583 78.7714 26.125 78.1275 26.125C77.6881 26.125 77.3074 26.053 76.9854 25.9091C76.6635 25.7652 76.3926 25.5758 76.1729 25.3409C75.957 25.1061 75.7904 24.8542 75.6729 24.5852H75.6161V29.2727H72.8377ZM75.5593 21.6364C75.5593 22.1061 75.6218 22.5152 75.7468 22.8636C75.8756 23.2121 76.0593 23.483 76.2979 23.6761C76.5404 23.8655 76.8301 23.9602 77.1673 23.9602C77.5082 23.9602 77.7979 23.8655 78.0366 23.6761C78.2752 23.483 78.4551 23.2121 78.5763 22.8636C78.7013 22.5152 78.7638 22.1061 78.7638 21.6364C78.7638 21.1667 78.7013 20.7595 78.5763 20.4148C78.4551 20.0701 78.2752 19.803 78.0366 19.6136C77.8017 19.4242 77.512 19.3295 77.1673 19.3295C76.8263 19.3295 76.5366 19.4223 76.2979 19.608C76.0593 19.7936 75.8756 20.0587 75.7468 20.4034C75.6218 20.7481 75.5593 21.1591 75.5593 21.6364ZM85.5323 26.1477C84.9755 26.1477 84.4812 26.0549 84.0494 25.8693C83.6213 25.6799 83.2823 25.3958 83.0323 25.017C82.7861 24.6345 82.663 24.1553 82.663 23.5795C82.663 23.0947 82.7482 22.6856 82.9187 22.3523C83.0891 22.0189 83.324 21.7481 83.6232 21.5398C83.9225 21.3314 84.2672 21.1742 84.6573 21.0682C85.0475 20.9583 85.4641 20.8845 85.9073 20.8466C86.4035 20.8011 86.8031 20.7538 87.1062 20.7045C87.4092 20.6515 87.6289 20.5777 87.7653 20.483C87.9054 20.3845 87.9755 20.2462 87.9755 20.0682V20.0398C87.9755 19.7481 87.8751 19.5227 87.6744 19.3636C87.4736 19.2045 87.2028 19.125 86.8619 19.125C86.4944 19.125 86.199 19.2045 85.9755 19.3636C85.752 19.5227 85.61 19.7424 85.5494 20.0227L82.9869 19.9318C83.0626 19.4015 83.2577 18.928 83.5721 18.5114C83.8903 18.0909 84.3259 17.7614 84.8789 17.5227C85.4357 17.2803 86.1043 17.1591 86.8846 17.1591C87.4414 17.1591 87.9547 17.2254 88.4244 17.358C88.8941 17.4867 89.3031 17.6761 89.6516 17.9261C90.0001 18.1723 90.2691 18.4754 90.4585 18.8352C90.6516 19.1951 90.7482 19.6061 90.7482 20.0682V26H88.1346V24.7841H88.0664C87.9111 25.0795 87.7122 25.3295 87.4698 25.5341C87.2312 25.7386 86.949 25.892 86.6232 25.9943C86.3013 26.0966 85.9376 26.1477 85.5323 26.1477ZM86.3903 24.3295C86.6895 24.3295 86.9585 24.2689 87.1971 24.1477C87.4395 24.0265 87.6327 23.8598 87.7766 23.6477C87.9206 23.4318 87.9925 23.1818 87.9925 22.8977V22.0682C87.913 22.1098 87.8164 22.1477 87.7028 22.1818C87.5929 22.2159 87.4717 22.2481 87.3391 22.2784C87.2066 22.3087 87.0702 22.3352 86.93 22.358C86.7899 22.3807 86.6554 22.4015 86.5266 22.4205C86.2653 22.4621 86.0418 22.5265 85.8562 22.6136C85.6744 22.7008 85.5342 22.8144 85.4357 22.9545C85.341 23.0909 85.2937 23.2538 85.2937 23.4432C85.2937 23.7311 85.396 23.9508 85.6005 24.1023C85.8088 24.2538 86.0721 24.3295 86.3903 24.3295ZM100.328 17.2727V24.1875H101.777V28.8011H99.0891V26H92.4471V17.2727H95.0778V23.875H97.7369V17.2727H100.328ZM105.703 22.4034L108.493 17.2727H111.163V26H108.532V20.8523L105.748 26H103.072V17.2727H105.703V22.4034ZM118 26V19.392H116.591C116.17 19.392 115.856 19.4886 115.647 19.6818C115.439 19.875 115.339 20.0871 115.346 20.3182C115.339 20.5568 115.441 20.767 115.653 20.9489C115.865 21.1307 116.185 21.2216 116.613 21.2216H118.96V22.983H116.613C115.814 22.983 115.121 22.8674 114.534 22.6364C113.95 22.4015 113.5 22.0777 113.181 21.6648C112.867 21.2481 112.712 20.7689 112.716 20.2273C112.712 19.6477 112.867 19.1364 113.181 18.6932C113.496 18.2462 113.943 17.8977 114.522 17.6477C115.106 17.3977 115.795 17.2727 116.591 17.2727H120.585V26H118ZM112.545 26L114.949 21.3864H117.551L115.147 26H112.545Z" fill="#F5F5F5"/>
</svg>
