<svg width="65" height="40" viewBox="0 0 65 40" fill="none" xmlns="http://www.w3.org/2000/svg">
<rect width="64.9167" height="40" rx="8" fill="#31344A"/>
<path d="M17.1705 15.3636V27H14.3977V17.6136H10.0795V27H7.30682V15.3636H17.1705ZM23.4233 27.1648C22.5066 27.1648 21.7188 26.9773 21.0597 26.6023C20.4044 26.2235 19.8987 25.697 19.5426 25.0227C19.1903 24.3447 19.0142 23.5587 19.0142 22.6648C19.0142 21.767 19.1903 20.9811 19.5426 20.3068C19.8987 19.6288 20.4044 19.1023 21.0597 18.7273C21.7188 18.3485 22.5066 18.1591 23.4233 18.1591C24.34 18.1591 25.1259 18.3485 25.7812 18.7273C26.4403 19.1023 26.946 19.6288 27.2983 20.3068C27.6544 20.9811 27.8324 21.767 27.8324 22.6648C27.8324 23.5587 27.6544 24.3447 27.2983 25.0227C26.946 25.697 26.4403 26.2235 25.7812 26.6023C25.1259 26.9773 24.34 27.1648 23.4233 27.1648ZM23.4403 25.0682C23.7737 25.0682 24.0559 24.9659 24.2869 24.7614C24.518 24.5568 24.6941 24.2727 24.8153 23.9091C24.9403 23.5455 25.0028 23.125 25.0028 22.6477C25.0028 22.1629 24.9403 21.7386 24.8153 21.375C24.6941 21.0114 24.518 20.7273 24.2869 20.5227C24.0559 20.3182 23.7737 20.2159 23.4403 20.2159C23.0956 20.2159 22.804 20.3182 22.5653 20.5227C22.3305 20.7273 22.1506 21.0114 22.0256 21.375C21.9044 21.7386 21.8438 22.1629 21.8438 22.6477C21.8438 23.125 21.9044 23.5455 22.0256 23.9091C22.1506 24.2727 22.3305 24.5568 22.5653 24.7614C22.804 24.9659 23.0956 25.0682 23.4403 25.0682ZM31.8864 23.4034L34.6761 18.2727H37.3466V27H34.7159V21.8523L31.9318 27H29.2557V18.2727H31.8864V23.4034ZM43.1889 27.1648C42.2685 27.1648 41.4787 26.9754 40.8196 26.5966C40.1643 26.2178 39.6605 25.6913 39.3082 25.017C38.956 24.339 38.7798 23.5549 38.7798 22.6648C38.7798 21.7708 38.956 20.9867 39.3082 20.3125C39.6643 19.6345 40.17 19.1061 40.8253 18.7273C41.4844 18.3485 42.2704 18.1591 43.1832 18.1591C43.9901 18.1591 44.6927 18.3049 45.2912 18.5966C45.8935 18.8883 46.3632 19.3011 46.7003 19.8352C47.0412 20.3655 47.2211 20.9886 47.2401 21.7045H44.6435C44.5904 21.2576 44.4389 20.9072 44.1889 20.6534C43.9427 20.3996 43.6207 20.2727 43.223 20.2727C42.901 20.2727 42.6188 20.3636 42.3764 20.5455C42.134 20.7235 41.9446 20.9886 41.8082 21.3409C41.6757 21.6894 41.6094 22.1212 41.6094 22.6364C41.6094 23.1515 41.6757 23.5871 41.8082 23.9432C41.9446 24.2955 42.134 24.5625 42.3764 24.7443C42.6188 24.9223 42.901 25.0114 43.223 25.0114C43.4806 25.0114 43.7079 24.9564 43.9048 24.8466C44.1056 24.7367 44.2704 24.5758 44.3991 24.3636C44.5279 24.1477 44.6094 23.8864 44.6435 23.5795H47.2401C47.2135 24.2992 47.0336 24.928 46.7003 25.4659C46.3707 26.0038 45.9067 26.4223 45.3082 26.7216C44.7135 27.017 44.0071 27.1648 43.1889 27.1648ZM48.6619 27V18.2727H51.4403V21.5227H52.054L54.1733 18.2727H57.3892L54.4517 22.642L57.4176 27H54.1619L52.2472 24.1023H51.4403V27H48.6619Z" fill="white"/>
</svg>
