<svg width="1293" height="575" viewBox="0 0 1293 575" fill="none" xmlns="http://www.w3.org/2000/svg">
<rect y="107" width="1219" height="468" rx="59" fill="#31344A"/>
<rect x="35" y="251" width="1149" height="78" rx="8" fill="#F5F5F5"/>
<rect x="35" y="359" width="1149" height="78" rx="8" fill="#F5F5F5"/>
<rect x="35" y="467" width="1149" height="78" rx="8" fill="#F5F5F5"/>
<rect x="35" y="143" width="1149" height="78" rx="8" fill="#F5F5F5"/>
<path d="M116.932 16.6364L127.491 34.483H127.901L138.511 16.6364H151.014L135.034 42.8182L151.372 69H138.639L127.901 51.1278H127.491L116.753 69H104.071L120.46 42.8182L104.378 16.6364H116.932ZM171.361 69.767C167.389 69.767 163.954 68.9233 161.057 67.2358C158.176 65.5312 155.952 63.1619 154.383 60.1278C152.815 57.0767 152.031 53.5398 152.031 49.517C152.031 45.4602 152.815 41.9148 154.383 38.8807C155.952 35.8295 158.176 33.4602 161.057 31.7727C163.954 30.0682 167.389 29.2159 171.361 29.2159C175.332 29.2159 178.758 30.0682 181.639 31.7727C184.537 33.4602 186.77 35.8295 188.338 38.8807C189.906 41.9148 190.69 45.4602 190.69 49.517C190.69 53.5398 189.906 57.0767 188.338 60.1278C186.77 63.1619 184.537 65.5312 181.639 67.2358C178.758 68.9233 175.332 69.767 171.361 69.767ZM171.412 61.3295C173.219 61.3295 174.727 60.8182 175.937 59.7955C177.148 58.7557 178.059 57.3409 178.673 55.5511C179.304 53.7614 179.619 51.7244 179.619 49.4403C179.619 47.1562 179.304 45.1193 178.673 43.3295C178.059 41.5398 177.148 40.125 175.937 39.0852C174.727 38.0455 173.219 37.5256 171.412 37.5256C169.588 37.5256 168.054 38.0455 166.809 39.0852C165.582 40.125 164.653 41.5398 164.023 43.3295C163.409 45.1193 163.102 47.1562 163.102 49.4403C163.102 51.7244 163.409 53.7614 164.023 55.5511C164.653 57.3409 165.582 58.7557 166.809 59.7955C168.054 60.8182 169.588 61.3295 171.412 61.3295ZM191.809 38.2926V29.7273H227.4V38.2926H214.744V69H204.363V38.2926H191.809ZM242.249 54.6307L256.389 29.7273H267.127V69H256.747V44.0199L242.658 69H231.843V29.7273H242.249V54.6307ZM269.755 38.2926V29.7273H305.346V38.2926H292.69V69H282.309V38.2926H269.755ZM326.28 69.767C322.24 69.767 318.763 68.9489 315.848 67.3125C312.951 65.6591 310.718 63.3239 309.15 60.3068C307.581 57.2727 306.797 53.6847 306.797 49.5426C306.797 45.5028 307.581 41.9574 309.15 38.9062C310.718 35.8551 312.925 33.4773 315.772 31.7727C318.635 30.0682 321.993 29.2159 325.846 29.2159C328.437 29.2159 330.848 29.6335 333.081 30.4688C335.331 31.2869 337.292 32.5227 338.962 34.1761C340.65 35.8295 341.962 37.9091 342.9 40.4148C343.837 42.9034 344.306 45.8182 344.306 49.1591V52.1506H311.144V45.4006H334.053C334.053 43.8324 333.712 42.4432 333.03 41.233C332.348 40.0227 331.402 39.0767 330.192 38.3949C328.999 37.696 327.61 37.3466 326.025 37.3466C324.371 37.3466 322.905 37.7301 321.627 38.4972C320.365 39.2472 319.377 40.2614 318.661 41.5398C317.945 42.8011 317.579 44.2074 317.562 45.7585V52.1761C317.562 54.1193 317.919 55.7983 318.635 57.2131C319.368 58.6278 320.4 59.7188 321.729 60.4858C323.059 61.2528 324.635 61.6364 326.459 61.6364C327.669 61.6364 328.777 61.4659 329.783 61.125C330.789 60.7841 331.65 60.2727 332.365 59.5909C333.081 58.9091 333.627 58.0739 334.002 57.0852L344.076 57.75C343.564 60.1705 342.516 62.2841 340.931 64.0909C339.363 65.8807 337.334 67.2784 334.846 68.2841C332.374 69.2727 329.519 69.767 326.28 69.767ZM381.502 69.767C377.531 69.767 374.096 68.9233 371.198 67.2358C368.318 65.5312 366.093 63.1619 364.525 60.1278C362.957 57.0767 362.173 53.5398 362.173 49.517C362.173 45.4602 362.957 41.9148 364.525 38.8807C366.093 35.8295 368.318 33.4602 371.198 31.7727C374.096 30.0682 377.531 29.2159 381.502 29.2159C385.474 29.2159 388.9 30.0682 391.781 31.7727C394.678 33.4602 396.911 35.8295 398.479 38.8807C400.048 41.9148 400.832 45.4602 400.832 49.517C400.832 53.5398 400.048 57.0767 398.479 60.1278C396.911 63.1619 394.678 65.5312 391.781 67.2358C388.9 68.9233 385.474 69.767 381.502 69.767ZM381.553 61.3295C383.36 61.3295 384.869 60.8182 386.079 59.7955C387.289 58.7557 388.201 57.3409 388.815 55.5511C389.445 53.7614 389.761 51.7244 389.761 49.4403C389.761 47.1562 389.445 45.1193 388.815 43.3295C388.201 41.5398 387.289 40.125 386.079 39.0852C384.869 38.0455 383.36 37.5256 381.553 37.5256C379.729 37.5256 378.195 38.0455 376.951 39.0852C375.724 40.125 374.795 41.5398 374.164 43.3295C373.55 45.1193 373.244 47.1562 373.244 49.4403C373.244 51.7244 373.55 53.7614 374.164 55.5511C374.795 57.3409 375.724 58.7557 376.951 59.7955C378.195 60.8182 379.729 61.3295 381.553 61.3295ZM405.754 69V29.7273H440.092V69H429.686V38.2926H416.033V69H405.754ZM451.944 83.7273C450.563 83.7273 449.267 83.6165 448.057 83.3949C446.864 83.1903 445.875 82.9261 445.091 82.6023L447.546 74.4716C448.824 74.8636 449.975 75.0767 450.997 75.1108C452.037 75.1449 452.932 74.9063 453.682 74.3949C454.449 73.8835 455.071 73.0142 455.549 71.7869L456.188 70.125L442.1 29.7273H453.554L461.685 58.5682H462.094L470.301 29.7273H481.833L466.569 73.2443C465.836 75.358 464.838 77.1989 463.577 78.767C462.333 80.3523 460.756 81.571 458.847 82.4233C456.938 83.2926 454.637 83.7273 451.944 83.7273ZM517.897 15.3068L521.221 22.4148C520.113 23.3352 518.886 24.017 517.539 24.4602C516.193 24.8864 514.582 25.1676 512.707 25.304C510.849 25.4403 508.582 25.5341 505.906 25.5852C502.872 25.6193 500.4 26.1051 498.491 27.0426C496.582 27.9801 495.133 29.4545 494.144 31.4659C493.156 33.4602 492.508 36.0682 492.201 39.2898H492.585C493.761 36.8864 495.414 35.0284 497.545 33.7159C499.693 32.4034 502.343 31.7472 505.497 31.7472C508.837 31.7472 511.761 32.4801 514.266 33.946C516.789 35.4119 518.749 37.517 520.147 40.2614C521.545 43.0057 522.244 46.2955 522.244 50.1307C522.244 54.1193 521.46 57.5881 519.891 60.5369C518.34 63.4687 516.133 65.7443 513.269 67.3636C510.406 68.9659 506.997 69.767 503.042 69.767C499.07 69.767 495.644 68.9318 492.764 67.2614C489.9 65.5909 487.684 63.1278 486.116 59.8722C484.565 56.6165 483.789 52.6108 483.789 47.8551V44.6335C483.789 35.1733 485.63 28.1591 489.312 23.5909C492.994 19.0227 498.406 16.7045 505.548 16.6364C507.491 16.6023 509.247 16.5937 510.815 16.6108C512.383 16.6278 513.755 16.5511 514.931 16.3807C516.124 16.2102 517.113 15.8523 517.897 15.3068ZM503.093 61.3295C504.764 61.3295 506.195 60.8949 507.389 60.0256C508.599 59.1562 509.528 57.9119 510.176 56.2926C510.84 54.6733 511.173 52.7386 511.173 50.4886C511.173 48.2557 510.84 46.3636 510.176 44.8125C509.528 43.2443 508.599 42.0511 507.389 41.233C506.178 40.4148 504.73 40.0057 503.042 40.0057C501.781 40.0057 500.647 40.2358 499.641 40.696C498.636 41.1562 497.775 41.8381 497.059 42.7415C496.36 43.6278 495.815 44.7273 495.423 46.0398C495.048 47.3352 494.86 48.8182 494.86 50.4886C494.86 53.8466 495.585 56.4972 497.034 58.4403C498.499 60.3665 500.519 61.3295 503.093 61.3295ZM525.012 69L524.961 60.358H526.265C527.185 60.358 527.978 60.1364 528.643 59.6932C529.325 59.233 529.887 58.4915 530.33 57.4688C530.773 56.446 531.123 55.0909 531.378 53.4034C531.634 51.6989 531.805 49.6023 531.89 47.1136L532.529 29.7273H562.393V69H552.012V38.2926H542.322L541.708 50.2841C541.555 53.5739 541.154 56.4034 540.506 58.7727C539.876 61.142 538.998 63.0852 537.873 64.6023C536.748 66.1023 535.393 67.2102 533.807 67.9261C532.222 68.642 530.381 69 528.285 69H525.012ZM579.083 54.6307L593.222 29.7273H603.961V69H593.58V44.0199L579.492 69H568.677V29.7273H579.083V54.6307ZM610.532 69V29.7273H621.424V44.9659H624.492L635.18 29.7273H647.964L634.081 49.2102L648.117 69H635.18L625.49 55.0653H621.424V69H610.532ZM666.687 69.767C662.715 69.767 659.281 68.9233 656.383 67.2358C653.502 65.5312 651.278 63.1619 649.71 60.1278C648.141 57.0767 647.357 53.5398 647.357 49.517C647.357 45.4602 648.141 41.9148 649.71 38.8807C651.278 35.8295 653.502 33.4602 656.383 31.7727C659.281 30.0682 662.715 29.2159 666.687 29.2159C670.658 29.2159 674.085 30.0682 676.965 31.7727C679.863 33.4602 682.096 35.8295 683.664 38.8807C685.232 41.9148 686.016 45.4602 686.016 49.517C686.016 53.5398 685.232 57.0767 683.664 60.1278C682.096 63.1619 679.863 65.5312 676.965 67.2358C674.085 68.9233 670.658 69.767 666.687 69.767ZM666.738 61.3295C668.545 61.3295 670.053 60.8182 671.264 59.7955C672.474 58.7557 673.386 57.3409 673.999 55.5511C674.63 53.7614 674.945 51.7244 674.945 49.4403C674.945 47.1562 674.63 45.1193 673.999 43.3295C673.386 41.5398 672.474 40.125 671.264 39.0852C670.053 38.0455 668.545 37.5256 666.738 37.5256C664.914 37.5256 663.38 38.0455 662.136 39.0852C660.908 40.125 659.979 41.5398 659.349 43.3295C658.735 45.1193 658.428 47.1562 658.428 49.4403C658.428 51.7244 658.735 53.7614 659.349 55.5511C659.979 57.3409 660.908 58.7557 662.136 59.7955C663.38 60.8182 664.914 61.3295 666.738 61.3295ZM690.939 69V29.7273H707.686C712.527 29.7273 716.354 30.6477 719.166 32.4886C721.979 34.3295 723.385 36.946 723.385 40.3381C723.385 42.4687 722.592 44.2415 721.007 45.6562C719.422 47.071 717.223 48.0256 714.41 48.5199C716.763 48.6903 718.765 49.2273 720.419 50.1307C722.089 51.017 723.359 52.1676 724.229 53.5824C725.115 54.9972 725.558 56.5653 725.558 58.2869C725.558 60.5199 724.961 62.4375 723.768 64.0398C722.592 65.642 720.862 66.8693 718.578 67.7216C716.311 68.5739 713.541 69 710.268 69H690.939ZM701.089 60.8438H710.268C711.785 60.8438 712.97 60.4858 713.822 59.7699C714.692 59.0369 715.126 58.0398 715.126 56.7784C715.126 55.3807 714.692 54.2812 713.822 53.4801C712.97 52.679 711.785 52.2784 710.268 52.2784H701.089V60.8438ZM701.089 45.8864H707.916C709.007 45.8864 709.936 45.733 710.703 45.4261C711.487 45.1023 712.084 44.642 712.493 44.0455C712.919 43.4489 713.132 42.7415 713.132 41.9233C713.132 40.7131 712.646 39.767 711.675 39.0852C710.703 38.4034 709.373 38.0625 707.686 38.0625H701.089V45.8864ZM741.462 69.7415C738.956 69.7415 736.723 69.3068 734.763 68.4375C732.803 67.5511 731.252 66.2472 730.11 64.5256C728.985 62.7869 728.422 60.6222 728.422 58.0312C728.422 55.8494 728.823 54.017 729.624 52.5341C730.425 51.0511 731.516 49.858 732.897 48.9545C734.277 48.0511 735.846 47.3693 737.601 46.9091C739.374 46.4489 741.232 46.125 743.175 45.9375C745.459 45.6989 747.3 45.4773 748.698 45.2727C750.096 45.0511 751.11 44.7273 751.74 44.3011C752.371 43.875 752.686 43.2443 752.686 42.4091V42.2557C752.686 40.6364 752.175 39.3835 751.152 38.4972C750.147 37.6108 748.715 37.1676 746.857 37.1676C744.897 37.1676 743.337 37.6023 742.178 38.4716C741.019 39.3239 740.252 40.3977 739.877 41.6932L729.803 40.875C730.314 38.4886 731.32 36.4261 732.82 34.6875C734.32 32.9318 736.255 31.5852 738.624 30.6477C741.01 29.6932 743.772 29.2159 746.908 29.2159C749.09 29.2159 751.178 29.4716 753.172 29.983C755.184 30.4943 756.965 31.2869 758.516 32.3608C760.084 33.4347 761.32 34.8153 762.223 36.5028C763.127 38.1733 763.578 40.1761 763.578 42.5114V69H753.249V63.554H752.942C752.311 64.7812 751.468 65.8636 750.411 66.8011C749.354 67.7216 748.084 68.446 746.601 68.9744C745.118 69.4858 743.405 69.7415 741.462 69.7415ZM744.581 62.2244C746.184 62.2244 747.598 61.9091 748.826 61.2784C750.053 60.6307 751.016 59.7614 751.715 58.6705C752.414 57.5795 752.763 56.3437 752.763 54.9631V50.7955C752.422 51.017 751.953 51.2216 751.357 51.4091C750.777 51.5795 750.121 51.7415 749.388 51.8949C748.655 52.0312 747.922 52.1591 747.189 52.2784C746.456 52.3807 745.792 52.4744 745.195 52.5597C743.917 52.7472 742.8 53.0455 741.846 53.4545C740.891 53.8636 740.15 54.4176 739.621 55.1165C739.093 55.7983 738.828 56.6506 738.828 57.6733C738.828 59.1562 739.365 60.2898 740.439 61.0739C741.53 61.8409 742.911 62.2244 744.581 62.2244ZM765.925 38.2926V29.7273H801.516V38.2926H788.86V69H778.479V38.2926H765.925ZM812.785 41.7955H824.521C829.72 41.7955 833.777 43.0398 836.692 45.5284C839.607 48 841.064 51.3068 841.064 55.4489C841.064 58.142 840.408 60.5114 839.095 62.5568C837.783 64.5852 835.891 66.1705 833.419 67.3125C830.947 68.4375 827.982 69 824.521 69H805.959V29.7273H816.365V60.4347H824.521C826.345 60.4347 827.845 59.9744 829.021 59.054C830.197 58.1335 830.794 56.9574 830.811 55.5256C830.794 54.0085 830.197 52.7727 829.021 51.8182C827.845 50.8466 826.345 50.3608 824.521 50.3608H812.785V41.7955ZM860.631 83.7273V29.7273H871.37V36.3239H871.855C872.333 35.267 873.023 34.1932 873.926 33.1023C874.847 31.9943 876.04 31.0739 877.506 30.3409C878.989 29.5909 880.83 29.2159 883.029 29.2159C885.892 29.2159 888.534 29.9659 890.955 31.4659C893.375 32.9489 895.31 35.1903 896.759 38.1903C898.208 41.1733 898.932 44.9148 898.932 49.4148C898.932 53.7955 898.225 57.4943 896.81 60.5114C895.412 63.5114 893.503 65.7869 891.083 67.3381C888.679 68.8722 885.986 69.6392 883.003 69.6392C880.889 69.6392 879.091 69.2898 877.608 68.5909C876.142 67.892 874.941 67.0142 874.003 65.9574C873.066 64.8835 872.35 63.8011 871.855 62.7102H871.523V83.7273H860.631ZM871.293 49.3636C871.293 51.6989 871.617 53.7358 872.264 55.4744C872.912 57.2131 873.85 58.5682 875.077 59.5398C876.304 60.4943 877.796 60.9716 879.551 60.9716C881.324 60.9716 882.824 60.4858 884.051 59.5142C885.279 58.5256 886.208 57.1619 886.838 55.4233C887.486 53.6676 887.81 51.6477 887.81 49.3636C887.81 47.0966 887.495 45.1023 886.864 43.3807C886.233 41.6591 885.304 40.3125 884.077 39.3409C882.85 38.3693 881.341 37.8835 879.551 37.8835C877.779 37.8835 876.279 38.3523 875.051 39.2898C873.841 40.2273 872.912 41.5568 872.264 43.2784C871.617 45 871.293 47.0284 871.293 49.3636ZM915.232 69.7415C912.727 69.7415 910.494 69.3068 908.533 68.4375C906.573 67.5511 905.022 66.2472 903.88 64.5256C902.755 62.7869 902.193 60.6222 902.193 58.0312C902.193 55.8494 902.593 54.017 903.394 52.5341C904.195 51.0511 905.286 49.858 906.667 48.9545C908.048 48.0511 909.616 47.3693 911.372 46.9091C913.144 46.4489 915.002 46.125 916.945 45.9375C919.23 45.6989 921.07 45.4773 922.468 45.2727C923.866 45.0511 924.88 44.7273 925.511 44.3011C926.141 43.875 926.457 43.2443 926.457 42.4091V42.2557C926.457 40.6364 925.945 39.3835 924.923 38.4972C923.917 37.6108 922.485 37.1676 920.627 37.1676C918.667 37.1676 917.107 37.6023 915.948 38.4716C914.789 39.3239 914.022 40.3977 913.647 41.6932L903.573 40.875C904.085 38.4886 905.09 36.4261 906.59 34.6875C908.09 32.9318 910.025 31.5852 912.394 30.6477C914.781 29.6932 917.542 29.2159 920.678 29.2159C922.86 29.2159 924.948 29.4716 926.943 29.983C928.954 30.4943 930.735 31.2869 932.286 32.3608C933.855 33.4347 935.09 34.8153 935.994 36.5028C936.897 38.1733 937.349 40.1761 937.349 42.5114V69H927.019V63.554H926.712C926.082 64.7812 925.238 65.8636 924.181 66.8011C923.124 67.7216 921.855 68.446 920.372 68.9744C918.889 69.4858 917.176 69.7415 915.232 69.7415ZM918.352 62.2244C919.954 62.2244 921.369 61.9091 922.596 61.2784C923.823 60.6307 924.786 59.7614 925.485 58.6705C926.184 57.5795 926.533 56.3437 926.533 54.9631V50.7955C926.193 51.017 925.724 51.2216 925.127 51.4091C924.548 51.5795 923.891 51.7415 923.158 51.8949C922.426 52.0312 921.693 52.1591 920.96 52.2784C920.227 52.3807 919.562 52.4744 918.965 52.5597C917.687 52.7472 916.57 53.0455 915.616 53.4545C914.661 53.8636 913.92 54.4176 913.391 55.1165C912.863 55.7983 912.599 56.6506 912.599 57.6733C912.599 59.1562 913.136 60.2898 914.21 61.0739C915.301 61.8409 916.681 62.2244 918.352 62.2244ZM976.29 15.3068L979.614 22.4148C978.506 23.3352 977.278 24.017 975.932 24.4602C974.585 24.8864 972.974 25.1676 971.099 25.304C969.241 25.4403 966.974 25.5341 964.298 25.5852C961.264 25.6193 958.792 26.1051 956.883 27.0426C954.974 27.9801 953.525 29.4545 952.537 31.4659C951.548 33.4602 950.9 36.0682 950.594 39.2898H950.977C952.153 36.8864 953.807 35.0284 955.937 33.7159C958.085 32.4034 960.736 31.7472 963.889 31.7472C967.23 31.7472 970.153 32.4801 972.659 33.946C975.182 35.4119 977.142 37.517 978.54 40.2614C979.937 43.0057 980.636 46.2955 980.636 50.1307C980.636 54.1193 979.852 57.5881 978.284 60.5369C976.733 63.4687 974.525 65.7443 971.662 67.3636C968.798 68.9659 965.389 69.767 961.435 69.767C957.463 69.767 954.037 68.9318 951.156 67.2614C948.292 65.5909 946.077 63.1278 944.508 59.8722C942.957 56.6165 942.182 52.6108 942.182 47.8551V44.6335C942.182 35.1733 944.023 28.1591 947.704 23.5909C951.386 19.0227 956.798 16.7045 963.94 16.6364C965.883 16.6023 967.639 16.5937 969.207 16.6108C970.775 16.6278 972.148 16.5511 973.324 16.3807C974.517 16.2102 975.506 15.8523 976.29 15.3068ZM961.486 61.3295C963.156 61.3295 964.588 60.8949 965.781 60.0256C966.991 59.1562 967.92 57.9119 968.568 56.2926C969.233 54.6733 969.565 52.7386 969.565 50.4886C969.565 48.2557 969.233 46.3636 968.568 44.8125C967.92 43.2443 966.991 42.0511 965.781 41.233C964.571 40.4148 963.122 40.0057 961.435 40.0057C960.173 40.0057 959.04 40.2358 958.034 40.696C957.028 41.1562 956.167 41.8381 955.452 42.7415C954.753 43.6278 954.207 44.7273 953.815 46.0398C953.44 47.3352 953.253 48.8182 953.253 50.4886C953.253 53.8466 953.977 56.4972 955.426 58.4403C956.892 60.3665 958.912 61.3295 961.486 61.3295ZM1003.45 69.767C999.478 69.767 996.044 68.9233 993.146 67.2358C990.265 65.5312 988.041 63.1619 986.473 60.1278C984.905 57.0767 984.12 53.5398 984.12 49.517C984.12 45.4602 984.905 41.9148 986.473 38.8807C988.041 35.8295 990.265 33.4602 993.146 31.7727C996.044 30.0682 999.478 29.2159 1003.45 29.2159C1007.42 29.2159 1010.85 30.0682 1013.73 31.7727C1016.63 33.4602 1018.86 35.8295 1020.43 38.8807C1022 41.9148 1022.78 45.4602 1022.78 49.517C1022.78 53.5398 1022 57.0767 1020.43 60.1278C1018.86 63.1619 1016.63 65.5312 1013.73 67.2358C1010.85 68.9233 1007.42 69.767 1003.45 69.767ZM1003.5 61.3295C1005.31 61.3295 1006.82 60.8182 1008.03 59.7955C1009.24 58.7557 1010.15 57.3409 1010.76 55.5511C1011.39 53.7614 1011.71 51.7244 1011.71 49.4403C1011.71 47.1562 1011.39 45.1193 1010.76 43.3295C1010.15 41.5398 1009.24 40.125 1008.03 39.0852C1006.82 38.0455 1005.31 37.5256 1003.5 37.5256C1001.68 37.5256 1000.14 38.0455 998.899 39.0852C997.672 40.125 996.743 41.5398 996.112 43.3295C995.498 45.1193 995.191 47.1562 995.191 49.4403C995.191 51.7244 995.498 53.7614 996.112 55.5511C996.743 57.3409 997.672 58.7557 998.899 59.7955C1000.14 60.8182 1001.68 61.3295 1003.5 61.3295ZM1023.9 38.2926V29.7273H1059.49V38.2926H1046.83V69H1036.45V38.2926H1023.9ZM1070.66 83.7273C1069.28 83.7273 1067.98 83.6165 1066.77 83.3949C1065.58 83.1903 1064.59 82.9261 1063.8 82.6023L1066.26 74.4716C1067.54 74.8636 1068.69 75.0767 1069.71 75.1108C1070.75 75.1449 1071.65 74.9063 1072.4 74.3949C1073.16 73.8835 1073.78 73.0142 1074.26 71.7869L1074.9 70.125L1060.81 29.7273H1072.27L1080.4 58.5682H1080.81L1089.01 29.7273H1100.55L1085.28 73.2443C1084.55 75.358 1083.55 77.1989 1082.29 78.767C1081.05 80.3523 1079.47 81.571 1077.56 82.4233C1075.65 83.2926 1073.35 83.7273 1070.66 83.7273ZM1113.32 53.3011V52.4318C1113.34 49.4489 1113.6 47.071 1114.11 45.2983C1114.64 43.5256 1115.41 42.0938 1116.41 41.0028C1117.42 39.9119 1118.63 38.9233 1120.04 38.0369C1121.1 37.3551 1122.05 36.6477 1122.88 35.9148C1123.72 35.1818 1124.38 34.3722 1124.87 33.4858C1125.37 32.5824 1125.62 31.5767 1125.62 30.4688C1125.62 29.2926 1125.34 28.2614 1124.77 27.375C1124.21 26.4886 1123.45 25.8068 1122.5 25.3295C1121.56 24.8523 1120.52 24.6136 1119.38 24.6136C1118.27 24.6136 1117.22 24.8608 1116.23 25.3551C1115.24 25.8324 1114.43 26.5483 1113.8 27.5028C1113.17 28.4403 1112.83 29.608 1112.78 31.0057H1102.35C1102.43 27.5966 1103.25 24.7841 1104.8 22.5682C1106.35 20.3352 1108.41 18.6733 1110.97 17.5824C1113.52 16.4744 1116.34 15.9205 1119.43 15.9205C1122.82 15.9205 1125.82 16.483 1128.43 17.608C1131.04 18.7159 1133.08 20.3267 1134.57 22.4403C1136.05 24.554 1136.79 27.1023 1136.79 30.0852C1136.79 32.0795 1136.46 33.8523 1135.79 35.4034C1135.14 36.9375 1134.23 38.3011 1133.06 39.4943C1131.88 40.6705 1130.49 41.7358 1128.89 42.6903C1127.54 43.4915 1126.43 44.3267 1125.57 45.196C1124.71 46.0653 1124.07 47.071 1123.65 48.2131C1123.24 49.3551 1123.03 50.7614 1123.01 52.4318V53.3011H1113.32ZM1118.38 69.6648C1116.68 69.6648 1115.22 69.0682 1114.01 67.875C1112.82 66.6648 1112.23 65.2159 1112.24 63.5284C1112.23 61.858 1112.82 60.4261 1114.01 59.233C1115.22 58.0398 1116.68 57.4432 1118.38 57.4432C1120 57.4432 1121.42 58.0398 1122.65 59.233C1123.88 60.4261 1124.5 61.858 1124.52 63.5284C1124.5 64.6534 1124.2 65.6847 1123.62 66.6222C1123.06 67.5426 1122.32 68.2841 1121.4 68.8466C1120.48 69.392 1119.47 69.6648 1118.38 69.6648Z" fill="black"/>
<rect x="1242" y="246" width="51" height="190" rx="12" fill="#5865C4"/>
<path d="M1270.43 334.93L1276.5 341L1270.43 347.07M1259.5 341H1276.33" stroke="white" stroke-width="1.5" stroke-miterlimit="10" stroke-linecap="round" stroke-linejoin="round"/>
</svg>
