<svg width="1440" height="432" viewBox="0 0 1440 432" fill="none" xmlns="http://www.w3.org/2000/svg">
<rect x="-12.2949" y="42.3501" width="1487.32" height="192.52" transform="rotate(5.0199 -12.2949 42.3501)" fill="url(#paint0_linear_124_78)"/>
<path d="M-703.226 58.7841L-718.032 35.0766L-721.801 34.7455L-723.754 56.9809L-734.783 56.0121L-730.201 3.84934L-719.172 4.81809L-721.003 25.6526L-718.787 25.8473L-699.637 6.53411L-685.908 7.74002L-708.385 30.149L-689.548 59.9856L-703.226 58.7841ZM-657.031 38.7666L-657.781 47.299L-678.208 45.5047L-677.458 36.9722L-657.031 38.7666ZM-672.555 22.0543L-675.991 61.1764L-686.357 60.2658L-682.921 21.1438L-672.555 22.0543ZM-648.893 24.1328L-652.329 63.2549L-662.619 62.351L-659.183 23.2289L-648.893 24.1328ZM-634.44 50.4017L-618.175 26.831L-607.478 27.7707L-610.914 66.8928L-621.255 65.9844L-619.069 41.1001L-635.289 64.7517L-646.063 63.8053L-642.627 24.6832L-632.26 25.5938L-634.44 50.4017ZM-574.137 30.6994L-574.887 39.2319L-591.137 37.8045L-593.824 68.3941L-604.368 67.4678L-600.932 28.3457L-574.137 30.6994ZM-561.486 56.81L-545.222 33.2393L-534.524 34.179L-537.961 73.3011L-548.302 72.3927L-546.116 47.5084L-562.336 71.16L-573.109 70.2136L-569.673 31.0915L-559.307 32.0021L-561.486 56.81ZM-531.211 73.894L-526.629 21.7312L-515.6 22.7L-517.491 44.2222L-495.102 46.1888L-493.212 24.6666L-482.209 25.6331L-486.791 77.7959L-497.794 76.8293L-495.901 55.2816L-518.289 53.315L-520.182 74.8628L-531.211 73.894ZM-462.291 80.7179C-466.316 80.3644 -469.708 79.2451 -472.468 77.3599C-475.21 75.4593 -477.23 72.9377 -478.529 69.795C-479.825 66.6353 -480.292 62.9924 -479.93 58.8662C-479.576 54.8419 -478.485 51.3787 -476.656 48.4765C-474.827 45.5743 -472.42 43.3987 -469.435 41.9498C-466.433 40.5024 -463.014 39.9472 -459.176 40.2843C-456.595 40.511 -454.229 41.138 -452.078 42.1655C-449.908 43.1774 -448.063 44.58 -446.544 46.3732C-445.008 48.1679 -443.882 50.3544 -443.167 52.9325C-442.451 55.4936 -442.239 58.4382 -442.532 61.7663L-442.794 64.7463L-475.828 61.8445L-475.238 55.1204L-452.416 57.125C-452.279 55.5629 -452.497 54.1491 -453.071 52.8839C-453.644 51.6187 -454.503 50.5935 -455.649 49.8084C-456.777 49.0078 -458.13 48.5381 -459.709 48.3994C-461.356 48.2547 -462.85 48.5085 -464.191 49.1608C-465.513 49.7975 -466.587 50.7213 -467.412 51.9322C-468.235 53.1261 -468.723 54.4948 -468.876 56.0385L-469.437 62.4315C-469.608 64.3673 -469.398 66.0711 -468.808 67.5431C-468.202 69.0166 -467.27 70.1936 -466.013 71.074C-464.756 71.9544 -463.219 72.4745 -461.402 72.6341C-460.196 72.74 -459.077 72.6671 -458.046 72.4155C-457.014 72.1639 -456.112 71.7298 -455.339 71.1133C-454.566 70.4967 -453.95 69.7124 -453.49 68.7604L-443.513 70.3041C-444.234 72.6705 -445.463 74.6843 -447.2 76.3455C-448.919 77.9912 -451.062 79.2061 -453.629 79.9901C-456.178 80.7587 -459.065 81.0013 -462.291 80.7179ZM-443.402 93.1571L-441.639 73.0867L-438.634 73.3507C-437.72 72.8834 -436.948 72.0786 -436.317 70.9362C-435.669 69.7953 -435.105 68.4332 -434.623 66.85C-434.125 65.2682 -433.7 63.5516 -433.35 61.7002C-432.98 59.8333 -432.635 57.9472 -432.314 56.0419L-430.172 43.3454L-400.168 45.9809L-402.848 76.4941L-396.786 77.0266L-398.549 97.097L-408.89 96.1887L-407.883 84.7271L-431.8 82.6263L-432.807 94.0878L-443.402 93.1571ZM-427.834 74.2993L-413.087 75.5947L-411.141 53.4357L-421.685 52.5095L-422.482 56.9055C-423.138 61.0572 -423.865 64.5695 -424.665 67.4423C-425.464 70.2982 -426.52 72.5839 -427.834 74.2993ZM-375.609 88.3321C-379.634 87.9786 -383.026 86.8593 -385.786 84.9741C-388.528 83.0735 -390.548 80.5519 -391.846 77.4092C-393.143 74.2495 -393.61 70.6066 -393.248 66.4804C-392.894 62.4561 -391.803 58.9929 -389.974 56.0907C-388.145 53.1885 -385.738 51.0129 -382.753 49.564C-379.751 48.1165 -376.331 47.5614 -372.494 47.8985C-369.913 48.1252 -367.547 48.7522 -365.395 49.7797C-363.226 50.7916 -361.381 52.1942 -359.862 53.9874C-358.325 55.7821 -357.2 57.9686 -356.485 60.5467C-355.769 63.1078 -355.557 66.0524 -355.85 69.3805L-356.111 72.3605L-389.146 69.4587L-388.555 62.7346L-365.734 64.7392C-365.597 63.1771 -365.815 61.7633 -366.388 60.4981C-366.962 59.2329 -367.821 58.2077 -368.967 57.4226C-370.095 56.622 -371.448 56.1523 -373.027 56.0136C-374.674 55.8689 -376.168 56.1227 -377.509 56.775C-378.831 57.4117 -379.904 58.3355 -380.729 59.5464C-381.553 60.7403 -382.041 62.109 -382.194 63.6527L-382.755 70.0457C-382.925 71.9815 -382.716 73.6853 -382.126 75.1573C-381.52 76.6308 -380.588 77.8078 -379.331 78.6882C-378.073 79.5686 -376.536 80.0887 -374.72 80.2483C-373.514 80.3542 -372.395 80.2813 -371.364 80.0297C-370.332 79.7781 -369.43 79.344 -368.657 78.7275C-367.884 78.1109 -367.268 77.3266 -366.808 76.3746L-356.831 77.9183C-357.552 80.2847 -358.781 82.2985 -360.518 83.9597C-362.237 85.6054 -364.38 86.8203 -366.947 87.6043C-369.496 88.3729 -372.383 88.6155 -375.609 88.3321ZM-354.949 89.3769L-354.244 80.7635L-352.945 80.8776C-352.028 80.9582 -351.219 80.8068 -350.518 80.4235C-349.798 80.0247 -349.173 79.3353 -348.642 78.3552C-348.111 77.3752 -347.645 76.0559 -347.242 74.3972C-346.838 72.7216 -346.485 70.6479 -346.182 68.1763L-344.024 50.9126L-314.275 53.5257L-317.712 92.6478L-328.053 91.7395L-325.366 61.1499L-335.019 60.3019L-336.679 72.1937C-337.12 75.4575 -337.767 78.2411 -338.619 80.5447C-339.455 82.8497 -340.499 84.7086 -341.753 86.1214C-343.005 87.5172 -344.452 88.5023 -346.093 89.0768C-347.735 89.6512 -349.6 89.8467 -351.689 89.6633L-354.949 89.3769ZM-299.828 79.7941L-283.564 56.2234L-272.867 57.1631L-276.303 96.2852L-286.644 95.3768L-284.458 70.4925L-300.678 94.1441L-311.452 93.1977L-308.015 54.0756L-297.649 54.9862L-299.828 79.7941ZM-237.996 99.6501L-252.802 75.9426L-256.571 75.6115L-258.525 97.8469L-269.553 96.8781L-264.971 44.7153L-253.943 45.6841L-255.773 66.5186L-253.557 66.7133L-234.407 47.4001L-220.679 48.606L-243.155 71.015L-224.318 100.852L-237.996 99.6501ZM-191.801 79.6325L-192.551 88.165L-212.978 86.3707L-212.228 77.8382L-191.801 79.6325ZM-207.325 62.9203L-210.761 102.042L-221.128 101.132L-217.691 62.0097L-207.325 62.9203ZM-183.663 64.9988L-187.099 104.121L-197.389 103.217L-193.953 64.0949L-183.663 64.9988ZM-169.21 91.2677L-152.946 67.697L-142.248 68.6367L-145.685 107.759L-156.025 106.85L-153.84 81.9661L-170.06 105.618L-180.833 104.671L-177.397 65.5492L-167.031 66.4598L-169.21 91.2677ZM-108.907 71.5654L-109.657 80.0978L-125.907 78.6704L-128.594 109.26L-139.138 108.334L-135.702 69.2117L-108.907 71.5654ZM-96.2559 97.676L-79.9918 74.1053L-69.2944 75.045L-72.7309 114.167L-83.0717 113.259L-80.8859 88.3744L-97.1058 112.026L-107.88 111.08L-104.443 71.9575L-94.0768 72.8681L-96.2559 97.676ZM-65.9807 114.76L-61.3987 62.5972L-50.3702 63.566L-52.2607 85.0882L-29.8725 87.0548L-27.982 65.5326L-16.9789 66.4991L-21.5609 118.662L-32.564 117.695L-30.6712 96.1476L-53.0594 94.181L-54.9522 115.729L-65.9807 114.76ZM2.9384 121.584C-1.08588 121.23 -4.47822 120.111 -7.23863 118.226C-9.98056 116.325 -12.0006 113.804 -13.2988 110.661C-14.5954 107.501 -15.0626 103.858 -14.7001 99.7322C-14.3466 95.7079 -13.2553 92.2447 -11.4261 89.3425C-9.597 86.4402 -7.19001 84.2647 -4.20518 82.8158C-1.20338 81.3683 2.21627 80.8132 6.05377 81.1503C8.63474 81.377 11.0009 82.004 13.1522 83.0314C15.322 84.0434 17.1665 85.446 18.6859 87.2392C20.2222 89.0339 21.3477 91.2203 22.0624 93.7984C22.7785 96.3596 22.9904 99.3042 22.6981 102.632L22.4363 105.612L-10.5984 102.71L-10.0078 95.9864L12.8135 97.991C12.9507 96.4288 12.7326 95.0151 12.1593 93.7499C11.586 92.4846 10.7264 91.4595 9.5805 90.6744C8.45305 89.8738 7.09975 89.4041 5.5206 89.2654C3.87353 89.1207 2.37969 89.3745 1.03906 90.0267C-0.283091 90.6635 -1.35668 91.5873 -2.18171 92.7982C-3.00525 93.992 -3.49337 95.3608 -3.64608 96.9045L-4.20764 103.298C-4.37768 105.233 -4.16801 106.937 -3.57865 108.409C-2.9723 109.883 -2.04047 111.06 -0.78314 111.94C0.474186 112.82 2.01128 113.34 3.82815 113.5C5.03374 113.606 6.15236 113.533 7.18401 113.281C8.21567 113.03 9.11791 112.596 9.89073 111.979C10.6636 111.363 11.28 110.578 11.7401 109.626L21.7171 111.17C20.9959 113.537 19.7667 115.55 18.0295 117.211C16.3107 118.857 14.1677 120.072 11.6006 120.856C9.05203 121.625 6.16461 121.867 2.9384 121.584ZM21.8277 134.023L23.5907 113.953L26.5962 114.217C27.5099 113.749 28.2822 112.945 28.913 111.802C29.5607 110.661 30.1253 109.299 30.6066 107.716C31.1048 106.134 31.5294 104.418 31.8803 102.566C32.2496 100.699 32.5949 98.8132 32.9163 96.9078L35.0582 84.2113L65.062 86.8469L62.3817 117.36L68.4436 117.893L66.6806 137.963L56.3397 137.055L57.3465 125.593L33.4301 123.492L32.4233 134.954L21.8277 134.023ZM37.3955 115.165L52.1427 116.461L54.0892 94.3017L43.5446 93.3754L42.7477 97.7714C42.0922 101.923 41.3644 105.435 40.5645 108.308C39.7661 111.164 38.7098 113.45 37.3955 115.165ZM89.6206 129.198C85.5963 128.845 82.204 127.725 79.4436 125.84C76.7017 123.939 74.6816 121.418 73.3834 118.275C72.0868 115.115 71.6197 111.473 71.9821 107.346C72.3356 103.322 73.4269 99.8589 75.2561 96.9567C77.0852 94.0545 79.4922 91.8789 82.477 90.43C85.4788 88.9825 88.8985 88.4274 92.736 88.7645C95.317 88.9912 97.6831 89.6182 99.8344 90.6456C102.004 91.6576 103.849 93.0602 105.368 94.8534C106.904 96.6481 108.03 98.8345 108.745 101.413C109.461 103.974 109.673 106.918 109.38 110.246L109.119 113.226L76.0838 110.325L76.6745 103.601L99.4957 105.605C99.6329 104.043 99.4149 102.629 98.8416 101.364C98.2683 100.099 97.4086 99.0737 96.2627 98.2886C95.1353 97.488 93.782 97.0183 92.2028 96.8796C90.5557 96.7349 89.0619 96.9887 87.7213 97.6409C86.3991 98.2777 85.3255 99.2015 84.5005 100.412C83.677 101.606 83.1888 102.975 83.0361 104.519L82.4746 110.912C82.3045 112.847 82.5142 114.551 83.1036 116.023C83.7099 117.497 84.6417 118.674 85.8991 119.554C87.1564 120.435 88.6935 120.955 90.5104 121.114C91.716 121.22 92.8346 121.147 93.8662 120.896C94.8979 120.644 95.8001 120.21 96.5729 119.593C97.3458 118.977 97.9622 118.193 98.4223 117.241L108.399 118.784C107.678 121.151 106.449 123.165 104.712 124.826C102.993 126.471 100.85 127.686 98.2829 128.47C95.7342 129.239 92.8468 129.481 89.6206 129.198ZM110.281 130.243L110.986 121.63L112.285 121.744C113.202 121.824 114.011 121.673 114.712 121.289C115.431 120.891 116.057 120.201 116.588 119.221C117.119 118.241 117.585 116.922 117.988 115.263C118.391 113.588 118.745 111.514 119.047 109.042L121.206 91.7786L150.955 94.3917L147.518 133.514L137.177 132.605L139.864 102.016L130.211 101.168L128.55 113.06C128.11 116.323 127.463 119.107 126.611 121.411C125.775 123.716 124.731 125.575 123.477 126.987C122.225 128.383 120.778 129.368 119.136 129.943C117.495 130.517 115.63 130.713 113.541 130.529L110.281 130.243ZM165.402 120.66L181.666 97.0894L192.363 98.0291L188.927 137.151L178.586 136.243L180.772 111.359L164.552 135.01L153.778 134.064L157.214 94.9416L167.581 95.8522L165.402 120.66ZM227.234 140.516L212.428 116.809L208.658 116.477L206.705 138.713L195.677 137.744L200.259 85.5813L211.287 86.5501L209.457 107.385L211.673 107.579L230.823 88.2661L244.551 89.472L222.075 111.881L240.912 141.718L227.234 140.516ZM273.428 120.499L272.679 129.031L252.252 127.237L253.001 118.704L273.428 120.499ZM257.905 103.786L254.469 142.908L244.102 141.998L247.539 102.876L257.905 103.786ZM281.567 105.865L278.13 144.987L267.84 144.083L271.277 104.961L281.567 105.865ZM296.02 132.134L312.284 108.563L322.982 109.503L319.545 148.625L309.204 147.716L311.39 122.832L295.17 146.484L284.396 145.537L287.833 106.415L298.199 107.326L296.02 132.134ZM356.323 112.431L355.573 120.964L339.323 119.536L336.636 150.126L326.092 149.2L329.528 110.078L356.323 112.431ZM368.974 138.542L385.238 114.971L395.935 115.911L392.499 155.033L382.158 154.125L384.344 129.24L368.124 152.892L357.35 151.946L360.787 112.823L371.153 113.734L368.974 138.542ZM399.249 155.626L403.831 103.463L414.86 104.432L412.969 125.954L435.357 127.921L437.248 106.399L448.251 107.365L443.669 159.528L432.666 158.561L434.559 137.014L412.17 135.047L410.278 156.595L399.249 155.626ZM468.168 162.45C464.144 162.096 460.752 160.977 457.991 159.092C455.249 157.191 453.229 154.67 451.931 151.527C450.634 148.367 450.167 144.724 450.53 140.598C450.883 136.574 451.975 133.111 453.804 130.208C455.633 127.306 458.04 125.131 461.025 123.682C464.027 122.234 467.446 121.679 471.284 122.016C473.865 122.243 476.231 122.87 478.382 123.897C480.552 124.909 482.396 126.312 483.916 128.105C485.452 129.9 486.578 132.086 487.292 134.664C488.008 137.226 488.22 140.17 487.928 143.498L487.666 146.478L454.631 143.576L455.222 136.852L478.043 138.857C478.181 137.295 477.963 135.881 477.389 134.616C476.816 133.351 475.956 132.325 474.81 131.54C473.683 130.74 472.33 130.27 470.751 130.131C469.103 129.987 467.61 130.24 466.269 130.893C464.947 131.529 463.873 132.453 463.048 133.664C462.225 134.858 461.737 136.227 461.584 137.771L461.022 144.164C460.852 146.099 461.062 147.803 461.651 149.275C462.258 150.749 463.189 151.926 464.447 152.806C465.704 153.686 467.241 154.206 469.058 154.366C470.264 154.472 471.382 154.399 472.414 154.147C473.446 153.896 474.348 153.462 475.121 152.845C475.893 152.229 476.51 151.444 476.97 150.492L486.947 152.036C486.226 154.403 484.997 156.416 483.259 158.077C481.541 159.723 479.398 160.938 476.831 161.722C474.282 162.491 471.395 162.733 468.168 162.45ZM487.058 174.889L488.821 154.819L491.826 155.083C492.74 154.615 493.512 153.811 494.143 152.668C494.791 151.527 495.355 150.165 495.836 148.582C496.335 147 496.759 145.284 497.11 143.432C497.479 141.565 497.825 139.679 498.146 137.774L500.288 125.077L530.292 127.713L527.612 158.226L533.673 158.759L531.91 178.829L521.57 177.921L522.576 166.459L498.66 164.358L497.653 175.82L487.058 174.889ZM502.625 156.031L517.373 157.327L519.319 135.168L508.774 134.241L507.978 138.637C507.322 142.789 506.594 146.301 505.794 149.174C504.996 152.03 503.94 154.316 502.625 156.031ZM554.85 170.064C550.826 169.711 547.434 168.591 544.673 166.706C541.931 164.805 539.911 162.284 538.613 159.141C537.317 155.981 536.849 152.339 537.212 148.212C537.565 144.188 538.657 140.725 540.486 137.823C542.315 134.92 544.722 132.745 547.707 131.296C550.709 129.849 554.128 129.293 557.966 129.63C560.547 129.857 562.913 130.484 565.064 131.512C567.234 132.524 569.079 133.926 570.598 135.719C572.134 137.514 573.26 139.701 573.974 142.279C574.691 144.84 574.902 147.784 574.61 151.112L574.348 154.092L541.314 151.191L541.904 144.467L564.725 146.471C564.863 144.909 564.645 143.495 564.071 142.23C563.498 140.965 562.638 139.94 561.492 139.155C560.365 138.354 559.012 137.884 557.433 137.746C555.786 137.601 554.292 137.855 552.951 138.507C551.629 139.144 550.555 140.067 549.73 141.278C548.907 142.472 548.419 143.841 548.266 145.385L547.704 151.778C547.534 153.713 547.744 155.417 548.333 156.889C548.94 158.363 549.872 159.54 551.129 160.42C552.386 161.301 553.923 161.821 555.74 161.98C556.946 162.086 558.064 162.013 559.096 161.762C560.128 161.51 561.03 161.076 561.803 160.459C562.576 159.843 563.192 159.059 563.652 158.107L573.629 159.65C572.908 162.017 571.679 164.03 569.941 165.692C568.223 167.337 566.08 168.552 563.513 169.336C560.964 170.105 558.077 170.347 554.85 170.064ZM575.511 171.109L576.216 162.495L577.515 162.61C578.432 162.69 579.241 162.539 579.942 162.155C580.661 161.757 581.287 161.067 581.817 160.087C582.348 159.107 582.815 157.788 583.218 156.129C583.621 154.454 583.975 152.38 584.277 149.908L586.435 132.645L616.184 135.258L612.748 174.38L602.407 173.471L605.094 142.882L595.441 142.034L593.78 153.926C593.34 157.189 592.693 159.973 591.84 162.277C591.005 164.582 589.96 166.441 588.707 167.853C587.455 169.249 586.008 170.234 584.366 170.809C582.725 171.383 580.859 171.579 578.771 171.395L575.511 171.109ZM630.631 161.526L646.896 137.955L657.593 138.895L654.156 178.017L643.816 177.109L646.001 152.225L629.782 175.876L619.008 174.93L622.444 135.808L632.811 136.718L630.631 161.526ZM692.464 181.382L677.658 157.675L673.888 157.343L671.935 179.579L660.907 178.61L665.489 126.447L676.517 127.416L674.687 148.251L676.903 148.445L696.053 129.132L709.781 130.338L687.305 152.747L706.141 182.584L692.464 181.382ZM738.658 161.365L737.909 169.897L717.482 168.103L718.231 159.57L738.658 161.365ZM723.135 144.652L719.698 183.774L709.332 182.864L712.769 143.742L723.135 144.652ZM746.797 146.731L743.36 185.853L733.07 184.949L736.507 145.827L746.797 146.731ZM761.25 173L777.514 149.429L788.212 150.369L784.775 189.491L774.434 188.582L776.62 163.698L760.4 187.35L749.626 186.403L753.063 147.281L763.429 148.192L761.25 173ZM821.552 153.297L820.803 161.83L804.553 160.402L801.866 190.992L791.321 190.066L794.758 150.944L821.552 153.297ZM834.204 179.408L850.468 155.837L861.165 156.777L857.729 195.899L847.388 194.991L849.574 170.106L833.354 193.758L822.58 192.812L826.017 153.689L836.383 154.6L834.204 179.408ZM864.479 196.492L869.061 144.329L880.09 145.298L878.199 166.82L900.587 168.787L902.478 147.265L913.481 148.231L908.899 200.394L897.896 199.427L899.789 177.88L877.4 175.913L875.508 197.461L864.479 196.492ZM933.398 203.316C929.374 202.962 925.982 201.843 923.221 199.958C920.479 198.057 918.459 195.536 917.161 192.393C915.864 189.233 915.397 185.59 915.76 181.464C916.113 177.44 917.204 173.977 919.034 171.074C920.863 168.172 923.27 165.997 926.255 164.548C929.256 163.1 932.676 162.545 936.514 162.882C939.094 163.109 941.461 163.736 943.612 164.763C945.782 165.775 947.626 167.178 949.146 168.971C950.682 170.766 951.807 172.952 952.522 175.53C953.238 178.092 953.45 181.036 953.158 184.364L952.896 187.344L919.861 184.442L920.452 177.718L943.273 179.723C943.41 178.161 943.192 176.747 942.619 175.482C942.046 174.217 941.186 173.191 940.04 172.406C938.913 171.606 937.559 171.136 935.98 170.997C934.333 170.853 932.839 171.106 931.499 171.759C930.177 172.395 929.103 173.319 928.278 174.53C927.454 175.724 926.966 177.093 926.814 178.636L926.252 185.029C926.082 186.965 926.292 188.669 926.881 190.141C927.487 191.615 928.419 192.792 929.677 193.672C930.934 194.552 932.471 195.072 934.288 195.232C935.493 195.338 936.612 195.265 937.644 195.013C938.675 194.762 939.578 194.328 940.35 193.711C941.123 193.095 941.74 192.31 942.2 191.358L952.177 192.902C951.456 195.268 950.226 197.282 948.489 198.943C946.77 200.589 944.627 201.804 942.06 202.588C939.512 203.357 936.624 203.599 933.398 203.316ZM952.287 215.755L954.05 195.685L957.056 195.949C957.97 195.481 958.742 194.677 959.373 193.534C960.02 192.393 960.585 191.031 961.066 189.448C961.565 187.866 961.989 186.15 962.34 184.298C962.709 182.431 963.055 180.545 963.376 178.64L965.518 165.943L995.522 168.579L992.841 199.092L998.903 199.625L997.14 219.695L986.799 218.787L987.806 207.325L963.89 205.224L962.883 216.686L952.287 215.755ZM967.855 196.897L982.602 198.193L984.549 176.034L974.004 175.107L973.207 179.503C972.552 183.655 971.824 187.167 971.024 190.04C970.226 192.896 969.169 195.182 967.855 196.897ZM1020.08 210.93C1016.06 210.577 1012.66 209.457 1009.9 207.572C1007.16 205.671 1005.14 203.15 1003.84 200.007C1002.55 196.847 1002.08 193.205 1002.44 189.078C1002.8 185.054 1003.89 181.591 1005.72 178.689C1007.54 175.786 1009.95 173.611 1012.94 172.162C1015.94 170.714 1019.36 170.159 1023.2 170.496C1025.78 170.723 1028.14 171.35 1030.29 172.378C1032.46 173.39 1034.31 174.792 1035.83 176.585C1037.36 178.38 1038.49 180.566 1039.2 183.145C1039.92 185.706 1040.13 188.65 1039.84 191.978L1039.58 194.958L1006.54 192.057L1007.13 185.333L1029.96 187.337C1030.09 185.775 1029.87 184.361 1029.3 183.096C1028.73 181.831 1027.87 180.806 1026.72 180.021C1025.59 179.22 1024.24 178.75 1022.66 178.612C1021.02 178.467 1019.52 178.721 1018.18 179.373C1016.86 180.01 1015.79 180.933 1014.96 182.144C1014.14 183.338 1013.65 184.707 1013.5 186.251L1012.93 192.644C1012.76 194.579 1012.97 196.283 1013.56 197.755C1014.17 199.229 1015.1 200.406 1016.36 201.286C1017.62 202.167 1019.15 202.687 1020.97 202.846C1022.18 202.952 1023.29 202.879 1024.33 202.628C1025.36 202.376 1026.26 201.942 1027.03 201.325C1027.81 200.709 1028.42 199.925 1028.88 198.973L1038.86 200.516C1038.14 202.883 1036.91 204.896 1035.17 206.558C1033.45 208.203 1031.31 209.418 1028.74 210.202C1026.19 210.971 1023.31 211.213 1020.08 210.93ZM1040.74 211.975L1041.45 203.361L1042.74 203.476C1043.66 203.556 1044.47 203.405 1045.17 203.021C1045.89 202.623 1046.52 201.933 1047.05 200.953C1047.58 199.973 1048.04 198.654 1048.45 196.995C1048.85 195.32 1049.2 193.246 1049.51 190.774L1051.67 173.511L1081.41 176.124L1077.98 215.246L1067.64 214.337L1070.32 183.748L1060.67 182.9L1059.01 194.792C1058.57 198.055 1057.92 200.839 1057.07 203.143C1056.23 205.448 1055.19 207.307 1053.94 208.719C1052.68 210.115 1051.24 211.1 1049.6 211.675C1047.95 212.249 1046.09 212.445 1044 212.261L1040.74 211.975ZM1095.86 202.392L1112.13 178.821L1122.82 179.761L1119.39 218.883L1109.05 217.975L1111.23 193.09L1095.01 216.742L1084.24 215.796L1087.67 176.674L1098.04 177.584L1095.86 202.392ZM1157.69 222.248L1142.89 198.541L1139.12 198.209L1137.16 220.445L1126.14 219.476L1130.72 167.313L1141.75 168.282L1139.92 189.117L1142.13 189.311L1161.28 169.998L1175.01 171.204L1152.53 193.613L1171.37 223.45L1157.69 222.248ZM1203.89 202.231L1203.14 210.763L1182.71 208.969L1183.46 200.436L1203.89 202.231ZM1188.36 185.518L1184.93 224.64L1174.56 223.73L1178 184.608L1188.36 185.518ZM1212.03 187.597L1208.59 226.719L1198.3 225.815L1201.74 186.693L1212.03 187.597ZM1226.48 213.866L1242.74 190.295L1253.44 191.235L1250 230.357L1239.66 229.448L1241.85 204.564L1225.63 228.216L1214.86 227.269L1218.29 188.147L1228.66 189.058L1226.48 213.866ZM1286.78 194.163L1286.03 202.696L1269.78 201.268L1267.1 231.858L1256.55 230.932L1259.99 191.81L1286.78 194.163ZM1299.43 220.274L1315.7 196.703L1326.4 197.643L1322.96 236.765L1312.62 235.857L1314.8 210.972L1298.58 234.624L1287.81 233.678L1291.25 194.555L1301.61 195.466L1299.43 220.274ZM1329.71 237.358L1334.29 185.195L1345.32 186.164L1343.43 207.686L1365.82 209.653L1367.71 188.13L1378.71 189.097L1374.13 241.26L1363.13 240.293L1365.02 218.746L1342.63 216.779L1340.74 238.327L1329.71 237.358ZM1398.63 244.182C1394.6 243.828 1391.21 242.709 1388.45 240.824C1385.71 238.923 1383.69 236.402 1382.39 233.259C1381.09 230.099 1380.63 226.456 1380.99 222.33C1381.34 218.306 1382.43 214.843 1384.26 211.94C1386.09 209.038 1388.5 206.863 1391.48 205.414C1394.49 203.966 1397.91 203.411 1401.74 203.748C1404.32 203.975 1406.69 204.602 1408.84 205.629C1411.01 206.641 1412.86 208.044 1414.38 209.837C1415.91 211.632 1417.04 213.818 1417.75 216.396C1418.47 218.958 1418.68 221.902 1418.39 225.23L1418.13 228.21L1385.09 225.308L1385.68 218.584L1408.5 220.589C1408.64 219.027 1408.42 217.613 1407.85 216.348C1407.28 215.083 1406.42 214.057 1405.27 213.272C1404.14 212.472 1402.79 212.002 1401.21 211.863C1399.56 211.719 1398.07 211.972 1396.73 212.625C1395.41 213.261 1394.33 214.185 1393.51 215.396C1392.68 216.59 1392.2 217.959 1392.04 219.502L1391.48 225.895C1391.31 227.831 1391.52 229.535 1392.11 231.007C1392.72 232.481 1393.65 233.657 1394.91 234.538C1396.16 235.418 1397.7 235.938 1399.52 236.098C1400.72 236.204 1401.84 236.131 1402.87 235.879C1403.91 235.628 1404.81 235.194 1405.58 234.577C1406.35 233.961 1406.97 233.176 1407.43 232.224L1417.41 233.768C1416.69 236.134 1415.46 238.148 1413.72 239.809C1412 241.455 1409.86 242.67 1407.29 243.454C1404.74 244.223 1401.85 244.465 1398.63 244.182ZM1417.52 256.621L1419.28 236.551L1422.29 236.815C1423.2 236.347 1423.97 235.543 1424.6 234.4C1425.25 233.259 1425.81 231.897 1426.3 230.314C1426.79 228.732 1427.22 227.016 1427.57 225.164C1427.94 223.297 1428.28 221.411 1428.61 219.506L1430.75 206.809L1460.75 209.445L1458.07 239.958L1464.13 240.491L1462.37 260.561L1452.03 259.653L1453.04 248.191L1429.12 246.09L1428.11 257.552L1417.52 256.621ZM1433.09 237.763L1447.83 239.059L1449.78 216.9L1439.23 215.973L1438.44 220.369C1437.78 224.521 1437.05 228.033 1436.25 230.906C1435.46 233.762 1434.4 236.048 1433.09 237.763ZM1485.31 251.796C1481.29 251.443 1477.89 250.323 1475.13 248.438C1472.39 246.537 1470.37 244.016 1469.07 240.873C1467.78 237.713 1467.31 234.07 1467.67 229.944C1468.03 225.92 1469.12 222.457 1470.95 219.555C1472.77 216.652 1475.18 214.477 1478.17 213.028C1481.17 211.58 1484.59 211.025 1488.43 211.362C1491.01 211.589 1493.37 212.216 1495.52 213.244C1497.69 214.256 1499.54 215.658 1501.06 217.451C1502.59 219.246 1503.72 221.432 1504.43 224.011C1505.15 226.572 1505.36 229.516 1505.07 232.844L1504.81 235.824L1471.77 232.923L1472.36 226.199L1495.19 228.203C1495.32 226.641 1495.1 225.227 1494.53 223.962C1493.96 222.697 1493.1 221.672 1491.95 220.887C1490.82 220.086 1489.47 219.616 1487.89 219.478C1486.25 219.333 1484.75 219.587 1483.41 220.239C1482.09 220.876 1481.01 221.799 1480.19 223.01C1479.37 224.204 1478.88 225.573 1478.73 227.117L1478.16 233.51C1477.99 235.445 1478.2 237.149 1478.79 238.621C1479.4 240.095 1480.33 241.272 1481.59 242.152C1482.85 243.033 1484.38 243.553 1486.2 243.712C1487.41 243.818 1488.52 243.745 1489.56 243.494C1490.59 243.242 1491.49 242.808 1492.26 242.191C1493.04 241.575 1493.65 240.791 1494.11 239.839L1504.09 241.382C1503.37 243.749 1502.14 245.762 1500.4 247.424C1498.68 249.069 1496.54 250.284 1493.97 251.068C1491.42 251.837 1488.54 252.079 1485.31 251.796ZM1505.97 252.841L1506.68 244.227L1507.97 244.342C1508.89 244.422 1509.7 244.271 1510.4 243.887C1511.12 243.489 1511.75 242.799 1512.28 241.819C1512.81 240.839 1513.27 239.52 1513.68 237.861C1514.08 236.186 1514.43 234.112 1514.74 231.64L1516.9 214.377L1546.64 216.99L1543.21 256.112L1532.87 255.203L1535.55 224.614L1525.9 223.766L1524.24 235.658C1523.8 238.921 1523.15 241.705 1522.3 244.009C1521.46 246.314 1520.42 248.173 1519.17 249.585C1517.91 250.981 1516.47 251.966 1514.83 252.541C1513.18 253.115 1511.32 253.311 1509.23 253.127L1505.97 252.841ZM1561.09 243.258L1577.36 219.687L1588.05 220.627L1584.62 259.749L1574.28 258.841L1576.46 233.956L1560.24 257.608L1549.47 256.662L1552.9 217.54L1563.27 218.45L1561.09 243.258ZM1622.92 263.114L1608.12 239.407L1604.35 239.075L1602.39 261.311L1591.37 260.342L1595.95 208.179L1606.98 209.148L1605.15 229.983L1607.36 230.177L1626.51 210.864L1640.24 212.07L1617.76 234.479L1636.6 264.315L1622.92 263.114ZM1669.12 243.096L1668.37 251.629L1647.94 249.835L1648.69 241.302L1669.12 243.096ZM1653.59 226.384L1650.16 265.506L1639.79 264.596L1643.23 225.474L1653.59 226.384ZM1677.26 228.463L1673.82 267.585L1663.53 266.681L1666.97 227.559L1677.26 228.463ZM1691.71 254.732L1707.97 231.161L1718.67 232.101L1715.23 271.223L1704.89 270.314L1707.08 245.43L1690.86 269.082L1680.09 268.135L1683.52 229.013L1693.89 229.924L1691.71 254.732ZM1752.01 235.029L1751.26 243.562L1735.01 242.134L1732.33 272.724L1721.78 271.798L1725.22 232.676L1752.01 235.029ZM1764.66 261.14L1780.93 237.569L1791.63 238.509L1788.19 277.631L1777.85 276.723L1780.03 251.838L1763.81 275.49L1753.04 274.544L1756.48 235.421L1766.84 236.332L1764.66 261.14ZM1794.94 278.224L1799.52 226.061L1810.55 227.03L1808.66 248.552L1831.05 250.519L1832.94 228.996L1843.94 229.963L1839.36 282.126L1828.36 281.159L1830.25 259.612L1807.86 257.645L1805.97 279.193L1794.94 278.224ZM1863.86 285.048C1859.83 284.694 1856.44 283.575 1853.68 281.69C1850.94 279.789 1848.92 277.268 1847.62 274.125C1846.32 270.965 1845.86 267.322 1846.22 263.196C1846.57 259.172 1847.66 255.709 1849.49 252.806C1851.32 249.904 1853.73 247.729 1856.71 246.28C1859.72 244.832 1863.14 244.277 1866.97 244.614C1869.55 244.841 1871.92 245.468 1874.07 246.495C1876.24 247.507 1878.09 248.91 1879.61 250.703C1881.14 252.498 1882.27 254.684 1882.98 257.262C1883.7 259.824 1883.91 262.768 1883.62 266.096L1883.36 269.076L1850.32 266.174L1850.91 259.45L1873.73 261.455C1873.87 259.893 1873.65 258.479 1873.08 257.214C1872.51 255.949 1871.65 254.923 1870.5 254.138C1869.37 253.338 1868.02 252.868 1866.44 252.729C1864.79 252.585 1863.3 252.838 1861.96 253.491C1860.64 254.127 1859.56 255.051 1858.74 256.262C1857.91 257.456 1857.43 258.825 1857.27 260.368L1856.71 266.761C1856.54 268.697 1856.75 270.401 1857.34 271.873C1857.95 273.347 1858.88 274.523 1860.14 275.404C1861.39 276.284 1862.93 276.804 1864.75 276.964C1865.95 277.07 1867.07 276.997 1868.1 276.745C1869.14 276.494 1870.04 276.06 1870.81 275.443C1871.58 274.827 1872.2 274.042 1872.66 273.09L1882.64 274.634C1881.92 277 1880.69 279.014 1878.95 280.675C1877.23 282.321 1875.09 283.536 1872.52 284.32C1869.97 285.089 1867.08 285.331 1863.86 285.048ZM1882.75 297.487L1884.51 277.417L1887.52 277.681C1888.43 277.213 1889.2 276.408 1889.83 275.266C1890.48 274.125 1891.04 272.763 1891.53 271.18C1892.02 269.598 1892.45 267.882 1892.8 266.03C1893.17 264.163 1893.51 262.277 1893.84 260.372L1895.98 247.675L1925.98 250.311L1923.3 280.824L1929.36 281.356L1927.6 301.427L1917.26 300.519L1918.27 289.057L1894.35 286.956L1893.34 298.418L1882.75 297.487ZM1898.32 278.629L1913.06 279.925L1915.01 257.766L1904.46 256.839L1903.67 261.235C1903.01 265.387 1902.28 268.899 1901.48 271.772C1900.69 274.628 1899.63 276.914 1898.32 278.629ZM1950.54 292.662C1946.52 292.309 1943.12 291.189 1940.36 289.304C1937.62 287.403 1935.6 284.882 1934.3 281.739C1933.01 278.579 1932.54 274.936 1932.9 270.81C1933.25 266.786 1934.35 263.323 1936.18 260.421C1938 257.518 1940.41 255.343 1943.4 253.894C1946.4 252.446 1949.82 251.891 1953.66 252.228C1956.24 252.455 1958.6 253.082 1960.75 254.11C1962.92 255.121 1964.77 256.524 1966.29 258.317C1967.82 260.112 1968.95 262.298 1969.66 264.877C1970.38 267.438 1970.59 270.382 1970.3 273.71L1970.04 276.69L1937 273.789L1937.59 267.065L1960.41 269.069C1960.55 267.507 1960.33 266.093 1959.76 264.828C1959.19 263.563 1958.33 262.538 1957.18 261.752C1956.05 260.952 1954.7 260.482 1953.12 260.344C1951.48 260.199 1949.98 260.453 1948.64 261.105C1947.32 261.742 1946.24 262.665 1945.42 263.876C1944.6 265.07 1944.11 266.439 1943.96 267.983L1943.39 274.376C1943.22 276.311 1943.43 278.015 1944.02 279.487C1944.63 280.961 1945.56 282.138 1946.82 283.018C1948.08 283.899 1949.61 284.419 1951.43 284.578C1952.64 284.684 1953.75 284.611 1954.79 284.36C1955.82 284.108 1956.72 283.674 1957.49 283.057C1958.27 282.441 1958.88 281.657 1959.34 280.704L1969.32 282.248C1968.6 284.615 1967.37 286.628 1965.63 288.29C1963.91 289.935 1961.77 291.15 1959.2 291.934C1956.65 292.703 1953.77 292.945 1950.54 292.662ZM1971.2 293.707L1971.91 285.093L1973.2 285.208C1974.12 285.288 1974.93 285.137 1975.63 284.753C1976.35 284.355 1976.98 283.665 1977.51 282.685C1978.04 281.705 1978.5 280.386 1978.91 278.727C1979.31 277.052 1979.66 274.978 1979.97 272.506L1982.12 255.242L2011.87 257.856L2008.44 296.978L1998.1 296.069L2000.78 265.48L1991.13 264.632L1989.47 276.524C1989.03 279.787 1988.38 282.571 1987.53 284.875C1986.69 287.18 1985.65 289.039 1984.4 290.451C1983.14 291.847 1981.7 292.832 1980.06 293.407C1978.41 293.981 1976.55 294.177 1974.46 293.993L1971.2 293.707ZM2026.32 284.124L2042.59 260.553L2053.28 261.493L2049.85 300.615L2039.51 299.707L2041.69 274.822L2025.47 298.474L2014.7 297.528L2018.13 258.406L2028.5 259.316L2026.32 284.124ZM2088.15 303.98L2073.35 280.272L2069.58 279.941L2067.62 302.177L2056.6 301.208L2061.18 249.045L2072.21 250.014L2070.38 270.849L2072.59 271.043L2091.74 251.73L2105.47 252.936L2082.99 275.345L2101.83 305.181L2088.15 303.98ZM2134.35 283.962L2133.6 292.495L2113.17 290.701L2113.92 282.168L2134.35 283.962ZM2118.82 267.25L2115.39 306.372L2105.02 305.462L2108.46 266.34L2118.82 267.25ZM2142.49 269.329L2139.05 308.451L2128.76 307.547L2132.2 268.425L2142.49 269.329ZM2156.94 295.598L2173.2 272.027L2183.9 272.967L2180.46 312.089L2170.12 311.18L2172.31 286.296L2156.09 309.948L2145.32 309.001L2148.75 269.879L2159.12 270.79L2156.94 295.598ZM2217.24 275.895L2216.49 284.428L2200.24 283L2197.56 313.59L2187.01 312.664L2190.45 273.542L2217.24 275.895ZM2229.89 302.006L2246.16 278.435L2256.85 279.375L2253.42 318.497L2243.08 317.589L2245.26 292.704L2229.04 316.356L2218.27 315.41L2221.71 276.287L2232.07 277.198L2229.89 302.006ZM2260.17 319.09L2264.75 266.927L2275.78 267.896L2273.89 289.418L2296.28 291.385L2298.17 269.862L2309.17 270.829L2304.59 322.992L2293.59 322.025L2295.48 300.478L2273.09 298.511L2271.2 320.059L2260.17 319.09ZM2329.09 325.914C2325.06 325.56 2321.67 324.441 2318.91 322.556C2316.17 320.655 2314.15 318.134 2312.85 314.991C2311.55 311.831 2311.09 308.188 2311.45 304.062C2311.8 300.038 2312.89 296.575 2314.72 293.672C2316.55 290.77 2318.96 288.595 2321.94 287.146C2324.95 285.698 2328.37 285.143 2332.2 285.48C2334.78 285.707 2337.15 286.334 2339.3 287.361C2341.47 288.373 2343.32 289.776 2344.84 291.569C2346.37 293.364 2347.5 295.55 2348.21 298.128C2348.93 300.689 2349.14 303.634 2348.85 306.962L2348.59 309.942L2315.55 307.04L2316.14 300.316L2338.96 302.321C2339.1 300.759 2338.88 299.345 2338.31 298.08C2337.74 296.815 2336.88 295.789 2335.73 295.004C2334.6 294.204 2333.25 293.734 2331.67 293.595C2330.02 293.451 2328.53 293.704 2327.19 294.357C2325.87 294.993 2324.79 295.917 2323.97 297.128C2323.14 298.322 2322.66 299.691 2322.5 301.234L2321.94 307.627C2321.77 309.563 2321.98 311.267 2322.57 312.739C2323.18 314.212 2324.11 315.389 2325.37 316.27C2326.62 317.15 2328.16 317.67 2329.98 317.83C2331.18 317.936 2332.3 317.863 2333.33 317.611C2334.36 317.36 2335.27 316.926 2336.04 316.309C2336.81 315.693 2337.43 314.908 2337.89 313.956L2347.87 315.5C2347.15 317.866 2345.92 319.88 2344.18 321.541C2342.46 323.187 2340.32 324.402 2337.75 325.186C2335.2 325.955 2332.31 326.197 2329.09 325.914ZM2347.98 338.353L2349.74 318.283L2352.75 318.547C2353.66 318.079 2354.43 317.274 2355.06 316.132C2355.71 314.991 2356.27 313.629 2356.76 312.046C2357.25 310.464 2357.68 308.747 2358.03 306.896C2358.4 305.029 2358.74 303.143 2359.07 301.238L2361.21 288.541L2391.21 291.177L2388.53 321.69L2394.59 322.222L2392.83 342.293L2382.49 341.385L2383.5 329.923L2359.58 327.822L2358.57 339.284L2347.98 338.353ZM2363.54 319.495L2378.29 320.791L2380.24 298.632L2369.69 297.705L2368.9 302.101C2368.24 306.253 2367.51 309.765 2366.71 312.638C2365.92 315.494 2364.86 317.78 2363.54 319.495ZM2415.77 333.528C2411.75 333.174 2408.35 332.055 2405.59 330.17C2402.85 328.269 2400.83 325.748 2399.53 322.605C2398.24 319.445 2397.77 315.802 2398.13 311.676C2398.48 307.652 2399.58 304.189 2401.41 301.287C2403.23 298.384 2405.64 296.209 2408.63 294.76C2411.63 293.312 2415.05 292.757 2418.89 293.094C2421.47 293.321 2423.83 293.948 2425.98 294.976C2428.15 295.987 2430 297.39 2431.52 299.183C2433.05 300.978 2434.18 303.164 2434.89 305.743C2435.61 308.304 2435.82 311.248 2435.53 314.576L2435.27 317.556L2402.23 314.655L2402.82 307.93L2425.64 309.935C2425.78 308.373 2425.56 306.959 2424.99 305.694C2424.42 304.429 2423.56 303.404 2422.41 302.618C2421.28 301.818 2419.93 301.348 2418.35 301.21C2416.7 301.065 2415.21 301.319 2413.87 301.971C2412.55 302.608 2411.47 303.531 2410.65 304.742C2409.83 305.936 2409.34 307.305 2409.19 308.849L2408.62 315.242C2408.45 317.177 2408.66 318.881 2409.25 320.353C2409.86 321.827 2410.79 323.004 2412.05 323.884C2413.31 324.765 2414.84 325.285 2416.66 325.444C2417.87 325.55 2418.98 325.477 2420.02 325.226C2421.05 324.974 2421.95 324.54 2422.72 323.923C2423.49 323.307 2424.11 322.523 2424.57 321.57L2434.55 323.114C2433.83 325.481 2432.6 327.494 2430.86 329.156C2429.14 330.801 2427 332.016 2424.43 332.8C2421.88 333.569 2419 333.811 2415.77 333.528ZM-747.536 141.223L-746.831 132.61L-745.532 132.724C-744.615 132.804 -743.806 132.653 -743.105 132.27C-742.385 131.871 -741.76 131.181 -741.229 130.201C-740.698 129.221 -740.232 127.902 -739.829 126.243C-739.425 124.568 -739.072 122.494 -738.769 120.022L-736.611 102.759L-706.862 105.372L-710.299 144.494L-720.64 143.586L-717.953 112.996L-727.606 112.148L-729.266 124.04C-729.707 127.304 -730.354 130.087 -731.206 132.391C-732.042 134.696 -733.086 136.555 -734.34 137.968C-735.592 139.363 -737.039 140.348 -738.68 140.923C-740.322 141.497 -742.187 141.693 -744.276 141.509L-747.536 141.223ZM-672.278 147.834L-687.084 124.126L-690.853 123.795L-692.807 146.03L-703.835 145.062L-699.253 92.899L-688.225 93.8677L-690.055 114.702L-687.839 114.897L-668.689 95.5837L-654.961 96.7896L-677.437 119.199L-658.6 149.035L-672.278 147.834ZM-626.083 127.816L-626.833 136.349L-647.26 134.554L-646.511 126.022L-626.083 127.816ZM-641.607 111.104L-645.043 150.226L-655.41 149.315L-651.973 110.193L-641.607 111.104ZM-617.945 113.182L-621.382 152.304L-631.671 151.401L-628.235 112.279L-617.945 113.182ZM-583.354 155.645L-598.16 131.937L-601.93 131.606L-603.883 153.842L-614.912 152.873L-610.33 100.71L-599.301 101.679L-601.131 122.513L-598.915 122.708L-579.766 103.395L-566.037 104.601L-588.513 127.01L-569.677 156.846L-583.354 155.645ZM-537.16 135.627L-537.909 144.16L-558.336 142.365L-557.587 133.833L-537.16 135.627ZM-552.683 118.915L-556.12 158.037L-566.486 157.127L-563.05 118.004L-552.683 118.915ZM-529.022 120.993L-532.458 160.116L-542.748 159.212L-539.311 120.09L-529.022 120.993ZM-514.568 147.262L-498.304 123.692L-487.607 124.631L-491.043 163.753L-501.384 162.845L-499.198 137.961L-515.418 161.612L-526.192 160.666L-522.755 121.544L-512.389 122.454L-514.568 147.262ZM-454.266 127.56L-455.015 136.093L-471.265 134.665L-473.952 165.255L-484.497 164.329L-481.06 125.206L-454.266 127.56ZM-441.614 153.671L-425.35 130.1L-414.653 131.04L-418.089 170.162L-428.43 169.253L-426.244 144.369L-442.464 168.021L-453.238 167.074L-449.802 127.952L-439.435 128.863L-441.614 153.671ZM-411.339 170.755L-406.757 118.592L-395.729 119.561L-397.619 141.083L-375.231 143.05L-373.34 121.527L-362.337 122.494L-366.919 174.657L-377.922 173.69L-376.03 152.142L-398.418 150.176L-400.311 171.723L-411.339 170.755ZM-342.42 177.579C-346.444 177.225 -349.837 176.106 -352.597 174.221C-355.339 172.32 -357.359 169.798 -358.657 166.656C-359.954 163.496 -360.421 159.853 -360.059 155.727C-359.705 151.703 -358.614 148.239 -356.785 145.337C-354.955 142.435 -352.548 140.259 -349.564 138.81C-346.562 137.363 -343.142 136.808 -339.305 137.145C-336.724 137.372 -334.358 137.999 -332.206 139.026C-330.037 140.038 -328.192 141.441 -326.673 143.234C-325.136 145.029 -324.011 147.215 -323.296 149.793C-322.58 152.354 -322.368 155.299 -322.66 158.627L-322.922 161.607L-355.957 158.705L-355.366 151.981L-332.545 153.986C-332.408 152.424 -332.626 151.01 -333.199 149.745C-333.772 148.479 -334.632 147.454 -335.778 146.669C-336.905 145.868 -338.259 145.399 -339.838 145.26C-341.485 145.115 -342.979 145.369 -344.319 146.021C-345.642 146.658 -346.715 147.582 -347.54 148.793C-348.364 149.987 -348.852 151.356 -349.005 152.899L-349.566 159.292C-349.736 161.228 -349.526 162.932 -348.937 164.404C-348.331 165.877 -347.399 167.054 -346.142 167.935C-344.884 168.815 -343.347 169.335 -341.53 169.495C-340.325 169.601 -339.206 169.528 -338.174 169.276C-337.143 169.025 -336.241 168.591 -335.468 167.974C-334.695 167.357 -334.078 166.573 -333.618 165.621L-323.641 167.165C-324.363 169.531 -325.592 171.545 -327.329 173.206C-329.048 174.852 -331.191 176.067 -333.758 176.851C-336.306 177.619 -339.194 177.862 -342.42 177.579ZM-323.531 190.018L-321.768 169.947L-318.762 170.211C-317.849 169.744 -317.076 168.939 -316.446 167.797C-315.798 166.656 -315.233 165.294 -314.752 163.711C-314.254 162.129 -313.829 160.412 -313.478 158.561C-313.109 156.694 -312.764 154.808 -312.442 152.903L-310.3 140.206L-280.297 142.842L-282.977 173.355L-276.915 173.887L-278.678 193.958L-289.019 193.049L-288.012 181.588L-311.928 179.487L-312.935 190.949L-323.531 190.018ZM-307.963 171.16L-293.216 172.455L-291.269 150.296L-301.814 149.37L-302.611 153.766C-303.266 157.918 -303.994 161.43 -304.794 164.303C-305.592 167.159 -306.649 169.445 -307.963 171.16ZM-255.738 185.193C-259.762 184.839 -263.155 183.72 -265.915 181.835C-268.657 179.934 -270.677 177.413 -271.975 174.27C-273.272 171.11 -273.739 167.467 -273.376 163.341C-273.023 159.317 -271.932 155.854 -270.102 152.951C-268.273 150.049 -265.866 147.874 -262.882 146.425C-259.88 144.977 -256.46 144.422 -252.623 144.759C-250.042 144.986 -247.675 145.613 -245.524 146.64C-243.354 147.652 -241.51 149.055 -239.99 150.848C-238.454 152.643 -237.329 154.829 -236.614 157.407C-235.898 159.968 -235.686 162.913 -235.978 166.241L-236.24 169.221L-269.275 166.319L-268.684 159.595L-245.863 161.6C-245.726 160.038 -245.944 158.624 -246.517 157.359C-247.09 156.094 -247.95 155.068 -249.096 154.283C-250.223 153.483 -251.577 153.013 -253.156 152.874C-254.803 152.73 -256.297 152.983 -257.637 153.636C-258.959 154.272 -260.033 155.196 -260.858 156.407C-261.682 157.601 -262.17 158.97 -262.322 160.513L-262.884 166.906C-263.054 168.842 -262.844 170.546 -262.255 172.018C-261.649 173.491 -260.717 174.668 -259.459 175.549C-258.202 176.429 -256.665 176.949 -254.848 177.109C-253.643 177.215 -252.524 177.142 -251.492 176.89C-250.461 176.639 -249.558 176.205 -248.786 175.588C-248.013 174.972 -247.396 174.187 -246.936 173.235L-236.959 174.779C-237.68 177.145 -238.91 179.159 -240.647 180.82C-242.366 182.466 -244.509 183.681 -247.076 184.465C-249.624 185.234 -252.512 185.476 -255.738 185.193ZM-235.078 186.238L-234.372 177.624L-233.073 177.738C-232.157 177.819 -231.348 177.667 -230.647 177.284C-229.927 176.885 -229.302 176.196 -228.771 175.216C-228.24 174.236 -227.773 172.917 -227.371 171.258C-226.967 169.582 -226.614 167.509 -226.311 165.037L-224.153 147.773L-194.404 150.386L-197.84 189.509L-208.181 188.6L-205.494 158.011L-215.147 157.163L-216.808 169.054C-217.249 172.318 -217.895 175.102 -218.748 177.405C-219.583 179.71 -220.628 181.569 -221.881 182.982C-223.133 184.378 -224.58 185.363 -226.222 185.937C-227.864 186.512 -229.729 186.707 -231.818 186.524L-235.078 186.238ZM-179.957 176.655L-163.693 153.084L-152.995 154.024L-156.432 193.146L-166.773 192.238L-164.587 167.353L-180.807 191.005L-191.581 190.058L-188.144 150.936L-177.778 151.847L-179.957 176.655ZM-118.124 196.511L-132.93 172.803L-136.7 172.472L-138.653 194.708L-149.682 193.739L-145.1 141.576L-134.071 142.545L-135.901 163.379L-133.685 163.574L-114.536 144.261L-100.807 145.467L-123.283 167.876L-104.447 197.712L-118.124 196.511ZM-71.9301 176.493L-72.6796 185.026L-93.1066 183.231L-92.3572 174.699L-71.9301 176.493ZM-87.4534 159.781L-90.8899 198.903L-101.256 197.993L-97.8198 158.87L-87.4534 159.781ZM-63.7917 161.859L-67.2282 200.982L-77.5181 200.078L-74.0816 160.956L-63.7917 161.859ZM-49.3383 188.128L-33.0742 164.558L-22.3768 165.497L-25.8133 204.619L-36.1541 203.711L-33.9683 178.827L-50.1882 202.478L-60.962 201.532L-57.5255 162.41L-47.1592 163.32L-49.3383 188.128ZM10.9641 168.426L10.2146 176.959L-6.03535 175.531L-8.72235 206.121L-19.267 205.194L-15.8305 166.072L10.9641 168.426ZM23.6154 194.537L39.8796 170.966L50.577 171.906L47.1405 211.028L36.7996 210.119L38.9855 185.235L22.7656 208.887L11.9918 207.94L15.4283 168.818L25.7946 169.729L23.6154 194.537ZM53.8906 211.621L58.4726 159.458L69.5012 160.427L67.6106 181.949L89.9989 183.915L91.8894 162.393L102.892 163.36L98.3105 215.523L87.3074 214.556L89.2002 193.008L66.8119 191.042L64.9192 212.589L53.8906 211.621ZM122.81 218.445C118.785 218.091 115.393 216.972 112.633 215.087C109.891 213.186 107.871 210.664 106.573 207.522C105.276 204.362 104.809 200.719 105.171 196.593C105.525 192.569 106.616 189.105 108.445 186.203C110.274 183.301 112.681 181.125 115.666 179.676C118.668 178.229 122.088 177.674 125.925 178.011C128.506 178.238 130.872 178.865 133.024 179.892C135.193 180.904 137.038 182.307 138.557 184.1C140.094 185.895 141.219 188.081 141.934 190.659C142.65 193.22 142.862 196.165 142.569 199.493L142.308 202.473L109.273 199.571L109.864 192.847L132.685 194.852C132.822 193.29 132.604 191.876 132.031 190.611C131.457 189.345 130.598 188.32 129.452 187.535C128.324 186.734 126.971 186.265 125.392 186.126C123.745 185.981 122.251 186.235 120.91 186.887C119.588 187.524 118.515 188.448 117.69 189.659C116.866 190.853 116.378 192.222 116.225 193.765L115.664 200.158C115.494 202.094 115.703 203.798 116.293 205.27C116.899 206.743 117.831 207.92 119.088 208.801C120.346 209.681 121.883 210.201 123.7 210.361C124.905 210.467 126.024 210.394 127.055 210.142C128.087 209.891 128.989 209.457 129.762 208.84C130.535 208.223 131.151 207.439 131.611 206.487L141.588 208.031C140.867 210.397 139.638 212.411 137.901 214.072C136.182 215.718 134.039 216.933 131.472 217.717C128.923 218.485 126.036 218.728 122.81 218.445ZM141.699 230.884L143.462 210.813L146.468 211.077C147.381 210.61 148.154 209.805 148.784 208.663C149.432 207.522 149.997 206.16 150.478 204.577C150.976 202.995 151.401 201.278 151.752 199.427C152.121 197.56 152.466 195.674 152.788 193.769L154.93 181.072L184.933 183.708L182.253 214.221L188.315 214.753L186.552 234.824L176.211 233.915L177.218 222.454L153.301 220.353L152.295 231.815L141.699 230.884ZM157.267 212.026L172.014 213.321L173.961 191.162L163.416 190.236L162.619 194.632C161.964 198.784 161.236 202.296 160.436 205.169C159.637 208.025 158.581 210.311 157.267 212.026ZM209.492 226.059C205.468 225.705 202.075 224.586 199.315 222.701C196.573 220.8 194.553 218.279 193.255 215.136C191.958 211.976 191.491 208.333 191.853 204.207C192.207 200.183 193.298 196.72 195.127 193.817C196.957 190.915 199.364 188.74 202.348 187.291C205.35 185.843 208.77 185.288 212.607 185.625C215.188 185.852 217.554 186.479 219.706 187.506C221.875 188.518 223.72 189.921 225.239 191.714C226.776 193.509 227.901 195.695 228.616 198.273C229.332 200.834 229.544 203.779 229.252 207.107L228.99 210.087L195.955 207.185L196.546 200.461L219.367 202.466C219.504 200.904 219.286 199.49 218.713 198.225C218.14 196.96 217.28 195.934 216.134 195.149C215.007 194.349 213.653 193.879 212.074 193.74C210.427 193.596 208.933 193.849 207.593 194.502C206.27 195.138 205.197 196.062 204.372 197.273C203.548 198.467 203.06 199.836 202.907 201.379L202.346 207.772C202.176 209.708 202.385 211.412 202.975 212.884C203.581 214.357 204.513 215.534 205.77 216.415C207.028 217.295 208.565 217.815 210.382 217.975C211.587 218.081 212.706 218.008 213.738 217.756C214.769 217.505 215.671 217.071 216.444 216.454C217.217 215.838 217.834 215.053 218.294 214.101L228.271 215.645C227.549 218.011 226.32 220.025 224.583 221.686C222.864 223.332 220.721 224.547 218.154 225.331C215.606 226.1 212.718 226.342 209.492 226.059ZM230.152 227.104L230.857 218.49L232.156 218.604C233.073 218.685 233.882 218.533 234.583 218.15C235.303 217.751 235.928 217.062 236.459 216.082C236.99 215.102 237.457 213.783 237.859 212.124C238.263 210.448 238.616 208.375 238.919 205.903L241.077 188.639L270.826 191.252L267.389 230.375L257.049 229.466L259.736 198.877L250.082 198.029L248.422 209.92C247.981 213.184 247.335 215.968 246.482 218.271C245.646 220.576 244.602 222.435 243.348 223.848C242.096 225.244 240.65 226.229 239.008 226.803C237.366 227.378 235.501 227.573 233.412 227.39L230.152 227.104ZM285.273 217.521L301.537 193.95L312.234 194.89L308.798 234.012L298.457 233.104L300.643 208.219L284.423 231.871L273.649 230.924L277.086 191.802L287.452 192.713L285.273 217.521ZM347.106 237.377L332.299 213.669L328.53 213.338L326.577 235.574L315.548 234.605L320.13 182.442L331.159 183.411L329.329 204.245L331.544 204.44L350.694 185.127L364.423 186.333L341.947 208.742L360.783 238.578L347.106 237.377ZM393.3 217.359L392.55 225.892L372.123 224.097L372.873 215.565L393.3 217.359ZM377.776 200.647L374.34 239.769L363.974 238.859L367.41 199.736L377.776 200.647ZM401.438 202.725L398.002 241.848L387.712 240.944L391.148 201.822L401.438 202.725ZM415.892 228.994L432.156 205.424L442.853 206.363L439.417 245.485L429.076 244.577L431.262 219.693L415.042 243.344L404.268 242.398L407.704 203.276L418.071 204.186L415.892 228.994ZM476.194 209.292L475.444 217.825L459.195 216.397L456.508 246.987L445.963 246.06L449.399 206.938L476.194 209.292ZM488.845 235.403L505.109 211.832L515.807 212.772L512.37 251.894L502.029 250.985L504.215 226.101L487.995 249.753L477.222 248.806L480.658 209.684L491.024 210.595L488.845 235.403ZM519.12 252.487L523.702 200.324L534.731 201.293L532.84 222.815L555.229 224.781L557.119 203.259L568.122 204.226L563.54 256.389L552.537 255.422L554.43 233.874L532.042 231.908L530.149 253.455L519.12 252.487ZM588.04 259.311C584.015 258.957 580.623 257.838 577.863 255.953C575.121 254.052 573.101 251.53 571.802 248.388C570.506 245.228 570.039 241.585 570.401 237.459C570.755 233.435 571.846 229.971 573.675 227.069C575.504 224.167 577.911 221.991 580.896 220.542C583.898 219.095 587.318 218.54 591.155 218.877C593.736 219.104 596.102 219.731 598.253 220.758C600.423 221.77 602.268 223.173 603.787 224.966C605.324 226.761 606.449 228.947 607.164 231.525C607.88 234.086 608.092 237.031 607.799 240.359L607.538 243.339L574.503 240.437L575.094 233.713L597.915 235.718C598.052 234.156 597.834 232.742 597.261 231.477C596.687 230.211 595.828 229.186 594.682 228.401C593.554 227.6 592.201 227.131 590.622 226.992C588.975 226.847 587.481 227.101 586.14 227.753C584.818 228.39 583.745 229.314 582.92 230.525C582.096 231.719 581.608 233.088 581.455 234.631L580.894 241.024C580.724 242.96 580.933 244.664 581.523 246.136C582.129 247.609 583.061 248.786 584.318 249.667C585.575 250.547 587.113 251.067 588.929 251.227C590.135 251.333 591.254 251.26 592.285 251.008C593.317 250.757 594.219 250.322 594.992 249.706C595.765 249.089 596.381 248.305 596.841 247.353L606.818 248.897C606.097 251.263 604.868 253.277 603.131 254.938C601.412 256.584 599.269 257.799 596.702 258.583C594.153 259.351 591.266 259.594 588.04 259.311ZM606.929 271.75L608.692 251.679L611.697 251.943C612.611 251.476 613.383 250.671 614.014 249.529C614.662 248.388 615.226 247.026 615.708 245.443C616.206 243.861 616.631 242.144 616.981 240.293C617.351 238.426 617.696 236.54 618.017 234.635L620.159 221.938L650.163 224.574L647.483 255.087L653.545 255.619L651.782 275.69L641.441 274.781L642.448 263.32L618.531 261.219L617.525 272.681L606.929 271.75ZM622.497 252.892L637.244 254.187L639.19 232.028L628.646 231.102L627.849 235.498C627.193 239.65 626.466 243.162 625.666 246.035C624.867 248.891 623.811 251.177 622.497 252.892ZM674.722 266.925C670.697 266.571 667.305 265.452 664.545 263.567C661.803 261.666 659.783 259.145 658.485 256.002C657.188 252.842 656.721 249.199 657.083 245.073C657.437 241.049 658.528 237.586 660.357 234.683C662.186 231.781 664.593 229.606 667.578 228.157C670.58 226.709 674 226.154 677.837 226.491C680.418 226.718 682.784 227.345 684.936 228.372C687.105 229.384 688.95 230.787 690.469 232.58C692.006 234.375 693.131 236.561 693.846 239.139C694.562 241.7 694.774 244.645 694.481 247.973L694.22 250.953L661.185 248.051L661.776 241.327L684.597 243.332C684.734 241.77 684.516 240.356 683.943 239.091C683.369 237.826 682.51 236.8 681.364 236.015C680.236 235.215 678.883 234.745 677.304 234.606C675.657 234.462 674.163 234.715 672.822 235.368C671.5 236.004 670.427 236.928 669.602 238.139C668.778 239.333 668.29 240.702 668.137 242.245L667.576 248.638C667.406 250.574 667.615 252.278 668.205 253.75C668.811 255.223 669.743 256.4 671 257.281C672.258 258.161 673.795 258.681 675.612 258.841C676.817 258.947 677.936 258.874 678.967 258.622C679.999 258.371 680.901 257.937 681.674 257.32C682.447 256.704 683.063 255.919 683.523 254.967L693.5 256.511C692.779 258.877 691.55 260.891 689.813 262.552C688.094 264.198 685.951 265.413 683.384 266.197C680.835 266.966 677.948 267.208 674.722 266.925ZM695.382 267.97L696.087 259.356L697.386 259.47C698.303 259.551 699.112 259.399 699.813 259.016C700.533 258.617 701.158 257.928 701.689 256.948C702.22 255.968 702.686 254.649 703.089 252.99C703.493 251.314 703.846 249.241 704.149 246.769L706.307 229.505L736.056 232.118L732.619 271.24L722.278 270.332L724.965 239.743L715.312 238.895L713.652 250.786C713.211 254.05 712.564 256.834 711.712 259.137C710.876 261.442 709.832 263.301 708.578 264.714C707.326 266.11 705.879 267.095 704.238 267.669C702.596 268.244 700.731 268.439 698.642 268.256L695.382 267.97ZM750.503 258.387L766.767 234.816L777.464 235.756L774.028 274.878L763.687 273.969L765.873 249.085L749.653 272.737L738.879 271.79L742.316 232.668L752.682 233.579L750.503 258.387ZM812.335 278.243L797.529 254.535L793.76 254.204L791.806 276.44L780.778 275.471L785.36 223.308L796.388 224.277L794.558 245.111L796.774 245.306L815.924 225.993L829.652 227.199L807.176 249.608L826.013 279.444L812.335 278.243ZM858.53 258.225L857.78 266.758L837.353 264.963L838.103 256.431L858.53 258.225ZM843.006 241.513L839.57 280.635L829.203 279.724L832.64 240.602L843.006 241.513ZM866.668 243.591L863.231 282.714L852.942 281.81L856.378 242.688L866.668 243.591ZM881.121 269.86L897.386 246.29L908.083 247.229L904.646 286.351L894.306 285.443L896.491 260.559L880.272 284.21L869.498 283.264L872.934 244.142L883.301 245.052L881.121 269.86ZM941.424 250.158L940.674 258.691L924.424 257.263L921.737 287.853L911.193 286.926L914.629 247.804L941.424 250.158ZM954.075 276.269L970.339 252.698L981.037 253.638L977.6 292.76L967.259 291.851L969.445 266.967L953.225 290.619L942.451 289.672L945.888 250.55L956.254 251.461L954.075 276.269ZM984.35 293.353L988.932 241.19L999.961 242.159L998.07 263.681L1020.46 265.647L1022.35 244.125L1033.35 245.092L1028.77 297.255L1017.77 296.288L1019.66 274.74L997.272 272.774L995.379 294.321L984.35 293.353ZM1053.27 300.177C1049.25 299.823 1045.85 298.704 1043.09 296.819C1040.35 294.918 1038.33 292.396 1037.03 289.254C1035.74 286.094 1035.27 282.451 1035.63 278.325C1035.98 274.301 1037.08 270.837 1038.9 267.935C1040.73 265.033 1043.14 262.857 1046.13 261.408C1049.13 259.961 1052.55 259.406 1056.38 259.743C1058.97 259.97 1061.33 260.597 1063.48 261.624C1065.65 262.636 1067.5 264.039 1069.02 265.832C1070.55 267.627 1071.68 269.813 1072.39 272.391C1073.11 274.952 1073.32 277.897 1073.03 281.225L1072.77 284.205L1039.73 281.303L1040.32 274.579L1063.14 276.584C1063.28 275.022 1063.06 273.608 1062.49 272.343C1061.92 271.077 1061.06 270.052 1059.91 269.267C1058.78 268.466 1057.43 267.997 1055.85 267.858C1054.2 267.713 1052.71 267.967 1051.37 268.619C1050.05 269.256 1048.97 270.18 1048.15 271.391C1047.33 272.585 1046.84 273.953 1046.69 275.497L1046.12 281.89C1045.95 283.826 1046.16 285.53 1046.75 287.002C1047.36 288.475 1048.29 289.652 1049.55 290.533C1050.81 291.413 1052.34 291.933 1054.16 292.093C1055.36 292.199 1056.48 292.126 1057.52 291.874C1058.55 291.623 1059.45 291.188 1060.22 290.572C1060.99 289.955 1061.61 289.171 1062.07 288.219L1072.05 289.763C1071.33 292.129 1070.1 294.143 1068.36 295.804C1066.64 297.45 1064.5 298.665 1061.93 299.449C1059.38 300.217 1056.5 300.46 1053.27 300.177ZM1072.16 312.616L1073.92 292.545L1076.93 292.809C1077.84 292.342 1078.61 291.537 1079.24 290.395C1079.89 289.254 1080.46 287.892 1080.94 286.309C1081.44 284.727 1081.86 283.01 1082.21 281.159C1082.58 279.292 1082.93 277.406 1083.25 275.501L1085.39 262.804L1115.39 265.44L1112.71 295.953L1118.77 296.485L1117.01 316.556L1106.67 315.647L1107.68 304.186L1083.76 302.085L1082.75 313.546L1072.16 312.616ZM1087.73 293.758L1102.47 295.053L1104.42 272.894L1093.88 271.968L1093.08 276.364C1092.42 280.516 1091.7 284.028 1090.9 286.901C1090.1 289.757 1089.04 292.043 1087.73 293.758ZM1139.95 307.791C1135.93 307.437 1132.53 306.318 1129.77 304.433C1127.03 302.532 1125.01 300.01 1123.71 296.868C1122.42 293.708 1121.95 290.065 1122.31 285.939C1122.67 281.915 1123.76 278.452 1125.59 275.549C1127.42 272.647 1129.82 270.472 1132.81 269.023C1135.81 267.575 1139.23 267.02 1143.07 267.357C1145.65 267.584 1148.01 268.211 1150.17 269.238C1152.34 270.25 1154.18 271.653 1155.7 273.446C1157.24 275.241 1158.36 277.427 1159.08 280.005C1159.79 282.566 1160 285.511 1159.71 288.839L1159.45 291.819L1126.41 288.917L1127.01 282.193L1149.83 284.198C1149.96 282.636 1149.75 281.222 1149.17 279.957C1148.6 278.691 1147.74 277.666 1146.59 276.881C1145.47 276.081 1144.11 275.611 1142.53 275.472C1140.89 275.328 1139.39 275.581 1138.05 276.234C1136.73 276.87 1135.66 277.794 1134.83 279.005C1134.01 280.199 1133.52 281.568 1133.37 283.111L1132.81 289.504C1132.64 291.44 1132.85 293.144 1133.43 294.616C1134.04 296.089 1134.97 297.266 1136.23 298.147C1137.49 299.027 1139.02 299.547 1140.84 299.707C1142.05 299.813 1143.17 299.74 1144.2 299.488C1145.23 299.237 1146.13 298.803 1146.9 298.186C1147.68 297.57 1148.29 296.785 1148.75 295.833L1158.73 297.377C1158.01 299.743 1156.78 301.757 1155.04 303.418C1153.32 305.064 1151.18 306.279 1148.61 307.063C1146.07 307.832 1143.18 308.074 1139.95 307.791ZM1160.61 308.836L1161.32 300.222L1162.62 300.336C1163.53 300.417 1164.34 300.265 1165.04 299.882C1165.76 299.483 1166.39 298.794 1166.92 297.814C1167.45 296.834 1167.92 295.515 1168.32 293.856C1168.72 292.18 1169.08 290.107 1169.38 287.635L1171.54 270.371L1201.29 272.984L1197.85 312.106L1187.51 311.198L1190.2 280.609L1180.54 279.761L1178.88 291.652C1178.44 294.916 1177.79 297.7 1176.94 300.003C1176.11 302.308 1175.06 304.167 1173.81 305.58C1172.56 306.976 1171.11 307.961 1169.47 308.535C1167.83 309.11 1165.96 309.305 1163.87 309.122L1160.61 308.836ZM1215.73 299.253L1232 275.682L1242.69 276.622L1239.26 315.744L1228.92 314.835L1231.1 289.951L1214.88 313.603L1204.11 312.656L1207.55 273.534L1217.91 274.445L1215.73 299.253ZM1277.57 319.109L1262.76 295.401L1258.99 295.07L1257.04 317.306L1246.01 316.337L1250.59 264.174L1261.62 265.143L1259.79 285.977L1262 286.172L1281.15 266.859L1294.88 268.065L1272.41 290.474L1291.24 320.31L1277.57 319.109ZM1323.76 299.091L1323.01 307.624L1302.58 305.829L1303.33 297.297L1323.76 299.091ZM1308.24 282.379L1304.8 321.501L1294.43 320.59L1297.87 281.468L1308.24 282.379ZM1331.9 284.457L1328.46 323.58L1318.17 322.676L1321.61 283.554L1331.9 284.457ZM1346.35 310.726L1362.62 287.156L1373.31 288.095L1369.88 327.217L1359.54 326.309L1361.72 301.425L1345.5 325.076L1334.73 324.13L1338.16 285.008L1348.53 285.918L1346.35 310.726ZM1406.65 291.024L1405.9 299.556L1389.65 298.129L1386.97 328.719L1376.42 327.792L1379.86 288.67L1406.65 291.024ZM1419.31 317.135L1435.57 293.564L1446.27 294.504L1442.83 333.626L1432.49 332.717L1434.68 307.833L1418.46 331.485L1407.68 330.538L1411.12 291.416L1421.48 292.327L1419.31 317.135ZM1449.58 334.219L1454.16 282.056L1465.19 283.025L1463.3 304.547L1485.69 306.513L1487.58 284.991L1498.58 285.958L1494 338.12L1483 337.154L1484.89 315.606L1462.5 313.64L1460.61 335.187L1449.58 334.219ZM1518.5 341.043C1514.48 340.689 1511.08 339.57 1508.32 337.685C1505.58 335.784 1503.56 333.262 1502.26 330.12C1500.97 326.96 1500.5 323.317 1500.86 319.191C1501.21 315.167 1502.31 311.703 1504.13 308.801C1505.96 305.899 1508.37 303.723 1511.36 302.274C1514.36 300.827 1517.78 300.272 1521.61 300.609C1524.2 300.836 1526.56 301.463 1528.71 302.49C1530.88 303.502 1532.73 304.905 1534.25 306.698C1535.78 308.493 1536.91 310.679 1537.62 313.257C1538.34 315.818 1538.55 318.763 1538.26 322.091L1538 325.071L1504.96 322.169L1505.55 315.445L1528.37 317.45C1528.51 315.887 1528.29 314.474 1527.72 313.209C1527.15 311.943 1526.29 310.918 1525.14 310.133C1524.01 309.332 1522.66 308.863 1521.08 308.724C1519.43 308.579 1517.94 308.833 1516.6 309.485C1515.28 310.122 1514.2 311.046 1513.38 312.257C1512.56 313.451 1512.07 314.819 1511.91 316.363L1511.35 322.756C1511.18 324.692 1511.39 326.396 1511.98 327.868C1512.59 329.341 1513.52 330.518 1514.78 331.399C1516.04 332.279 1517.57 332.799 1519.39 332.959C1520.59 333.065 1521.71 332.992 1522.74 332.74C1523.78 332.489 1524.68 332.054 1525.45 331.438C1526.22 330.821 1526.84 330.037 1527.3 329.085L1537.28 330.629C1536.56 332.995 1535.33 335.009 1533.59 336.67C1531.87 338.316 1529.73 339.531 1527.16 340.315C1524.61 341.083 1521.73 341.326 1518.5 341.043ZM1537.39 353.482L1539.15 333.411L1542.16 333.675C1543.07 333.208 1543.84 332.403 1544.47 331.261C1545.12 330.12 1545.69 328.758 1546.17 327.175C1546.67 325.593 1547.09 323.876 1547.44 322.025C1547.81 320.158 1548.16 318.272 1548.48 316.367L1550.62 303.67L1580.62 306.306L1577.94 336.819L1584 337.351L1582.24 357.422L1571.9 356.513L1572.91 345.052L1548.99 342.951L1547.98 354.412L1537.39 353.482ZM1552.96 334.624L1567.7 335.919L1569.65 313.76L1559.11 312.834L1558.31 317.23C1557.65 321.382 1556.93 324.894 1556.13 327.767C1555.33 330.623 1554.27 332.908 1552.96 334.624ZM1605.18 348.657C1601.16 348.303 1597.76 347.184 1595 345.299C1592.26 343.398 1590.24 340.876 1588.94 337.734C1587.65 334.574 1587.18 330.931 1587.54 326.805C1587.9 322.781 1588.99 319.318 1590.82 316.415C1592.65 313.513 1595.05 311.338 1598.04 309.889C1601.04 308.441 1604.46 307.886 1608.3 308.223C1610.88 308.45 1613.24 309.077 1615.4 310.104C1617.56 311.116 1619.41 312.519 1620.93 314.312C1622.47 316.107 1623.59 318.293 1624.31 320.871C1625.02 323.432 1625.23 326.377 1624.94 329.705L1624.68 332.685L1591.64 329.783L1592.24 323.059L1615.06 325.064C1615.19 323.502 1614.98 322.088 1614.4 320.823C1613.83 319.557 1612.97 318.532 1611.82 317.747C1610.7 316.947 1609.34 316.477 1607.76 316.338C1606.12 316.194 1604.62 316.447 1603.28 317.1C1601.96 317.736 1600.89 318.66 1600.06 319.871C1599.24 321.065 1598.75 322.434 1598.6 323.977L1598.04 330.37C1597.87 332.306 1598.08 334.01 1598.66 335.482C1599.27 336.955 1600.2 338.132 1601.46 339.013C1602.72 339.893 1604.25 340.413 1606.07 340.573C1607.28 340.679 1608.4 340.606 1609.43 340.354C1610.46 340.103 1611.36 339.669 1612.13 339.052C1612.91 338.436 1613.52 337.651 1613.98 336.699L1623.96 338.243C1623.24 340.609 1622.01 342.623 1620.27 344.284C1618.55 345.93 1616.41 347.145 1613.84 347.929C1611.3 348.698 1608.41 348.94 1605.18 348.657ZM1625.84 349.702L1626.55 341.088L1627.85 341.202C1628.76 341.283 1629.57 341.131 1630.27 340.748C1630.99 340.349 1631.62 339.66 1632.15 338.68C1632.68 337.7 1633.15 336.381 1633.55 334.722C1633.95 333.046 1634.31 330.973 1634.61 328.501L1636.77 311.237L1666.52 313.85L1663.08 352.972L1652.74 352.064L1655.43 321.475L1645.77 320.627L1644.11 332.518C1643.67 335.782 1643.02 338.566 1642.17 340.869C1641.34 343.174 1640.29 345.033 1639.04 346.446C1637.79 347.842 1636.34 348.827 1634.7 349.401C1633.06 349.976 1631.19 350.171 1629.1 349.988L1625.84 349.702ZM1680.96 340.119L1697.23 316.548L1707.92 317.488L1704.49 356.61L1694.15 355.701L1696.33 330.817L1680.11 354.469L1669.34 353.522L1672.78 314.4L1683.14 315.311L1680.96 340.119ZM1742.8 359.975L1727.99 336.267L1724.22 335.936L1722.27 358.171L1711.24 357.203L1715.82 305.04L1726.85 306.009L1725.02 326.843L1727.23 327.038L1746.38 307.725L1760.11 308.931L1737.64 331.34L1756.47 361.176L1742.8 359.975ZM1788.99 339.957L1788.24 348.49L1767.81 346.695L1768.56 338.163L1788.99 339.957ZM1773.47 323.245L1770.03 362.367L1759.66 361.456L1763.1 322.334L1773.47 323.245ZM1797.13 325.323L1793.69 364.446L1783.4 363.542L1786.84 324.42L1797.13 325.323ZM1811.58 351.592L1827.85 328.022L1838.54 328.961L1835.11 368.083L1824.77 367.175L1826.95 342.291L1810.73 365.942L1799.96 364.996L1803.39 325.874L1813.76 326.784L1811.58 351.592ZM1871.88 331.89L1871.13 340.422L1854.88 338.995L1852.2 369.585L1841.65 368.658L1845.09 329.536L1871.88 331.89ZM1884.53 358.001L1900.8 334.43L1911.5 335.37L1908.06 374.492L1897.72 373.583L1899.9 348.699L1883.69 372.351L1872.91 371.404L1876.35 332.282L1886.71 333.193L1884.53 358.001ZM1914.81 375.085L1919.39 322.922L1930.42 323.891L1928.53 345.413L1950.92 347.379L1952.81 325.857L1963.81 326.824L1959.23 378.986L1948.23 378.02L1950.12 356.472L1927.73 354.506L1925.84 376.053L1914.81 375.085ZM1983.73 381.909C1979.7 381.555 1976.31 380.436 1973.55 378.551C1970.81 376.65 1968.79 374.128 1967.49 370.986C1966.2 367.826 1965.73 364.183 1966.09 360.057C1966.44 356.033 1967.54 352.569 1969.36 349.667C1971.19 346.765 1973.6 344.589 1976.59 343.14C1979.59 341.693 1983.01 341.138 1986.84 341.475C1989.43 341.702 1991.79 342.329 1993.94 343.356C1996.11 344.368 1997.96 345.771 1999.48 347.564C2001.01 349.359 2002.14 351.545 2002.85 354.123C2003.57 356.684 2003.78 359.629 2003.49 362.957L2003.23 365.937L1970.19 363.035L1970.78 356.311L1993.6 358.316C1993.74 356.753 1993.52 355.34 1992.95 354.075C1992.38 352.809 1991.52 351.784 1990.37 350.999C1989.24 350.198 1987.89 349.729 1986.31 349.59C1984.66 349.445 1983.17 349.699 1981.83 350.351C1980.51 350.988 1979.43 351.912 1978.61 353.123C1977.79 354.317 1977.3 355.685 1977.14 357.229L1976.58 363.622C1976.41 365.558 1976.62 367.262 1977.21 368.734C1977.82 370.207 1978.75 371.384 1980.01 372.265C1981.26 373.145 1982.8 373.665 1984.62 373.825C1985.82 373.931 1986.94 373.858 1987.97 373.606C1989.01 373.355 1989.91 372.92 1990.68 372.304C1991.45 371.687 1992.07 370.903 1992.53 369.951L2002.51 371.495C2001.79 373.861 2000.56 375.875 1998.82 377.536C1997.1 379.182 1994.96 380.397 1992.39 381.181C1989.84 381.949 1986.96 382.192 1983.73 381.909ZM2002.62 394.348L2004.38 374.277L2007.39 374.541C2008.3 374.074 2009.07 373.269 2009.7 372.127C2010.35 370.986 2010.92 369.624 2011.4 368.041C2011.9 366.459 2012.32 364.742 2012.67 362.891C2013.04 361.024 2013.39 359.138 2013.71 357.232L2015.85 344.536L2045.85 347.172L2043.17 377.685L2049.23 378.217L2047.47 398.288L2037.13 397.379L2038.14 385.918L2014.22 383.817L2013.21 395.278L2002.62 394.348ZM2018.19 375.49L2032.93 376.785L2034.88 354.626L2024.34 353.7L2023.54 358.096C2022.88 362.248 2022.16 365.76 2021.36 368.633C2020.56 371.489 2019.5 373.774 2018.19 375.49ZM2070.41 389.523C2066.39 389.169 2062.99 388.05 2060.23 386.165C2057.49 384.264 2055.47 381.742 2054.17 378.6C2052.88 375.44 2052.41 371.797 2052.77 367.671C2053.13 363.647 2054.22 360.183 2056.05 357.281C2057.88 354.379 2060.28 352.204 2063.27 350.755C2066.27 349.307 2069.69 348.752 2073.53 349.089C2076.11 349.316 2078.47 349.943 2080.63 350.97C2082.79 351.982 2084.64 353.385 2086.16 355.178C2087.7 356.973 2088.82 359.159 2089.54 361.737C2090.25 364.298 2090.46 367.243 2090.17 370.571L2089.91 373.551L2056.87 370.649L2057.47 363.925L2080.29 365.93C2080.42 364.368 2080.21 362.954 2079.63 361.689C2079.06 360.423 2078.2 359.398 2077.05 358.613C2075.93 357.813 2074.57 357.343 2072.99 357.204C2071.35 357.06 2069.85 357.313 2068.51 357.966C2067.19 358.602 2066.12 359.526 2065.29 360.737C2064.47 361.931 2063.98 363.3 2063.83 364.843L2063.27 371.236C2063.1 373.172 2063.3 374.876 2063.89 376.348C2064.5 377.821 2065.43 378.998 2066.69 379.879C2067.95 380.759 2069.48 381.279 2071.3 381.439C2072.51 381.545 2073.63 381.472 2074.66 381.22C2075.69 380.969 2076.59 380.535 2077.36 379.918C2078.14 379.302 2078.75 378.517 2079.21 377.565L2089.19 379.109C2088.47 381.475 2087.24 383.489 2085.5 385.15C2083.78 386.796 2081.64 388.011 2079.07 388.795C2076.52 389.564 2073.64 389.806 2070.41 389.523ZM2091.07 390.568L2091.78 381.954L2093.08 382.068C2093.99 382.149 2094.8 381.997 2095.5 381.614C2096.22 381.215 2096.85 380.526 2097.38 379.546C2097.91 378.566 2098.38 377.246 2098.78 375.588C2099.18 373.912 2099.54 371.839 2099.84 369.367L2102 352.103L2131.75 354.716L2128.31 393.838L2117.97 392.93L2120.66 362.341L2111 361.493L2109.34 373.384C2108.9 376.648 2108.25 379.432 2107.4 381.735C2106.57 384.04 2105.52 385.899 2104.27 387.312C2103.02 388.708 2101.57 389.693 2099.93 390.267C2098.29 390.842 2096.42 391.037 2094.33 390.854L2091.07 390.568ZM2146.19 380.985L2162.46 357.414L2173.15 358.354L2169.72 397.476L2159.38 396.567L2161.56 371.683L2145.34 395.335L2134.57 394.388L2138.01 355.266L2148.37 356.177L2146.19 380.985ZM2208.02 400.841L2193.22 377.133L2189.45 376.802L2187.5 399.037L2176.47 398.069L2181.05 345.906L2192.08 346.875L2190.25 367.709L2192.46 367.904L2211.61 348.591L2225.34 349.797L2202.87 372.206L2221.7 402.042L2208.02 400.841ZM2254.22 380.823L2253.47 389.356L2233.04 387.561L2233.79 379.029L2254.22 380.823ZM2238.7 364.111L2235.26 403.233L2224.89 402.322L2228.33 363.2L2238.7 364.111ZM2262.36 366.189L2258.92 405.311L2248.63 404.408L2252.07 365.286L2262.36 366.189ZM2276.81 392.458L2293.07 368.888L2303.77 369.827L2300.34 408.949L2290 408.041L2292.18 383.157L2275.96 406.808L2265.19 405.862L2268.62 366.74L2278.99 367.65L2276.81 392.458ZM2337.11 372.756L2336.36 381.288L2320.11 379.861L2317.43 410.451L2306.88 409.524L2310.32 370.402L2337.11 372.756ZM2349.76 398.867L2366.03 375.296L2376.73 376.236L2373.29 415.358L2362.95 414.449L2365.13 389.565L2348.91 413.217L2338.14 412.27L2341.58 373.148L2351.94 374.059L2349.76 398.867ZM2380.04 415.951L2384.62 363.788L2395.65 364.757L2393.76 386.279L2416.15 388.245L2418.04 366.723L2429.04 367.69L2424.46 419.852L2413.46 418.886L2415.35 397.338L2392.96 395.372L2391.07 416.919L2380.04 415.951Z" fill="white"/>
<defs>
<linearGradient id="paint0_linear_124_78" x1="453.303" y1="234.87" x2="452.429" y2="44.9148" gradientUnits="userSpaceOnUse">
<stop stop-color="#31344A"/>
<stop offset="1" stop-color="#3342AE"/>
</linearGradient>
</defs>
</svg>
